SplineFontDB: 3.2
FontName: RisingSun-Light
FullName: Rising Sun Light
FamilyName: Rising Sun Light
Weight: Light
Copyright: Copyright (c) 2012, The Raleway Project Authors (matt@pixelspread.com)
Version: 4.321
ItalicAngle: 0
UnderlinePosition: -125
UnderlineWidth: 50
Ascent: 800
Descent: 200
InvalidEm: 0
sfntRevision: 0x0004526e
LayerCount: 2
Layer: 0 1 "Back" 1
Layer: 1 1 "Fore" 0
XUID: [1021 158 994486733 9585835]
StyleMap: 0x0040
FSType: 0
OS2Version: 4
OS2_WeightWidthSlopeOnly: 0
OS2_UseTypoMetrics: 1
CreationTime: 1683072783
ModificationTime: 1710186065
PfmFamily: 81
TTFWeight: 300
TTFWidth: 5
LineGap: 21
VLineGap: 0
Panose: 0 0 0 0 0 0 0 0 0 0
OS2TypoAscent: 923
OS2TypoAOffset: 0
OS2TypoDescent: -213
OS2TypoDOffset: 0
OS2TypoLinegap: 21
OS2WinAscent: 944
OS2WinAOffset: 0
OS2WinDescent: 234
OS2WinDOffset: 0
HheadAscent: 923
HheadAOffset: 0
HheadDescent: -213
HheadDOffset: 0
OS2SubXSize: 650
OS2SubYSize: 600
OS2SubXOff: 0
OS2SubYOff: 75
OS2SupXSize: 650
OS2SupYSize: 600
OS2SupXOff: 0
OS2SupYOff: 350
OS2StrikeYSize: 50
OS2StrikeYPos: 300
OS2CapHeight: 710
OS2XHeight: 521
OS2Vendor: '    '
OS2CodePages: 2000019f.00000000
OS2UnicodeRanges: a00002ff.4000205b.00000000.00000000
Lookup: 1 0 0 "'aalt' Access All Alternates lookup 0" { "'aalt' Access All Alternates lookup 0 subtable"  } ['aalt' ('DFLT' <'dflt' > 'cyrl' <'BGR ' 'SRB ' 'dflt' > 'latn' <'AZE ' 'CAT ' 'CRT ' 'KAZ ' 'MOL ' 'ROM ' 'TAT ' 'TRK ' 'dflt' > ) ]
Lookup: 3 0 0 "'aalt' Access All Alternates lookup 1" { "'aalt' Access All Alternates lookup 1 subtable"  } ['aalt' ('DFLT' <'dflt' > 'cyrl' <'BGR ' 'SRB ' 'dflt' > 'latn' <'AZE ' 'CAT ' 'CRT ' 'KAZ ' 'MOL ' 'ROM ' 'TAT ' 'TRK ' 'dflt' > ) ]

StartChar: .notdef
Encoding: 65536 -1 0
Width: 608
GlyphClass: 1
Flags: W
LayerCount: 2
Fore
SplineSet
558 689 m 2,0,1
 558 699 558 699 553 704.5 c 128,-1,2
 548 710 548 710 540 710 c 2,3,-1
 69 710 l 2,4,5
 61 710 61 710 55.5 704 c 128,-1,6
 50 698 50 698 50 687 c 2,7,-1
 50 25 l 2,8,9
 50 12 50 12 55.5 6 c 128,-1,10
 61 0 61 0 77 0 c 2,11,-1
 525 0 l 2,12,13
 542 0 542 0 550 6.5 c 128,-1,14
 558 13 558 13 558 29 c 2,15,-1
 558 689 l 2,0,1
506 74 m 2,16,17
 506 61 506 61 499 55.5 c 128,-1,18
 492 50 492 50 478 50 c 2,19,-1
 125 50 l 2,20,21
 111 50 111 50 106.5 55 c 128,-1,22
 102 60 102 60 102 71 c 2,23,-1
 102 641 l 2,24,25
 102 650 102 650 106.5 655 c 128,-1,26
 111 660 111 660 118 660 c 2,27,-1
 491 660 l 2,28,29
 498 660 498 660 502 655 c 128,-1,30
 506 650 506 650 506 642 c 2,31,-1
 506 74 l 2,16,17
538 33 m 1,32,-1
 123 696 l 1,33,-1
 71 669 l 1,34,-1
 478 28 l 1,35,-1
 538 33 l 1,32,-1
EndSplineSet
EndChar

StartChar: exclam
Encoding: 33 33 4
Width: 251
GlyphClass: 1
Flags: W
LayerCount: 2
Fore
SplineSet
73 44 m 256,0,1
 73 33 73 33 77 23.5 c 128,-1,2
 81 14 81 14 88 7 c 128,-1,3
 95 0 95 0 104.5 -4 c 128,-1,4
 114 -8 114 -8 125 -8 c 256,5,6
 136 -8 136 -8 145.5 -4 c 128,-1,7
 155 0 155 0 162.5 7 c 128,-1,8
 170 14 170 14 174 23.5 c 128,-1,9
 178 33 178 33 178 44 c 256,10,11
 178 55 178 55 174 64.5 c 128,-1,12
 170 74 170 74 162.5 81 c 128,-1,13
 155 88 155 88 145.5 92 c 128,-1,14
 136 96 136 96 125 96 c 256,15,16
 114 96 114 96 104.5 92 c 128,-1,17
 95 88 95 88 88 81 c 128,-1,18
 81 74 81 74 77 64.5 c 128,-1,19
 73 55 73 55 73 44 c 256,0,1
148 227 m 1,20,-1
 158 467 l 1,21,-1
 158 717 l 1,22,-1
 93 717 l 1,23,-1
 93 467 l 1,24,-1
 103 227 l 1,25,-1
 148 227 l 1,20,-1
EndSplineSet
EndChar

StartChar: numbersign
Encoding: 35 35 6
Width: 678
GlyphClass: 1
Flags: W
LayerCount: 2
Fore
SplineSet
641 508 m 1,0,-1
 524 508 l 1,1,-1
 574 710 l 1,2,-1
 519 710 l 1,3,-1
 470 508 l 1,4,-1
 278 508 l 1,5,-1
 328 710 l 1,6,-1
 272 710 l 1,7,-1
 223 508 l 1,8,-1
 80 508 l 1,9,-1
 80 458 l 1,10,-1
 211 458 l 1,11,-1
 163 260 l 1,12,-1
 37 260 l 1,13,-1
 37 208 l 1,14,-1
 150 208 l 1,15,-1
 99 0 l 1,16,-1
 155 0 l 1,17,-1
 205 208 l 1,18,-1
 397 208 l 1,19,-1
 346 0 l 1,20,-1
 401 0 l 1,21,-1
 452 208 l 1,22,-1
 598 208 l 1,23,-1
 598 260 l 1,24,-1
 464 260 l 1,25,-1
 512 458 l 1,26,-1
 641 458 l 1,27,-1
 641 508 l 1,0,-1
217 260 m 1,28,-1
 265 458 l 1,29,-1
 457 458 l 1,30,-1
 409 260 l 1,31,-1
 217 260 l 1,28,-1
EndSplineSet
EndChar

StartChar: dollar
Encoding: 36 36 7
Width: 619
GlyphClass: 1
Flags: W
LayerCount: 2
Fore
SplineSet
290 -102 m 1,0,-1
 334 -102 l 1,1,-1
 334 25 l 1,2,-1
 290 26 l 1,3,-1
 290 -102 l 1,0,-1
330 33 m 1,4,-1
 330 680 l 1,5,-1
 293 675 l 1,6,-1
 293 35 l 1,7,-1
 330 33 l 1,4,-1
290 677 m 1,8,-1
 334 683 l 1,9,-1
 334 815 l 1,10,-1
 290 815 l 1,11,-1
 290 677 l 1,8,-1
543 633 m 1,12,13
 521 652 521 652 496 667.5 c 128,-1,14
 471 683 471 683 443 693.5 c 128,-1,15
 415 704 415 704 384 709.5 c 128,-1,16
 353 715 353 715 317 715 c 0,17,18
 262 715 262 715 215.5 702 c 128,-1,19
 169 689 169 689 135.5 662.5 c 128,-1,20
 102 636 102 636 83.5 598.5 c 128,-1,21
 65 561 65 561 65 511 c 0,22,23
 65 469 65 469 79.5 439 c 128,-1,24
 94 409 94 409 123 388.5 c 128,-1,25
 152 368 152 368 194.5 354 c 128,-1,26
 237 340 237 340 292 327 c 0,27,28
 346 315 346 315 386.5 303 c 128,-1,29
 427 291 427 291 454 274 c 128,-1,30
 481 257 481 257 494.5 234.5 c 128,-1,31
 508 212 508 212 508 178 c 0,32,33
 508 116 508 116 459.5 84.5 c 128,-1,34
 411 53 411 53 325 53 c 0,35,36
 285 53 285 53 247.5 61 c 128,-1,37
 210 69 210 69 177.5 82 c 128,-1,38
 145 95 145 95 118.5 113 c 128,-1,39
 92 131 92 131 72 152 c 1,40,-1
 39 97 l 1,41,42
 68 72 68 72 100.5 52 c 128,-1,43
 133 32 133 32 169 19.5 c 128,-1,44
 205 7 205 7 243.5 0.5 c 128,-1,45
 282 -6 282 -6 323 -6 c 0,46,47
 379 -6 379 -6 426 5.5 c 128,-1,48
 473 17 473 17 506.5 41 c 128,-1,49
 540 65 540 65 559.5 101 c 128,-1,50
 579 137 579 137 579 185 c 256,51,52
 579 233 579 233 562 265.5 c 128,-1,53
 545 298 545 298 512.5 320 c 128,-1,54
 480 342 480 342 435 357 c 128,-1,55
 390 372 390 372 333 384 c 0,56,57
 281 396 281 396 243.5 406.5 c 128,-1,58
 206 417 206 417 181.5 432 c 128,-1,59
 157 447 157 447 145 468.5 c 128,-1,60
 133 490 133 490 133 521 c 0,61,62
 133 583 133 583 177.5 619 c 128,-1,63
 222 655 222 655 317 655 c 0,64,65
 349 655 349 655 377.5 649.5 c 128,-1,66
 406 644 406 644 430.5 634 c 128,-1,67
 455 624 455 624 475.5 610 c 128,-1,68
 496 596 496 596 511 579 c 1,69,-1
 543 633 l 1,12,13
EndSplineSet
EndChar

StartChar: percent
Encoding: 37 37 8
Width: 712
GlyphClass: 1
Flags: W
LayerCount: 2
Fore
SplineSet
189 433 m 0,0,1
 220 433 220 433 247 444.5 c 128,-1,2
 274 456 274 456 294.5 475 c 128,-1,3
 315 494 315 494 326.5 520.5 c 128,-1,4
 338 547 338 547 338 577 c 0,5,6
 338 606 338 606 326.5 632.5 c 128,-1,7
 315 659 315 659 294.5 678 c 128,-1,8
 274 697 274 697 247 708.5 c 128,-1,9
 220 720 220 720 189 720 c 0,10,11
 159 720 159 720 131.5 708.5 c 128,-1,12
 104 697 104 697 84 678 c 128,-1,13
 64 659 64 659 52.5 632.5 c 128,-1,14
 41 606 41 606 41 577 c 0,15,16
 41 547 41 547 52.5 520.5 c 128,-1,17
 64 494 64 494 84 475 c 128,-1,18
 104 456 104 456 131.5 444.5 c 128,-1,19
 159 433 159 433 189 433 c 0,0,1
189 472 m 0,20,21
 169 472 169 472 151 480 c 128,-1,22
 133 488 133 488 119.5 502.5 c 128,-1,23
 106 517 106 517 98 536 c 128,-1,24
 90 555 90 555 90 577 c 0,25,26
 90 598 90 598 97.5 616.5 c 128,-1,27
 105 635 105 635 118.5 649.5 c 128,-1,28
 132 664 132 664 150 672.5 c 128,-1,29
 168 681 168 681 189 681 c 0,30,31
 209 681 209 681 227 673 c 128,-1,32
 245 665 245 665 258.5 651 c 128,-1,33
 272 637 272 637 280.5 617.5 c 128,-1,34
 289 598 289 598 289 577 c 256,35,36
 289 556 289 556 281 537 c 128,-1,37
 273 518 273 518 260 503.5 c 128,-1,38
 247 489 247 489 228.5 480.5 c 128,-1,39
 210 472 210 472 189 472 c 0,20,21
523 -10 m 256,40,41
 554 -10 554 -10 581 1 c 128,-1,42
 608 12 608 12 628 31.5 c 128,-1,43
 648 51 648 51 660 77.5 c 128,-1,44
 672 104 672 104 672 133 c 0,45,46
 672 163 672 163 660 189.5 c 128,-1,47
 648 216 648 216 628 235 c 128,-1,48
 608 254 608 254 581 265.5 c 128,-1,49
 554 277 554 277 523 277 c 256,50,51
 492 277 492 277 465 265.5 c 128,-1,52
 438 254 438 254 418 235 c 128,-1,53
 398 216 398 216 386 189.5 c 128,-1,54
 374 163 374 163 374 133 c 0,55,56
 374 104 374 104 386 77.5 c 128,-1,57
 398 51 398 51 418 31.5 c 128,-1,58
 438 12 438 12 465 1 c 128,-1,59
 492 -10 492 -10 523 -10 c 256,40,41
523 29 m 0,60,61
 503 29 503 29 485 37 c 128,-1,62
 467 45 467 45 453 59 c 128,-1,63
 439 73 439 73 431.5 92.5 c 128,-1,64
 424 112 424 112 424 133 c 256,65,66
 424 154 424 154 431.5 173 c 128,-1,67
 439 192 439 192 452.5 206.5 c 128,-1,68
 466 221 466 221 484 229.5 c 128,-1,69
 502 238 502 238 523 238 c 0,70,71
 543 238 543 238 561 230 c 128,-1,72
 579 222 579 222 592.5 207.5 c 128,-1,73
 606 193 606 193 614 174 c 128,-1,74
 622 155 622 155 622 133 c 0,75,76
 622 112 622 112 614.5 93.5 c 128,-1,77
 607 75 607 75 593.5 60.5 c 128,-1,78
 580 46 580 46 562 37.5 c 128,-1,79
 544 29 544 29 523 29 c 0,60,61
97 -4 m 1,80,-1
 370 344 l 1,81,-1
 649 685 l 1,82,-1
 615 714 l 1,83,-1
 343 367 l 1,84,-1
 63 26 l 1,85,-1
 97 -4 l 1,80,-1
EndSplineSet
EndChar

StartChar: ampersand
Encoding: 38 38 9
Width: 666
GlyphClass: 1
Flags: W
LayerCount: 2
Fore
SplineSet
659 0 m 1,0,-1
 266 410 l 2,1,2
 234 444 234 444 213.5 467.5 c 128,-1,3
 193 491 193 491 181.5 508.5 c 128,-1,4
 170 526 170 526 165.5 539.5 c 128,-1,5
 161 553 161 553 161 565 c 0,6,7
 161 586 161 586 170 605 c 128,-1,8
 179 624 179 624 194.5 638 c 128,-1,9
 210 652 210 652 231.5 660 c 128,-1,10
 253 668 253 668 278 668 c 0,11,12
 324 668 324 668 353.5 642.5 c 128,-1,13
 383 617 383 617 383 578 c 0,14,15
 383 554 383 554 371 533.5 c 128,-1,16
 359 513 359 513 338.5 493.5 c 128,-1,17
 318 474 318 474 289 454 c 128,-1,18
 260 434 260 434 224 411 c 0,19,20
 190 389 190 389 158.5 365.5 c 128,-1,21
 127 342 127 342 102 314.5 c 128,-1,22
 77 287 77 287 62.5 254.5 c 128,-1,23
 48 222 48 222 48 182 c 0,24,25
 48 139 48 139 65.5 103.5 c 128,-1,26
 83 68 83 68 114 43 c 128,-1,27
 145 18 145 18 186 4 c 128,-1,28
 227 -10 227 -10 273 -10 c 0,29,30
 341 -10 341 -10 398 18.5 c 128,-1,31
 455 47 455 47 497 96.5 c 128,-1,32
 539 146 539 146 563 212.5 c 128,-1,33
 587 279 587 279 587 355 c 1,34,-1
 532 355 l 1,35,36
 532 292 532 292 513 235 c 128,-1,37
 494 178 494 178 460.5 135.5 c 128,-1,38
 427 93 427 93 381 68 c 128,-1,39
 335 43 335 43 280 43 c 0,40,41
 249 43 249 43 218.5 51.5 c 128,-1,42
 188 60 188 60 164.5 77.5 c 128,-1,43
 141 95 141 95 126 121 c 128,-1,44
 111 147 111 147 111 181 c 0,45,46
 111 211 111 211 123 237 c 128,-1,47
 135 263 135 263 155.5 286 c 128,-1,48
 176 309 176 309 203.5 330 c 128,-1,49
 231 351 231 351 262 371 c 0,50,51
 298 395 298 395 331 418 c 128,-1,52
 364 441 364 441 389 465.5 c 128,-1,53
 414 490 414 490 428.5 518.5 c 128,-1,54
 443 547 443 547 443 580 c 0,55,56
 443 610 443 610 430.5 636 c 128,-1,57
 418 662 418 662 395.5 680.5 c 128,-1,58
 373 699 373 699 343 709 c 128,-1,59
 313 719 313 719 278 719 c 0,60,61
 241 719 241 719 208.5 707 c 128,-1,62
 176 695 176 695 152 674 c 128,-1,63
 128 653 128 653 114.5 625 c 128,-1,64
 101 597 101 597 101 564 c 0,65,66
 101 544 101 544 107 524.5 c 128,-1,67
 113 505 113 505 126.5 483 c 128,-1,68
 140 461 140 461 162.5 434.5 c 128,-1,69
 185 408 185 408 218 373 c 2,70,-1
 573 0 l 1,71,-1
 659 0 l 1,0,-1
EndSplineSet
EndChar

StartChar: quotesingle
Encoding: 39 39 10
Width: 195
GlyphClass: 1
Flags: W
LayerCount: 2
Fore
SplineSet
106 528 m 1,0,-1
 164 715 l 1,1,-1
 97 715 l 1,2,-1
 70 528 l 1,3,-1
 106 528 l 1,0,-1
EndSplineSet
EndChar

StartChar: parenleft
Encoding: 40 40 11
Width: 267
GlyphClass: 1
Flags: W
LayerCount: 2
Fore
SplineSet
45 346 m 0,0,1
 45 299 45 299 54.5 250.5 c 128,-1,2
 64 202 64 202 82.5 154 c 128,-1,3
 101 106 101 106 127 58 c 128,-1,4
 153 10 153 10 184 -37 c 1,5,-1
 233 -10 l 1,6,7
 203 35 203 35 179.5 81 c 128,-1,8
 156 127 156 127 139.5 172 c 128,-1,9
 123 217 123 217 114.5 260.5 c 128,-1,10
 106 304 106 304 106 343 c 0,11,12
 106 390 106 390 118.5 443 c 128,-1,13
 131 496 131 496 149.5 545.5 c 128,-1,14
 168 595 168 595 191 639.5 c 128,-1,15
 214 684 214 684 234 714 c 1,16,-1
 184 738 l 1,17,18
 155 689 155 689 129.5 641 c 128,-1,19
 104 593 104 593 85 544.5 c 128,-1,20
 66 496 66 496 55.5 446.5 c 128,-1,21
 45 397 45 397 45 346 c 0,0,1
EndSplineSet
EndChar

StartChar: parenright
Encoding: 41 41 12
Width: 266
GlyphClass: 1
Flags: W
LayerCount: 2
Fore
SplineSet
222 346 m 0,0,1
 222 397 222 397 211 446.5 c 128,-1,2
 200 496 200 496 181 544.5 c 128,-1,3
 162 593 162 593 137 641 c 128,-1,4
 112 689 112 689 83 738 c 1,5,-1
 32 714 l 1,6,7
 53 684 53 684 76 639.5 c 128,-1,8
 99 595 99 595 117.5 545.5 c 128,-1,9
 136 496 136 496 148.5 443 c 128,-1,10
 161 390 161 390 161 343 c 0,11,12
 161 304 161 304 152 260.5 c 128,-1,13
 143 217 143 217 126.5 172 c 128,-1,14
 110 127 110 127 86.5 81 c 128,-1,15
 63 35 63 35 34 -10 c 1,16,-1
 82 -37 l 1,17,18
 114 10 114 10 140 58 c 128,-1,19
 166 106 166 106 184 154 c 128,-1,20
 202 202 202 202 212 250.5 c 128,-1,21
 222 299 222 299 222 346 c 0,0,1
EndSplineSet
EndChar

StartChar: asterisk
Encoding: 42 42 13
Width: 320
GlyphClass: 1
Flags: W
LayerCount: 2
Fore
SplineSet
117 526 m 1,0,-1
 160 590 l 1,1,-1
 203 526 l 1,2,-1
 234 547 l 1,3,-1
 190 609 l 1,4,-1
 258 631 l 1,5,-1
 247 665 l 1,6,-1
 178 640 l 1,7,-1
 180 713 l 1,8,-1
 140 713 l 1,9,-1
 142 640 l 1,10,-1
 73 665 l 1,11,-1
 62 631 l 1,12,-1
 130 609 l 1,13,-1
 87 547 l 1,14,-1
 117 526 l 1,0,-1
EndSplineSet
EndChar

StartChar: plus
Encoding: 43 43 14
Width: 415
GlyphClass: 1
Flags: W
LayerCount: 2
Fore
SplineSet
237 382 m 1,0,-1
 237 518 l 1,1,-1
 177 518 l 1,2,-1
 177 382 l 1,3,-1
 52 382 l 1,4,-1
 52 328 l 1,5,-1
 177 328 l 1,6,-1
 177 192 l 1,7,-1
 237 192 l 1,8,-1
 237 328 l 1,9,-1
 363 328 l 1,10,-1
 363 382 l 1,11,-1
 237 382 l 1,0,-1
EndSplineSet
EndChar

StartChar: comma
Encoding: 44 44 15
Width: 227
GlyphClass: 1
Flags: W
LayerCount: 2
Fore
SplineSet
79 -160 m 1,0,-1
 146 100 l 1,1,-1
 79 100 l 1,2,-1
 42 -160 l 1,3,-1
 79 -160 l 1,0,-1
EndSplineSet
EndChar

StartChar: hyphen
Encoding: 45 45 16
Width: 422
GlyphClass: 1
Flags: W
LayerCount: 2
Fore
SplineSet
357 242 m 1,0,-1
 357 302 l 1,1,-1
 66 302 l 1,2,-1
 66 242 l 1,3,-1
 357 242 l 1,0,-1
EndSplineSet
EndChar

StartChar: period
Encoding: 46 46 17
Width: 187
GlyphClass: 1
Flags: W
LayerCount: 2
Fore
SplineSet
44 40 m 256,0,1
 44 20 44 20 58.5 6 c 128,-1,2
 73 -8 73 -8 93 -8 c 256,3,4
 113 -8 113 -8 127.5 6 c 128,-1,5
 142 20 142 20 142 40 c 256,6,7
 142 60 142 60 127.5 74.5 c 128,-1,8
 113 89 113 89 93 89 c 256,9,10
 73 89 73 89 58.5 74.5 c 128,-1,11
 44 60 44 60 44 40 c 256,0,1
EndSplineSet
EndChar

StartChar: slash
Encoding: 47 47 18
Width: 601
GlyphClass: 1
Flags: W
LayerCount: 2
Fore
SplineSet
498 710 m 1,0,-1
 27 0 l 1,1,-1
 101 0 l 1,2,-1
 573 710 l 1,3,-1
 498 710 l 1,0,-1
EndSplineSet
Substitution2: "'frac' Diagonal Fractions lookup 21 subtable" fraction
Substitution2: "'aalt' Access All Alternates lookup 0 subtable" fraction
EndChar

StartChar: zero
Encoding: 48 48 19
Width: 683
GlyphClass: 1
Flags: W
LayerCount: 2
Fore
SplineSet
341 -10 m 0,0,1
 409 -9 409 -9 463 23 c 128,-1,2
 517 55 517 55 555.5 106 c 128,-1,3
 594 157 594 157 614 221 c 128,-1,4
 634 285 634 285 634 350 c 0,5,6
 634 408 634 408 615.5 471.5 c 128,-1,7
 597 535 597 535 560 588 c 128,-1,8
 523 641 523 641 468.5 675.5 c 128,-1,9
 414 710 414 710 341 710 c 0,10,11
 274 710 274 710 219.5 678 c 128,-1,12
 165 646 165 646 127 594.5 c 128,-1,13
 89 543 89 543 69 478.5 c 128,-1,14
 49 414 49 414 49 350 c 0,15,16
 49 290 49 290 67.5 227 c 128,-1,17
 86 164 86 164 123 111.5 c 128,-1,18
 160 59 160 59 214.5 25 c 128,-1,19
 269 -9 269 -9 341 -10 c 0,0,1
116 350 m 0,20,21
 116 397 116 397 130 449.5 c 128,-1,22
 144 502 144 502 172 546.5 c 128,-1,23
 200 591 200 591 242 620 c 128,-1,24
 284 649 284 649 341 649 c 0,25,26
 395 649 395 649 437 622 c 128,-1,27
 479 595 479 595 507.5 552 c 128,-1,28
 536 509 536 509 551.5 456 c 128,-1,29
 567 403 567 403 567 350 c 0,30,31
 567 303 567 303 553 250 c 128,-1,32
 539 197 539 197 511 153 c 128,-1,33
 483 109 483 109 440.5 80 c 128,-1,34
 398 51 398 51 341 51 c 0,35,36
 286 51 286 51 245 78 c 128,-1,37
 204 105 204 105 175.5 148 c 128,-1,38
 147 191 147 191 132.5 244 c 128,-1,39
 118 297 118 297 116 350 c 0,20,21
EndSplineSet
Substitution2: "'tnum' Tabular Numbers lookup 41 subtable" zero.tnum
Substitution2: "'frac' Diagonal Fractions lookup 22 subtable" zero.numr
Substitution2: "'dnom' Denominators lookup 20 subtable" zero.dnom
Substitution2: "'numr' Numerators lookup 19 subtable" zero.numr
Substitution2: "'sups' Superscript lookup 18 subtable" uni2070
Substitution2: "'sinf' Scientific Inferiors lookup 17 subtable" zero.subs
Substitution2: "'subs' Subscript lookup 16 subtable" uni2080
AlternateSubs2: "'aalt' Access All Alternates lookup 1 subtable" uni2080 zero.subs uni2070 zero.numr zero.dnom
EndChar

StartChar: one
Encoding: 49 49 20
Width: 373
GlyphClass: 1
Flags: W
LayerCount: 2
Fore
SplineSet
266 719 m 1,0,-1
 199 719 l 2,1,2
 198 718 198 718 183.5 702 c 128,-1,3
 169 686 169 686 146 668 c 128,-1,4
 123 650 123 650 95.5 635.5 c 128,-1,5
 68 621 68 621 42 621 c 1,6,-1
 42 560 l 1,7,8
 62 560 62 560 86 569 c 128,-1,9
 110 578 110 578 132.5 591.5 c 128,-1,10
 155 605 155 605 173 619.5 c 128,-1,11
 191 634 191 634 199 646 c 1,12,-1
 199 0 l 1,13,-1
 266 0 l 1,14,-1
 266 719 l 1,0,-1
EndSplineSet
Substitution2: "'tnum' Tabular Numbers lookup 41 subtable" one.tnum
Substitution2: "'frac' Diagonal Fractions lookup 22 subtable" one.numr
Substitution2: "'dnom' Denominators lookup 20 subtable" one.dnom
Substitution2: "'numr' Numerators lookup 19 subtable" one.numr
Substitution2: "'sups' Superscript lookup 18 subtable" onesuperior
Substitution2: "'sinf' Scientific Inferiors lookup 17 subtable" one.subs
Substitution2: "'subs' Subscript lookup 16 subtable" uni2081
AlternateSubs2: "'aalt' Access All Alternates lookup 1 subtable" uni2081 one.subs onesuperior one.numr one.dnom
EndChar

StartChar: two
Encoding: 50 50 21
Width: 580
GlyphClass: 1
Flags: W
LayerCount: 2
Fore
SplineSet
526 0 m 1,0,-1
 526 60 l 1,1,-1
 119 60 l 1,2,3
 120 88 120 88 125.5 116.5 c 128,-1,4
 131 145 131 145 150.5 173.5 c 128,-1,5
 170 202 170 202 207.5 231 c 128,-1,6
 245 260 245 260 309 289 c 0,7,8
 343 305 343 305 380.5 322.5 c 128,-1,9
 418 340 418 340 450.5 365 c 128,-1,10
 483 390 483 390 504 426 c 128,-1,11
 525 462 525 462 525 515 c 0,12,13
 525 555 525 555 511 592.5 c 128,-1,14
 497 630 497 630 469.5 658 c 128,-1,15
 442 686 442 686 400.5 702.5 c 128,-1,16
 359 719 359 719 304 719 c 0,17,18
 247 719 247 719 203 702.5 c 128,-1,19
 159 686 159 686 127.5 664.5 c 128,-1,20
 96 643 96 643 78 623 c 128,-1,21
 60 603 60 603 54 596 c 1,22,-1
 98 555 l 1,23,24
 109 570 109 570 127.5 587.5 c 128,-1,25
 146 605 146 605 170.5 621 c 128,-1,26
 195 637 195 637 227 647.5 c 128,-1,27
 259 658 259 658 297 658 c 0,28,29
 337 658 337 658 366 646 c 128,-1,30
 395 634 395 634 414.5 614.5 c 128,-1,31
 434 595 434 595 443.5 569 c 128,-1,32
 453 543 453 543 453 515 c 0,33,34
 453 469 453 469 430.5 438.5 c 128,-1,35
 408 408 408 408 374 386.5 c 128,-1,36
 340 365 340 365 299 347.5 c 128,-1,37
 258 330 258 330 220 310 c 0,38,39
 180 289 180 289 147.5 261.5 c 128,-1,40
 115 234 115 234 92.5 196.5 c 128,-1,41
 70 159 70 159 58.5 111 c 128,-1,42
 47 63 47 63 48 0 c 1,43,-1
 526 0 l 1,0,-1
EndSplineSet
Substitution2: "'tnum' Tabular Numbers lookup 41 subtable" two.tnum
Substitution2: "'frac' Diagonal Fractions lookup 22 subtable" two.numr
Substitution2: "'dnom' Denominators lookup 20 subtable" two.dnom
Substitution2: "'numr' Numerators lookup 19 subtable" two.numr
Substitution2: "'sups' Superscript lookup 18 subtable" twosuperior
Substitution2: "'sinf' Scientific Inferiors lookup 17 subtable" two.subs
Substitution2: "'subs' Subscript lookup 16 subtable" uni2082
AlternateSubs2: "'aalt' Access All Alternates lookup 1 subtable" uni2082 two.subs twosuperior two.numr two.dnom
EndChar

StartChar: three
Encoding: 51 51 22
Width: 584
GlyphClass: 1
Flags: W
LayerCount: 2
Fore
SplineSet
278 -9 m 0,0,1
 328 -9 328 -9 374 4.5 c 128,-1,2
 420 18 420 18 455.5 43 c 128,-1,3
 491 68 491 68 512 103.5 c 128,-1,4
 533 139 533 139 533 183 c 0,5,6
 533 217 533 217 522 247 c 128,-1,7
 511 277 511 277 490.5 301 c 128,-1,8
 470 325 470 325 440.5 341.5 c 128,-1,9
 411 358 411 358 375 364 c 1,10,11
 409 373 409 373 435 387 c 128,-1,12
 461 401 461 401 479 421 c 128,-1,13
 497 441 497 441 506 466.5 c 128,-1,14
 515 492 515 492 515 522 c 0,15,16
 515 564 515 564 497.5 600 c 128,-1,17
 480 636 480 636 448.5 662.5 c 128,-1,18
 417 689 417 689 373.5 704 c 128,-1,19
 330 719 330 719 279 719 c 0,20,21
 243 719 243 719 208.5 711 c 128,-1,22
 174 703 174 703 144.5 688 c 128,-1,23
 115 673 115 673 92 651 c 128,-1,24
 69 629 69 629 55 602 c 1,25,-1
 100 559 l 1,26,27
 119 602 119 602 166 631 c 128,-1,28
 213 660 213 660 280 660 c 0,29,30
 314 660 314 660 344 650 c 128,-1,31
 374 640 374 640 397 622 c 128,-1,32
 420 604 420 604 433 578 c 128,-1,33
 446 552 446 552 446 520 c 0,34,35
 446 455 446 455 390.5 423 c 128,-1,36
 335 391 335 391 237 391 c 2,37,-1
 202 391 l 1,38,-1
 202 334 l 1,39,-1
 237 334 l 2,40,41
 289 334 289 334 331.5 324.5 c 128,-1,42
 374 315 374 315 403.5 296.5 c 128,-1,43
 433 278 433 278 449.5 251.5 c 128,-1,44
 466 225 466 225 466 191 c 0,45,46
 466 160 466 160 451 134.5 c 128,-1,47
 436 109 436 109 410 90.5 c 128,-1,48
 384 72 384 72 350 61.5 c 128,-1,49
 316 51 316 51 278 51 c 0,50,51
 245 51 245 51 215.5 58 c 128,-1,52
 186 65 186 65 162 77.5 c 128,-1,53
 138 90 138 90 119.5 108 c 128,-1,54
 101 126 101 126 90 148 c 1,55,-1
 45 106 l 1,56,57
 59 79 59 79 83 58 c 128,-1,58
 107 37 107 37 138 22 c 128,-1,59
 169 7 169 7 204.5 -1 c 128,-1,60
 240 -9 240 -9 278 -9 c 0,0,1
EndSplineSet
Substitution2: "'tnum' Tabular Numbers lookup 41 subtable" three.tnum
Substitution2: "'frac' Diagonal Fractions lookup 22 subtable" three.numr
Substitution2: "'dnom' Denominators lookup 20 subtable" three.dnom
Substitution2: "'numr' Numerators lookup 19 subtable" three.numr
Substitution2: "'sups' Superscript lookup 18 subtable" threesuperior
Substitution2: "'sinf' Scientific Inferiors lookup 17 subtable" three.subs
Substitution2: "'subs' Subscript lookup 16 subtable" uni2083
AlternateSubs2: "'aalt' Access All Alternates lookup 1 subtable" uni2083 three.subs threesuperior three.numr three.dnom
EndChar

StartChar: four
Encoding: 52 52 23
Width: 568
GlyphClass: 1
Flags: W
LayerCount: 2
Fore
SplineSet
442 0 m 1,0,-1
 442 191 l 1,1,-1
 530 191 l 1,2,-1
 530 251 l 1,3,-1
 442 251 l 1,4,-1
 442 710 l 1,5,-1
 397 710 l 1,6,-1
 26 249 l 1,7,-1
 26 191 l 1,8,-1
 377 191 l 1,9,-1
 377 0 l 1,10,-1
 442 0 l 1,0,-1
383 608 m 1,11,-1
 383 251 l 1,12,-1
 97 251 l 1,13,-1
 383 608 l 1,11,-1
EndSplineSet
Substitution2: "'tnum' Tabular Numbers lookup 41 subtable" four.tnum
Substitution2: "'frac' Diagonal Fractions lookup 22 subtable" four.numr
Substitution2: "'dnom' Denominators lookup 20 subtable" four.dnom
Substitution2: "'numr' Numerators lookup 19 subtable" four.numr
Substitution2: "'sups' Superscript lookup 18 subtable" uni2074
Substitution2: "'sinf' Scientific Inferiors lookup 17 subtable" four.subs
Substitution2: "'subs' Subscript lookup 16 subtable" uni2084
AlternateSubs2: "'aalt' Access All Alternates lookup 1 subtable" uni2084 four.subs uni2074 four.numr four.dnom
EndChar

StartChar: five
Encoding: 53 53 24
Width: 555
GlyphClass: 1
Flags: W
LayerCount: 2
Fore
SplineSet
268 -10 m 0,0,1
 319 -10 319 -10 364 7 c 128,-1,2
 409 24 409 24 442 55 c 128,-1,3
 475 86 475 86 494.5 129 c 128,-1,4
 514 172 514 172 514 225 c 0,5,6
 514 275 514 275 496 316.5 c 128,-1,7
 478 358 478 358 446.5 387.5 c 128,-1,8
 415 417 415 417 373 433.5 c 128,-1,9
 331 450 331 450 282 450 c 0,10,11
 237 450 237 450 198.5 434.5 c 128,-1,12
 160 419 160 419 134 390 c 1,13,-1
 184 649 l 1,14,-1
 477 649 l 1,15,-1
 477 710 l 1,16,-1
 135 710 l 1,17,-1
 56 312 l 1,18,-1
 117 312 l 1,19,20
 143 351 143 351 185.5 372 c 128,-1,21
 228 393 228 393 275 393 c 0,22,23
 311 393 311 393 342.5 380.5 c 128,-1,24
 374 368 374 368 397 345.5 c 128,-1,25
 420 323 420 323 433.5 292 c 128,-1,26
 447 261 447 261 447 224 c 0,27,28
 447 186 447 186 433.5 153.5 c 128,-1,29
 420 121 420 121 396 98 c 128,-1,30
 372 75 372 75 339 62 c 128,-1,31
 306 49 306 49 269 49 c 0,32,33
 210 49 210 49 161 79 c 128,-1,34
 112 109 112 109 85 159 c 1,35,-1
 42 124 l 1,36,37
 73 61 73 61 132.5 25.5 c 128,-1,38
 192 -10 192 -10 268 -10 c 0,0,1
EndSplineSet
Substitution2: "'tnum' Tabular Numbers lookup 41 subtable" five.tnum
Substitution2: "'frac' Diagonal Fractions lookup 22 subtable" five.numr
Substitution2: "'dnom' Denominators lookup 20 subtable" five.dnom
Substitution2: "'numr' Numerators lookup 19 subtable" five.numr
Substitution2: "'sups' Superscript lookup 18 subtable" uni2075
Substitution2: "'sinf' Scientific Inferiors lookup 17 subtable" five.subs
Substitution2: "'subs' Subscript lookup 16 subtable" uni2085
AlternateSubs2: "'aalt' Access All Alternates lookup 1 subtable" uni2085 five.subs uni2075 five.numr five.dnom
EndChar

StartChar: six
Encoding: 54 54 25
Width: 602
GlyphClass: 1
Flags: W
LayerCount: 2
Fore
SplineSet
559 234 m 0,0,1
 559 183 559 183 539.5 139 c 128,-1,2
 520 95 520 95 486 61.5 c 128,-1,3
 452 28 452 28 406 9 c 128,-1,4
 360 -10 360 -10 307 -10 c 0,5,6
 252 -10 252 -10 205 10.5 c 128,-1,7
 158 31 158 31 124 69 c 128,-1,8
 90 107 90 107 71.5 162 c 128,-1,9
 53 217 53 217 53 286 c 0,10,11
 53 395 53 395 71.5 475.5 c 128,-1,12
 90 556 90 556 124.5 609.5 c 128,-1,13
 159 663 159 663 207.5 689 c 128,-1,14
 256 715 256 715 314 715 c 0,15,16
 384 715 384 715 440.5 680 c 128,-1,17
 497 645 497 645 525 582 c 1,18,-1
 483 544 l 1,19,20
 462 596 462 596 416.5 626.5 c 128,-1,21
 371 657 371 657 314 657 c 0,22,23
 269 657 269 657 233 636 c 128,-1,24
 197 615 197 615 170.5 574.5 c 128,-1,25
 144 534 144 534 130 475.5 c 128,-1,26
 116 417 116 417 115 343 c 1,27,28
 127 372 127 372 146.5 396.5 c 128,-1,29
 166 421 166 421 192 438.5 c 128,-1,30
 218 456 218 456 249.5 465 c 128,-1,31
 281 474 281 474 315 474 c 0,32,33
 365 474 365 474 410 455.5 c 128,-1,34
 455 437 455 437 488 404.5 c 128,-1,35
 521 372 521 372 540 328 c 128,-1,36
 559 284 559 284 559 234 c 0,0,1
309 47 m 256,37,38
 347 47 347 47 381 62 c 128,-1,39
 415 77 415 77 440.5 102.5 c 128,-1,40
 466 128 466 128 481 161.5 c 128,-1,41
 496 195 496 195 496 234 c 0,42,43
 496 272 496 272 481 306 c 128,-1,44
 466 340 466 340 440.5 365 c 128,-1,45
 415 390 415 390 381 405 c 128,-1,46
 347 420 347 420 308 420 c 0,47,48
 270 420 270 420 236 405 c 128,-1,49
 202 390 202 390 176.5 365 c 128,-1,50
 151 340 151 340 136 306 c 128,-1,51
 121 272 121 272 121 234 c 256,52,53
 121 196 121 196 136 162 c 128,-1,54
 151 128 151 128 176.5 102.5 c 128,-1,55
 202 77 202 77 236.5 62 c 128,-1,56
 271 47 271 47 309 47 c 256,37,38
EndSplineSet
Substitution2: "'tnum' Tabular Numbers lookup 41 subtable" six.tnum
Substitution2: "'frac' Diagonal Fractions lookup 22 subtable" six.numr
Substitution2: "'dnom' Denominators lookup 20 subtable" six.dnom
Substitution2: "'numr' Numerators lookup 19 subtable" six.numr
Substitution2: "'sups' Superscript lookup 18 subtable" uni2076
Substitution2: "'sinf' Scientific Inferiors lookup 17 subtable" six.subs
Substitution2: "'subs' Subscript lookup 16 subtable" uni2086
AlternateSubs2: "'aalt' Access All Alternates lookup 1 subtable" uni2086 six.subs uni2076 six.numr six.dnom
EndChar

StartChar: seven
Encoding: 55 55 26
Width: 520
GlyphClass: 1
Flags: W
LayerCount: 2
Fore
SplineSet
87 0 m 1,0,-1
 160 0 l 1,1,-1
 520 710 l 1,2,-1
 31 710 l 1,3,-1
 31 649 l 1,4,-1
 416 649 l 1,5,-1
 87 0 l 1,0,-1
EndSplineSet
Substitution2: "'tnum' Tabular Numbers lookup 41 subtable" seven.tnum
Substitution2: "'frac' Diagonal Fractions lookup 22 subtable" seven.numr
Substitution2: "'dnom' Denominators lookup 20 subtable" seven.dnom
Substitution2: "'numr' Numerators lookup 19 subtable" seven.numr
Substitution2: "'sups' Superscript lookup 18 subtable" uni2077
Substitution2: "'sinf' Scientific Inferiors lookup 17 subtable" seven.subs
Substitution2: "'subs' Subscript lookup 16 subtable" uni2087
AlternateSubs2: "'aalt' Access All Alternates lookup 1 subtable" uni2087 seven.subs uni2077 seven.numr seven.dnom
EndChar

StartChar: eight
Encoding: 56 56 27
Width: 592
GlyphClass: 1
Flags: W
LayerCount: 2
Fore
SplineSet
542 197 m 0,0,1
 542 231 542 231 530.5 259.5 c 128,-1,2
 519 288 519 288 499.5 311.5 c 128,-1,3
 480 335 480 335 453.5 352.5 c 128,-1,4
 427 370 427 370 398 380 c 1,5,6
 422 390 422 390 444 404.5 c 128,-1,7
 466 419 466 419 482 438.5 c 128,-1,8
 498 458 498 458 508 481 c 128,-1,9
 518 504 518 504 518 530 c 0,10,11
 518 574 518 574 498 607.5 c 128,-1,12
 478 641 478 641 446.5 664 c 128,-1,13
 415 687 415 687 375.5 698.5 c 128,-1,14
 336 710 336 710 296 710 c 0,15,16
 257 710 257 710 217.5 698.5 c 128,-1,17
 178 687 178 687 146.5 663.5 c 128,-1,18
 115 640 115 640 95 606.5 c 128,-1,19
 75 573 75 573 75 530 c 0,20,21
 75 503 75 503 84.5 480 c 128,-1,22
 94 457 94 457 110 438 c 128,-1,23
 126 419 126 419 148 404.5 c 128,-1,24
 170 390 170 390 194 380 c 1,25,26
 168 372 168 372 142 355 c 128,-1,27
 116 338 116 338 96 315.5 c 128,-1,28
 76 293 76 293 63 263.5 c 128,-1,29
 50 234 50 234 50 200 c 0,30,31
 50 157 50 157 68.5 119 c 128,-1,32
 87 81 87 81 119 53 c 128,-1,33
 151 25 151 25 195.5 8.5 c 128,-1,34
 240 -8 240 -8 294 -8 c 0,35,36
 344 -8 344 -8 389 6.5 c 128,-1,37
 434 21 434 21 468 47.5 c 128,-1,38
 502 74 502 74 522 112 c 128,-1,39
 542 150 542 150 542 197 c 0,0,1
476 202 m 0,40,41
 476 168 476 168 460 140 c 128,-1,42
 444 112 444 112 419 92 c 128,-1,43
 394 72 394 72 362 61.5 c 128,-1,44
 330 51 330 51 297 51 c 0,45,46
 266 51 266 51 234 61 c 128,-1,47
 202 71 202 71 176 90 c 128,-1,48
 150 109 150 109 133.5 137 c 128,-1,49
 117 165 117 165 117 200 c 256,50,51
 117 235 117 235 132.5 263 c 128,-1,52
 148 291 148 291 173 311 c 128,-1,53
 198 331 198 331 230 341.5 c 128,-1,54
 262 352 262 352 295 352 c 0,55,56
 327 352 327 352 359 342 c 128,-1,57
 391 332 391 332 417 313 c 128,-1,58
 443 294 443 294 459.5 265.5 c 128,-1,59
 476 237 476 237 476 202 c 0,40,41
141 527 m 0,60,61
 141 556 141 556 154 579 c 128,-1,62
 167 602 167 602 188 618 c 128,-1,63
 209 634 209 634 237 642.5 c 128,-1,64
 265 651 265 651 295 651 c 256,65,66
 325 651 325 651 353.5 642.5 c 128,-1,67
 382 634 382 634 403.5 618.5 c 128,-1,68
 425 603 425 603 438 580.5 c 128,-1,69
 451 558 451 558 451 529 c 0,70,71
 451 499 451 499 437 476 c 128,-1,72
 423 453 423 453 400.5 437 c 128,-1,73
 378 421 378 421 350.5 412.5 c 128,-1,74
 323 404 323 404 296 404 c 256,75,76
 269 404 269 404 242 412 c 128,-1,77
 215 420 215 420 192 435.5 c 128,-1,78
 169 451 169 451 155 474 c 128,-1,79
 141 497 141 497 141 527 c 0,60,61
EndSplineSet
Substitution2: "'tnum' Tabular Numbers lookup 41 subtable" eight.tnum
Substitution2: "'frac' Diagonal Fractions lookup 22 subtable" eight.numr
Substitution2: "'dnom' Denominators lookup 20 subtable" eight.dnom
Substitution2: "'numr' Numerators lookup 19 subtable" eight.numr
Substitution2: "'sups' Superscript lookup 18 subtable" uni2078
Substitution2: "'sinf' Scientific Inferiors lookup 17 subtable" eight.subs
Substitution2: "'subs' Subscript lookup 16 subtable" uni2088
AlternateSubs2: "'aalt' Access All Alternates lookup 1 subtable" uni2088 eight.subs uni2078 eight.numr eight.dnom
EndChar

StartChar: nine
Encoding: 57 57 28
Width: 602
GlyphClass: 1
Flags: W
LayerCount: 2
Fore
SplineSet
44 471 m 0,0,1
 44 522 44 522 63 566.5 c 128,-1,2
 82 611 82 611 116.5 644 c 128,-1,3
 151 677 151 677 196.5 696 c 128,-1,4
 242 715 242 715 295 715 c 0,5,6
 351 715 351 715 397.5 694.5 c 128,-1,7
 444 674 444 674 478 636 c 128,-1,8
 512 598 512 598 531 543.5 c 128,-1,9
 550 489 550 489 550 420 c 0,10,11
 550 311 550 311 531 230.5 c 128,-1,12
 512 150 512 150 477.5 96.5 c 128,-1,13
 443 43 443 43 395 16.5 c 128,-1,14
 347 -10 347 -10 288 -10 c 0,15,16
 218 -10 218 -10 162 25.5 c 128,-1,17
 106 61 106 61 77 124 c 1,18,-1
 119 161 l 1,19,20
 140 110 140 110 186 79.5 c 128,-1,21
 232 49 232 49 289 49 c 0,22,23
 333 49 333 49 369.5 70 c 128,-1,24
 406 91 406 91 432 131 c 128,-1,25
 458 171 458 171 472.5 229.5 c 128,-1,26
 487 288 487 288 487 362 c 1,27,28
 476 333 476 333 456.5 308.5 c 128,-1,29
 437 284 437 284 410.5 266.5 c 128,-1,30
 384 249 384 249 353 240 c 128,-1,31
 322 231 322 231 288 231 c 0,32,33
 237 231 237 231 192.5 249.5 c 128,-1,34
 148 268 148 268 115 300.5 c 128,-1,35
 82 333 82 333 63 377 c 128,-1,36
 44 421 44 421 44 471 c 0,0,1
294 658 m 256,37,38
 256 658 256 658 221.5 643.5 c 128,-1,39
 187 629 187 629 162 603.5 c 128,-1,40
 137 578 137 578 122 544 c 128,-1,41
 107 510 107 510 107 472 c 256,42,43
 107 434 107 434 122 400 c 128,-1,44
 137 366 137 366 162.5 340.5 c 128,-1,45
 188 315 188 315 222.5 300 c 128,-1,46
 257 285 257 285 295 285 c 256,47,48
 333 285 333 285 367 300 c 128,-1,49
 401 315 401 315 426.5 340.5 c 128,-1,50
 452 366 452 366 467 399.5 c 128,-1,51
 482 433 482 433 482 471 c 256,52,53
 482 509 482 509 467 543 c 128,-1,54
 452 577 452 577 426 603 c 128,-1,55
 400 629 400 629 366 643.5 c 128,-1,56
 332 658 332 658 294 658 c 256,37,38
EndSplineSet
Substitution2: "'tnum' Tabular Numbers lookup 41 subtable" nine.tnum
Substitution2: "'frac' Diagonal Fractions lookup 22 subtable" nine.numr
Substitution2: "'dnom' Denominators lookup 20 subtable" nine.dnom
Substitution2: "'numr' Numerators lookup 19 subtable" nine.numr
Substitution2: "'sups' Superscript lookup 18 subtable" uni2079
Substitution2: "'sinf' Scientific Inferiors lookup 17 subtable" nine.subs
Substitution2: "'subs' Subscript lookup 16 subtable" uni2089
AlternateSubs2: "'aalt' Access All Alternates lookup 1 subtable" uni2089 nine.subs uni2079 nine.numr nine.dnom
EndChar

StartChar: less
Encoding: 60 60 31
Width: 507
GlyphClass: 1
Flags: W
LayerCount: 2
Fore
SplineSet
33 239 m 1,0,-1
 452 -11 l 1,1,-1
 452 62 l 1,2,-1
 128 259 l 1,3,-1
 452 458 l 1,4,-1
 452 528 l 1,5,-1
 33 276 l 1,6,-1
 33 239 l 1,0,-1
EndSplineSet
EndChar

StartChar: equal
Encoding: 61 61 32
Width: 438
GlyphClass: 1
Flags: W
LayerCount: 2
Fore
SplineSet
369 196 m 1,0,-1
 369 243 l 1,1,-1
 68 243 l 1,2,-1
 68 196 l 1,3,-1
 369 196 l 1,0,-1
369 309 m 1,4,-1
 369 356 l 1,5,-1
 68 356 l 1,6,-1
 68 309 l 1,7,-1
 369 309 l 1,4,-1
EndSplineSet
EndChar

StartChar: greater
Encoding: 62 62 33
Width: 507
GlyphClass: 1
Flags: W
LayerCount: 2
Fore
SplineSet
474 276 m 1,0,-1
 55 528 l 1,1,-1
 55 458 l 1,2,-1
 379 259 l 1,3,-1
 55 62 l 1,4,-1
 55 -11 l 1,5,-1
 474 239 l 1,6,-1
 474 276 l 1,0,-1
EndSplineSet
EndChar

StartChar: question
Encoding: 63 63 34
Width: 475
GlyphClass: 1
Flags: W
LayerCount: 2
Fore
SplineSet
211 200 m 1,0,1
 211 237 211 237 218.5 261 c 128,-1,2
 226 285 226 285 238.5 301.5 c 128,-1,3
 251 318 251 318 267.5 329 c 128,-1,4
 284 340 284 340 301 350 c 0,5,6
 327 364 327 364 351.5 378.5 c 128,-1,7
 376 393 376 393 395 413 c 128,-1,8
 414 433 414 433 426 460.5 c 128,-1,9
 438 488 438 488 438 529 c 0,10,11
 438 577 438 577 421.5 612.5 c 128,-1,12
 405 648 405 648 377.5 672 c 128,-1,13
 350 696 350 696 315 707.5 c 128,-1,14
 280 719 280 719 243 719 c 0,15,16
 211 719 211 719 179.5 710.5 c 128,-1,17
 148 702 148 702 120 685.5 c 128,-1,18
 92 669 92 669 70 645 c 128,-1,19
 48 621 48 621 34 590 c 1,20,-1
 80 561 l 1,21,22
 91 583 91 583 107.5 602 c 128,-1,23
 124 621 124 621 145 634.5 c 128,-1,24
 166 648 166 648 190.5 656 c 128,-1,25
 215 664 215 664 242 664 c 256,26,27
 269 664 269 664 293.5 655.5 c 128,-1,28
 318 647 318 647 337 631 c 128,-1,29
 356 615 356 615 367.5 590 c 128,-1,30
 379 565 379 565 379 532 c 0,31,32
 379 495 379 495 365 470 c 128,-1,33
 351 445 351 445 329.5 427 c 128,-1,34
 308 409 308 409 284 396.5 c 128,-1,35
 260 384 260 384 240 372 c 0,36,37
 219 359 219 359 203 343.5 c 128,-1,38
 187 328 187 328 176.5 307.5 c 128,-1,39
 166 287 166 287 160.5 260.5 c 128,-1,40
 155 234 155 234 155 200 c 1,41,-1
 211 200 l 1,0,1
135 40 m 256,42,43
 135 20 135 20 149.5 6 c 128,-1,44
 164 -8 164 -8 184 -8 c 256,45,46
 204 -8 204 -8 218.5 6 c 128,-1,47
 233 20 233 20 233 40 c 256,48,49
 233 60 233 60 218.5 74.5 c 128,-1,50
 204 89 204 89 184 89 c 256,51,52
 164 89 164 89 149.5 74.5 c 128,-1,53
 135 60 135 60 135 40 c 256,42,43
EndSplineSet
EndChar

StartChar: at
Encoding: 64 64 35
Width: 837
GlyphClass: 1
Flags: W
LayerCount: 2
Fore
SplineSet
417 603 m 0,0,1
 345 603 345 603 278 576.5 c 128,-1,2
 211 550 211 550 160 501 c 128,-1,3
 109 452 109 452 78 383.5 c 128,-1,4
 47 315 47 315 47 230 c 0,5,6
 47 149 47 149 75.5 80 c 128,-1,7
 104 11 104 11 153.5 -39 c 128,-1,8
 203 -89 203 -89 269 -117.5 c 128,-1,9
 335 -146 335 -146 410 -146 c 0,10,11
 453 -146 453 -146 494.5 -136 c 128,-1,12
 536 -126 536 -126 577 -106 c 1,13,-1
 564 -75 l 1,14,15
 527 -93 527 -93 490 -103 c 128,-1,16
 453 -113 453 -113 411 -113 c 0,17,18
 341 -113 341 -113 280.5 -86 c 128,-1,19
 220 -59 220 -59 176 -12.5 c 128,-1,20
 132 34 132 34 107 96.5 c 128,-1,21
 82 159 82 159 82 230 c 0,22,23
 82 304 82 304 108.5 366.5 c 128,-1,24
 135 429 135 429 180.5 474 c 128,-1,25
 226 519 226 519 286.5 544.5 c 128,-1,26
 347 570 347 570 416 570 c 0,27,28
 486 570 486 570 546 543 c 128,-1,29
 606 516 606 516 650.5 469 c 128,-1,30
 695 422 695 422 720.5 359.5 c 128,-1,31
 746 297 746 297 746 224 c 0,32,33
 746 197 746 197 741.5 161.5 c 128,-1,34
 737 126 737 126 724.5 94.5 c 128,-1,35
 712 63 712 63 692 41.5 c 128,-1,36
 672 20 672 20 640 20 c 0,37,38
 623 20 623 20 613 27.5 c 128,-1,39
 603 35 603 35 597.5 48 c 128,-1,40
 592 61 592 61 590 79.5 c 128,-1,41
 588 98 588 98 588 120 c 2,42,-1
 588 250 l 2,43,44
 588 286 588 286 583.5 322 c 128,-1,45
 579 358 579 358 562.5 387.5 c 128,-1,46
 546 417 546 417 513.5 435.5 c 128,-1,47
 481 454 481 454 426 454 c 0,48,49
 379 454 379 454 338.5 440.5 c 128,-1,50
 298 427 298 427 263 403 c 1,51,-1
 280 365 l 1,52,53
 309 387 309 387 345 399.5 c 128,-1,54
 381 412 381 412 420 412 c 0,55,56
 457 412 457 412 481 400 c 128,-1,57
 505 388 505 388 519 366.5 c 128,-1,58
 533 345 533 345 539 315.5 c 128,-1,59
 545 286 545 286 545 250 c 1,60,61
 528 256 528 256 494.5 264.5 c 128,-1,62
 461 273 461 273 417 273 c 0,63,64
 385 273 385 273 351.5 266.5 c 128,-1,65
 318 260 318 260 291.5 244.5 c 128,-1,66
 265 229 265 229 248.5 203 c 128,-1,67
 232 177 232 177 232 139 c 0,68,69
 232 80 232 80 272 42.5 c 128,-1,70
 312 5 312 5 382 5 c 0,71,72
 435 5 435 5 479 26 c 128,-1,73
 523 47 523 47 551 77 c 1,74,75
 553 58 553 58 557 41.5 c 128,-1,76
 561 25 561 25 569.5 12 c 128,-1,77
 578 -1 578 -1 594 -8.5 c 128,-1,78
 610 -16 610 -16 634 -16 c 0,79,80
 685 -16 685 -16 714 13 c 128,-1,81
 743 42 743 42 757.5 81.5 c 128,-1,82
 772 121 772 121 776 161 c 128,-1,83
 780 201 780 201 780 222 c 0,84,85
 780 306 780 306 751 376.5 c 128,-1,86
 722 447 722 447 672.5 497 c 128,-1,87
 623 547 623 547 557 575 c 128,-1,88
 491 603 491 603 417 603 c 0,0,1
479 69 m 0,89,90
 460 60 460 60 435 53.5 c 128,-1,91
 410 47 410 47 385 47 c 0,92,93
 362 47 362 47 342 53.5 c 128,-1,94
 322 60 322 60 307.5 72.5 c 128,-1,95
 293 85 293 85 285 102.5 c 128,-1,96
 277 120 277 120 277 141 c 0,97,98
 277 168 277 168 288.5 186 c 128,-1,99
 300 204 300 204 319.5 215 c 128,-1,100
 339 226 339 226 364 230.5 c 128,-1,101
 389 235 389 235 415 235 c 0,102,103
 440 235 440 235 460.5 232 c 128,-1,104
 481 229 481 229 497.5 224.5 c 128,-1,105
 514 220 514 220 526 216.5 c 128,-1,106
 538 213 538 213 544 212 c 1,107,-1
 544 172 l 2,108,109
 544 158 544 158 542 144 c 128,-1,110
 540 130 540 130 532.5 116.5 c 128,-1,111
 525 103 525 103 512.5 91 c 128,-1,112
 500 79 500 79 479 69 c 0,89,90
EndSplineSet
EndChar

StartChar: A
Encoding: 65 65 36
Width: 676
GlyphClass: 1
Flags: W
LayerCount: 2
Fore
SplineSet
13 0 m 1,0,-1
 84 0 l 1,1,-1
 176 223 l 1,2,-1
 499 223 l 1,3,-1
 592 0 l 1,4,-1
 663 0 l 1,5,-1
 367 710 l 1,6,-1
 310 710 l 1,7,-1
 13 0 l 1,0,-1
191 277 m 1,8,-1
 338 631 l 1,9,-1
 482 277 l 1,10,-1
 191 277 l 1,8,-1
EndSplineSet
Substitution2: "Single Substitution lookup 45 subtable" ordfeminine
Substitution2: "'aalt' Access All Alternates lookup 0 subtable" ordfeminine
EndChar

StartChar: B
Encoding: 66 66 37
Width: 666
GlyphClass: 1
Flags: W
LayerCount: 2
Fore
SplineSet
622 183 m 0,0,1
 622 215 622 215 613 244 c 128,-1,2
 604 273 604 273 586.5 296.5 c 128,-1,3
 569 320 569 320 544.5 337.5 c 128,-1,4
 520 355 520 355 490 364 c 1,5,6
 538 386 538 386 565 431 c 128,-1,7
 592 476 592 476 592 529 c 0,8,9
 592 562 592 562 581 594.5 c 128,-1,10
 570 627 570 627 549 652.5 c 128,-1,11
 528 678 528 678 498 694 c 128,-1,12
 468 710 468 710 430 710 c 2,13,-1
 90 710 l 1,14,-1
 90 0 l 1,15,-1
 424 0 l 2,16,17
 465 0 465 0 500.5 13.5 c 128,-1,18
 536 27 536 27 563 51.5 c 128,-1,19
 590 76 590 76 606 110 c 128,-1,20
 622 144 622 144 622 183 c 0,0,1
554 194 m 0,21,22
 554 168 554 168 544 143.5 c 128,-1,23
 534 119 534 119 516.5 100 c 128,-1,24
 499 81 499 81 475.5 70 c 128,-1,25
 452 59 452 59 424 59 c 2,26,-1
 156 59 l 1,27,-1
 156 331 l 1,28,-1
 431 331 l 2,29,30
 458 331 458 331 480.5 319.5 c 128,-1,31
 503 308 503 308 519 289 c 128,-1,32
 535 270 535 270 544.5 245.5 c 128,-1,33
 554 221 554 221 554 194 c 0,21,22
409 651 m 2,34,35
 435 651 435 651 456.5 641 c 128,-1,36
 478 631 478 631 493 612.5 c 128,-1,37
 508 594 508 594 517 570 c 128,-1,38
 526 546 526 546 526 518 c 0,39,40
 526 492 526 492 516.5 468.5 c 128,-1,41
 507 445 507 445 491 426.5 c 128,-1,42
 475 408 475 408 452.5 397 c 128,-1,43
 430 386 430 386 403 386 c 2,44,-1
 156 386 l 1,45,-1
 156 651 l 1,46,-1
 409 651 l 2,34,35
EndSplineSet
EndChar

StartChar: C
Encoding: 67 67 38
Width: 687
GlyphClass: 1
Flags: W
LayerCount: 2
Fore
SplineSet
42 360 m 0,0,1
 42 293 42 293 66.5 227 c 128,-1,2
 91 161 91 161 135 109.5 c 128,-1,3
 179 58 179 58 240 26 c 128,-1,4
 301 -6 301 -6 374 -6 c 0,5,6
 415 -6 415 -6 457.5 5 c 128,-1,7
 500 16 500 16 538.5 37 c 128,-1,8
 577 58 577 58 607.5 88.5 c 128,-1,9
 638 119 638 119 656 159 c 1,10,-1
 599 188 l 1,11,12
 582 153 582 153 556.5 128 c 128,-1,13
 531 103 531 103 501.5 86.5 c 128,-1,14
 472 70 472 70 440 62.5 c 128,-1,15
 408 55 408 55 378 55 c 0,16,17
 321 55 321 55 272 79.5 c 128,-1,18
 223 104 223 104 186.5 146 c 128,-1,19
 150 188 150 188 129.5 242.5 c 128,-1,20
 109 297 109 297 109 356 c 0,21,22
 109 410 109 410 127 463 c 128,-1,23
 145 516 145 516 178.5 558.5 c 128,-1,24
 212 601 212 601 261.5 627 c 128,-1,25
 311 653 311 653 375 653 c 0,26,27
 404 653 404 653 434.5 646.5 c 128,-1,28
 465 640 465 640 493.5 625.5 c 128,-1,29
 522 611 522 611 546 586.5 c 128,-1,30
 570 562 570 562 588 526 c 1,31,-1
 641 559 l 1,32,33
 609 628 609 628 541.5 671 c 128,-1,34
 474 714 474 714 379 714 c 0,35,36
 299 714 299 714 236 683 c 128,-1,37
 173 652 173 652 130 601.5 c 128,-1,38
 87 551 87 551 64.5 488 c 128,-1,39
 42 425 42 425 42 360 c 0,0,1
EndSplineSet
EndChar

StartChar: D
Encoding: 68 68 39
Width: 714
GlyphClass: 1
Flags: W
LayerCount: 2
Fore
SplineSet
330 0 m 2,0,1
 407 0 407 0 470 25.5 c 128,-1,2
 533 51 533 51 577.5 97.5 c 128,-1,3
 622 144 622 144 645.5 209.5 c 128,-1,4
 669 275 669 275 669 356 c 0,5,6
 669 430 669 430 648 494.5 c 128,-1,7
 627 559 627 559 584.5 607 c 128,-1,8
 542 655 542 655 478.5 682.5 c 128,-1,9
 415 710 415 710 330 710 c 2,10,-1
 90 710 l 1,11,-1
 90 0 l 1,12,-1
 330 0 l 2,0,1
602 356 m 0,13,14
 602 293 602 293 584.5 238.5 c 128,-1,15
 567 184 567 184 532.5 144.5 c 128,-1,16
 498 105 498 105 447.5 82.5 c 128,-1,17
 397 60 397 60 330 60 c 2,18,-1
 156 60 l 1,19,-1
 156 650 l 1,20,-1
 330 650 l 2,21,22
 395 650 395 650 445.5 628 c 128,-1,23
 496 606 496 606 531 567 c 128,-1,24
 566 528 566 528 584 474 c 128,-1,25
 602 420 602 420 602 356 c 0,13,14
EndSplineSet
EndChar

StartChar: E
Encoding: 69 69 40
Width: 609
GlyphClass: 1
Flags: W
LayerCount: 2
Fore
SplineSet
156 60 m 1,0,-1
 156 334 l 1,1,-1
 506 334 l 1,2,-1
 506 391 l 1,3,-1
 156 391 l 1,4,-1
 156 650 l 1,5,-1
 557 650 l 1,6,-1
 557 710 l 1,7,-1
 90 710 l 1,8,-1
 90 0 l 1,9,-1
 566 0 l 1,10,-1
 566 60 l 1,11,-1
 156 60 l 1,0,-1
EndSplineSet
EndChar

StartChar: F
Encoding: 70 70 41
Width: 589
GlyphClass: 1
Flags: W
LayerCount: 2
Fore
SplineSet
156 0 m 1,0,-1
 156 330 l 1,1,-1
 493 330 l 1,2,-1
 493 387 l 1,3,-1
 156 387 l 1,4,-1
 156 650 l 1,5,-1
 555 650 l 1,6,-1
 555 710 l 1,7,-1
 90 710 l 1,8,-1
 90 0 l 1,9,-1
 156 0 l 1,0,-1
EndSplineSet
EndChar

StartChar: G
Encoding: 71 71 42
Width: 732
GlyphClass: 1
Flags: W
LayerCount: 2
Fore
SplineSet
380 -5 m 0,0,1
 421 -5 421 -5 460.5 3 c 128,-1,2
 500 11 500 11 537 27 c 128,-1,3
 574 43 574 43 607 66 c 128,-1,4
 640 89 640 89 666 118 c 1,5,-1
 666 348 l 1,6,-1
 384 348 l 1,7,-1
 384 288 l 1,8,-1
 599 288 l 1,9,-1
 599 141 l 1,10,11
 580 121 580 121 556.5 105 c 128,-1,12
 533 89 533 89 505.5 78 c 128,-1,13
 478 67 478 67 445.5 61.5 c 128,-1,14
 413 56 413 56 376 56 c 0,15,16
 316 56 316 56 267 81.5 c 128,-1,17
 218 107 218 107 183 149 c 128,-1,18
 148 191 148 191 129 244.5 c 128,-1,19
 110 298 110 298 110 354 c 256,20,21
 110 410 110 410 129 464 c 128,-1,22
 148 518 148 518 182.5 560.5 c 128,-1,23
 217 603 217 603 266 628.5 c 128,-1,24
 315 654 315 654 375 654 c 0,25,26
 414 654 414 654 448 643 c 128,-1,27
 482 632 482 632 510 613 c 128,-1,28
 538 594 538 594 560 569 c 128,-1,29
 582 544 582 544 598 519 c 1,30,-1
 650 561 l 1,31,32
 607 630 607 630 537.5 672.5 c 128,-1,33
 468 715 468 715 379 715 c 0,34,35
 306 715 306 715 244 685 c 128,-1,36
 182 655 182 655 137 605.5 c 128,-1,37
 92 556 92 556 67.5 491.5 c 128,-1,38
 43 427 43 427 43 357 c 0,39,40
 43 288 43 288 67.5 222.5 c 128,-1,41
 92 157 92 157 137 106.5 c 128,-1,42
 182 56 182 56 244 25.5 c 128,-1,43
 306 -5 306 -5 380 -5 c 0,0,1
EndSplineSet
Substitution2: "'ss11' Style Set 11 lookup 39 subtable" G.ss11
Substitution2: "'aalt' Access All Alternates lookup 0 subtable" G.ss11
EndChar

StartChar: H
Encoding: 72 72 43
Width: 738
GlyphClass: 1
Flags: W
LayerCount: 2
Fore
SplineSet
581 710 m 1,0,-1
 581 393 l 1,1,-1
 156 393 l 1,2,-1
 156 710 l 1,3,-1
 90 710 l 1,4,-1
 90 0 l 1,5,-1
 156 0 l 1,6,-1
 156 333 l 1,7,-1
 581 333 l 1,8,-1
 581 0 l 1,9,-1
 648 0 l 1,10,-1
 648 710 l 1,11,-1
 581 710 l 1,0,-1
EndSplineSet
EndChar

StartChar: I
Encoding: 73 73 44
Width: 246
GlyphClass: 1
Flags: W
LayerCount: 2
Fore
SplineSet
156 0 m 1,0,-1
 156 710 l 1,1,-1
 90 710 l 1,2,-1
 90 0 l 1,3,-1
 156 0 l 1,0,-1
EndSplineSet
EndChar

StartChar: J
Encoding: 74 74 45
Width: 528
GlyphClass: 2
Flags: W
LayerCount: 2
Fore
SplineSet
209 -8 m 0,0,1
 179 -8 179 -8 148.5 1 c 128,-1,2
 118 10 118 10 91 26.5 c 128,-1,3
 64 43 64 43 43.5 67 c 128,-1,4
 23 91 23 91 12 120 c 1,5,-1
 72 148 l 1,6,7
 80 128 80 128 94.5 110 c 128,-1,8
 109 92 109 92 126.5 79 c 128,-1,9
 144 66 144 66 165 59 c 128,-1,10
 186 52 186 52 209 52 c 0,11,12
 250 52 250 52 280 67 c 128,-1,13
 310 82 310 82 330 107 c 128,-1,14
 350 132 350 132 359.5 166 c 128,-1,15
 369 200 369 200 369 237 c 2,16,-1
 369 710 l 1,17,-1
 438 710 l 1,18,-1
 438 212 l 2,19,20
 438 161 438 161 421 120.5 c 128,-1,21
 404 80 404 80 373.5 51.5 c 128,-1,22
 343 23 343 23 301 7.5 c 128,-1,23
 259 -8 259 -8 209 -8 c 0,0,1
EndSplineSet
EndChar

StartChar: K
Encoding: 75 75 46
Width: 642
GlyphClass: 1
Flags: W
LayerCount: 2
Fore
SplineSet
156 0 m 1,0,-1
 156 218 l 1,1,-1
 291 357 l 1,2,-1
 565 0 l 1,3,-1
 641 0 l 1,4,-1
 334 398 l 1,5,-1
 625 710 l 1,6,-1
 551 710 l 1,7,-1
 156 294 l 1,8,-1
 156 709 l 1,9,-1
 90 709 l 1,10,-1
 90 0 l 1,11,-1
 156 0 l 1,0,-1
EndSplineSet
EndChar

StartChar: L
Encoding: 76 76 47
Width: 582
GlyphClass: 1
Flags: W
LayerCount: 2
Fore
SplineSet
569 0 m 1,0,-1
 569 60 l 1,1,-1
 156 60 l 1,2,-1
 156 710 l 1,3,-1
 90 710 l 1,4,-1
 90 0 l 1,5,-1
 569 0 l 1,0,-1
EndSplineSet
EndChar

StartChar: M
Encoding: 77 77 48
Width: 877
GlyphClass: 1
Flags: W
LayerCount: 2
Fore
SplineSet
788 0 m 1,0,-1
 788 710 l 1,1,-1
 720 710 l 1,2,-1
 439 221 l 1,3,-1
 158 710 l 1,4,-1
 90 710 l 1,5,-1
 90 0 l 1,6,-1
 156 0 l 1,7,-1
 156 583 l 1,8,-1
 418 130 l 1,9,-1
 460 130 l 1,10,-1
 721 583 l 1,11,-1
 721 0 l 1,12,-1
 788 0 l 1,0,-1
EndSplineSet
EndChar

StartChar: N
Encoding: 78 78 49
Width: 772
GlyphClass: 1
Flags: W
LayerCount: 2
Fore
SplineSet
620 0 m 1,0,-1
 682 0 l 1,1,-1
 682 709 l 1,2,-1
 616 709 l 1,3,-1
 616 113 l 1,4,-1
 145 710 l 1,5,-1
 90 710 l 1,6,-1
 90 0 l 1,7,-1
 156 0 l 1,8,-1
 156 586 l 1,9,-1
 620 0 l 1,0,-1
EndSplineSet
EndChar

StartChar: O
Encoding: 79 79 50
Width: 751
GlyphClass: 1
Flags: W
LayerCount: 2
Fore
SplineSet
375 -5 m 0,0,1
 446 -5 446 -5 507 24.5 c 128,-1,2
 568 54 568 54 612.5 103.5 c 128,-1,3
 657 153 657 153 682.5 218 c 128,-1,4
 708 283 708 283 708 354 c 0,5,6
 708 421 708 421 684 485.5 c 128,-1,7
 660 550 660 550 616.5 601 c 128,-1,8
 573 652 573 652 512 683.5 c 128,-1,9
 451 715 451 715 376 715 c 0,10,11
 305 715 305 715 244 685.5 c 128,-1,12
 183 656 183 656 138 606 c 128,-1,13
 93 556 93 556 67.5 491 c 128,-1,14
 42 426 42 426 42 355 c 0,15,16
 42 287 42 287 66 222 c 128,-1,17
 90 157 90 157 134 106.5 c 128,-1,18
 178 56 178 56 239.5 25.5 c 128,-1,19
 301 -5 301 -5 375 -5 c 0,0,1
109 355 m 0,20,21
 109 411 109 411 128 464.5 c 128,-1,22
 147 518 147 518 181.5 560 c 128,-1,23
 216 602 216 602 265.5 628 c 128,-1,24
 315 654 315 654 376 654 c 0,25,26
 434 654 434 654 482.5 629 c 128,-1,27
 531 604 531 604 566.5 562.5 c 128,-1,28
 602 521 602 521 621.5 467 c 128,-1,29
 641 413 641 413 641 355 c 0,30,31
 641 300 641 300 622.5 246.5 c 128,-1,32
 604 193 604 193 569.5 150.5 c 128,-1,33
 535 108 535 108 486 82 c 128,-1,34
 437 56 437 56 376 56 c 0,35,36
 317 56 317 56 267.5 80.5 c 128,-1,37
 218 105 218 105 183 147 c 128,-1,38
 148 189 148 189 128.5 243 c 128,-1,39
 109 297 109 297 109 355 c 0,20,21
EndSplineSet
Substitution2: "Single Substitution lookup 45 subtable" ordmasculine
Substitution2: "'aalt' Access All Alternates lookup 0 subtable" ordmasculine
EndChar

StartChar: P
Encoding: 80 80 51
Width: 622
GlyphClass: 1
Flags: W
LayerCount: 2
Fore
SplineSet
156 0 m 1,0,-1
 156 263 l 1,1,-1
 390 263 l 2,2,3
 435 263 435 263 472.5 281.5 c 128,-1,4
 510 300 510 300 537 331.5 c 128,-1,5
 564 363 564 363 578.5 403.5 c 128,-1,6
 593 444 593 444 593 487 c 0,7,8
 593 528 593 528 577.5 568 c 128,-1,9
 562 608 562 608 534 640 c 128,-1,10
 506 672 506 672 467.5 691 c 128,-1,11
 429 710 429 710 383 710 c 2,12,-1
 90 710 l 1,13,-1
 90 0 l 1,14,-1
 156 0 l 1,0,-1
156 650 m 1,15,-1
 380 650 l 2,16,17
 410 650 410 650 436.5 637 c 128,-1,18
 463 624 463 624 483 602 c 128,-1,19
 503 580 503 580 514.5 550.5 c 128,-1,20
 526 521 526 521 526 487 c 0,21,22
 526 455 526 455 516 425.5 c 128,-1,23
 506 396 506 396 488 373 c 128,-1,24
 470 350 470 350 444.5 336.5 c 128,-1,25
 419 323 419 323 386 323 c 2,26,-1
 156 323 l 1,27,-1
 156 650 l 1,15,-1
EndSplineSet
EndChar

StartChar: Q
Encoding: 81 81 52
Width: 750
GlyphClass: 1
Flags: W
LayerCount: 2
Fore
SplineSet
375 -5 m 0,0,1
 446 -5 446 -5 507 24.5 c 128,-1,2
 568 54 568 54 612.5 103.5 c 128,-1,3
 657 153 657 153 682.5 218 c 128,-1,4
 708 283 708 283 708 354 c 0,5,6
 708 421 708 421 684 485.5 c 128,-1,7
 660 550 660 550 616.5 601 c 128,-1,8
 573 652 573 652 512 683.5 c 128,-1,9
 451 715 451 715 376 715 c 0,10,11
 305 715 305 715 244 685.5 c 128,-1,12
 183 656 183 656 138 606 c 128,-1,13
 93 556 93 556 67.5 491 c 128,-1,14
 42 426 42 426 42 355 c 0,15,16
 42 287 42 287 66 222 c 128,-1,17
 90 157 90 157 134 107 c 128,-1,18
 178 57 178 57 239.5 26 c 128,-1,19
 301 -5 301 -5 375 -5 c 0,0,1
376 56 m 0,20,21
 317 56 317 56 267.5 80.5 c 128,-1,22
 218 105 218 105 183 147 c 128,-1,23
 148 189 148 189 128.5 243 c 128,-1,24
 109 297 109 297 109 355 c 0,25,26
 109 411 109 411 128 464.5 c 128,-1,27
 147 518 147 518 181.5 560.5 c 128,-1,28
 216 603 216 603 265.5 628.5 c 128,-1,29
 315 654 315 654 376 654 c 0,30,31
 434 654 434 654 482.5 629.5 c 128,-1,32
 531 605 531 605 566.5 563 c 128,-1,33
 602 521 602 521 621.5 467 c 128,-1,34
 641 413 641 413 641 355 c 0,35,36
 641 300 641 300 622.5 246.5 c 128,-1,37
 604 193 604 193 569.5 150.5 c 128,-1,38
 535 108 535 108 486 82 c 128,-1,39
 437 56 437 56 376 56 c 0,20,21
679 -13 m 1,40,-1
 722 30 l 1,41,-1
 444 304 l 1,42,-1
 401 261 l 1,43,-1
 679 -13 l 1,40,-1
EndSplineSet
EndChar

StartChar: R
Encoding: 82 82 53
Width: 652
GlyphClass: 1
Flags: W
LayerCount: 2
Fore
SplineSet
156 0 m 1,0,-1
 156 263 l 1,1,-1
 370 263 l 1,2,-1
 538 0 l 1,3,-1
 614 0 l 1,4,-1
 439 274 l 1,5,6
 475 281 475 281 504.5 300.5 c 128,-1,7
 534 320 534 320 555 348.5 c 128,-1,8
 576 377 576 377 587.5 413 c 128,-1,9
 599 449 599 449 599 487 c 0,10,11
 599 528 599 528 583 568 c 128,-1,12
 567 608 567 608 539.5 640 c 128,-1,13
 512 672 512 672 473.5 691 c 128,-1,14
 435 710 435 710 389 710 c 2,15,-1
 90 710 l 1,16,-1
 90 0 l 1,17,-1
 156 0 l 1,0,-1
156 650 m 1,18,-1
 385 650 l 2,19,20
 415 650 415 650 441.5 637 c 128,-1,21
 468 624 468 624 488 601 c 128,-1,22
 508 578 508 578 519.5 549 c 128,-1,23
 531 520 531 520 531 487 c 0,24,25
 531 455 531 455 521 425.5 c 128,-1,26
 511 396 511 396 493 373 c 128,-1,27
 475 350 475 350 449.5 336.5 c 128,-1,28
 424 323 424 323 392 323 c 2,29,-1
 156 323 l 1,30,-1
 156 650 l 1,18,-1
EndSplineSet
EndChar

StartChar: S
Encoding: 83 83 54
Width: 607
GlyphClass: 1
Flags: W
LayerCount: 2
Fore
SplineSet
537 633 m 1,0,1
 515 652 515 652 490 667.5 c 128,-1,2
 465 683 465 683 436.5 693.5 c 128,-1,3
 408 704 408 704 377 709.5 c 128,-1,4
 346 715 346 715 311 715 c 0,5,6
 255 715 255 715 208.5 702 c 128,-1,7
 162 689 162 689 128.5 662.5 c 128,-1,8
 95 636 95 636 76.5 598.5 c 128,-1,9
 58 561 58 561 58 511 c 0,10,11
 58 469 58 469 73 439 c 128,-1,12
 88 409 88 409 116.5 388.5 c 128,-1,13
 145 368 145 368 187.5 354 c 128,-1,14
 230 340 230 340 286 327 c 0,15,16
 340 315 340 315 380 303 c 128,-1,17
 420 291 420 291 447 274 c 128,-1,18
 474 257 474 257 488 234.5 c 128,-1,19
 502 212 502 212 502 178 c 0,20,21
 502 116 502 116 453.5 84.5 c 128,-1,22
 405 53 405 53 319 53 c 0,23,24
 279 53 279 53 241.5 61 c 128,-1,25
 204 69 204 69 171.5 82 c 128,-1,26
 139 95 139 95 112.5 113 c 128,-1,27
 86 131 86 131 66 152 c 1,28,-1
 32 97 l 1,29,30
 62 72 62 72 94.5 52 c 128,-1,31
 127 32 127 32 162.5 19.5 c 128,-1,32
 198 7 198 7 236.5 0.5 c 128,-1,33
 275 -6 275 -6 317 -6 c 0,34,35
 373 -6 373 -6 420 5.5 c 128,-1,36
 467 17 467 17 500.5 41 c 128,-1,37
 534 65 534 65 553 101 c 128,-1,38
 572 137 572 137 572 185 c 256,39,40
 572 233 572 233 555 265.5 c 128,-1,41
 538 298 538 298 506 320 c 128,-1,42
 474 342 474 342 428.5 357 c 128,-1,43
 383 372 383 372 326 384 c 0,44,45
 275 396 275 396 237.5 406.5 c 128,-1,46
 200 417 200 417 175 432 c 128,-1,47
 150 447 150 447 138.5 468.5 c 128,-1,48
 127 490 127 490 127 521 c 0,49,50
 127 583 127 583 171 619 c 128,-1,51
 215 655 215 655 310 655 c 0,52,53
 342 655 342 655 370.5 649.5 c 128,-1,54
 399 644 399 644 423.5 634 c 128,-1,55
 448 624 448 624 468.5 610 c 128,-1,56
 489 596 489 596 504 579 c 1,57,-1
 537 633 l 1,0,1
EndSplineSet
EndChar

StartChar: T
Encoding: 84 84 55
Width: 609
GlyphClass: 1
Flags: W
LayerCount: 2
Fore
SplineSet
592 710 m 1,0,-1
 17 710 l 1,1,-1
 17 650 l 1,2,-1
 271 650 l 1,3,-1
 271 0 l 1,4,-1
 338 0 l 1,5,-1
 338 650 l 1,6,-1
 592 650 l 1,7,-1
 592 710 l 1,0,-1
EndSplineSet
EndChar

StartChar: U
Encoding: 85 85 56
Width: 755
GlyphClass: 1
Flags: W
LayerCount: 2
Fore
SplineSet
378 -5 m 0,0,1
 460 -5 460 -5 517 24 c 128,-1,2
 574 53 574 53 609.5 102 c 128,-1,3
 645 151 645 151 660.5 216 c 128,-1,4
 676 281 676 281 676 352 c 2,5,-1
 676 710 l 1,6,-1
 610 710 l 1,7,-1
 610 352 l 2,8,9
 610 298 610 298 599 244.5 c 128,-1,10
 588 191 588 191 561.5 149.5 c 128,-1,11
 535 108 535 108 490 82 c 128,-1,12
 445 56 445 56 377 56 c 0,13,14
 310 56 310 56 266 81 c 128,-1,15
 222 106 222 106 195 147.5 c 128,-1,16
 168 189 168 189 157 242.5 c 128,-1,17
 146 296 146 296 146 352 c 2,18,-1
 146 710 l 1,19,-1
 79 710 l 1,20,-1
 79 352 l 2,21,22
 79 285 79 285 94 220.5 c 128,-1,23
 109 156 109 156 144 106 c 128,-1,24
 179 56 179 56 236.5 25.5 c 128,-1,25
 294 -5 294 -5 378 -5 c 0,0,1
EndSplineSet
EndChar

StartChar: V
Encoding: 86 86 57
Width: 679
GlyphClass: 1
Flags: W
LayerCount: 2
Fore
SplineSet
13 710 m 1,0,-1
 309 0 l 1,1,-1
 371 0 l 1,2,-1
 666 710 l 1,3,-1
 595 710 l 1,4,-1
 340 84 l 1,5,-1
 83 710 l 1,6,-1
 13 710 l 1,0,-1
EndSplineSet
EndChar

StartChar: W
Encoding: 87 87 58
Width: 1060
GlyphClass: 1
Flags: W
LayerCount: 2
Fore
SplineSet
248 0 m 1,0,-1
 318 0 l 1,1,-1
 527 601 l 1,2,-1
 742 0 l 1,3,-1
 812 0 l 1,4,-1
 1039 710 l 1,5,-1
 963 710 l 1,6,-1
 772 97 l 1,7,-1
 562 710 l 1,8,-1
 490 710 l 1,9,-1
 288 97 l 1,10,-1
 96 710 l 1,11,-1
 22 710 l 1,12,-1
 248 0 l 1,0,-1
EndSplineSet
Substitution2: "'ss09' Style Set 9 lookup 37 subtable" W.ss09
Substitution2: "'aalt' Access All Alternates lookup 0 subtable" W.ss09
EndChar

StartChar: X
Encoding: 88 88 59
Width: 632
GlyphClass: 1
Flags: W
LayerCount: 2
Fore
SplineSet
6 710 m 1,0,-1
 278 350 l 1,1,-1
 14 0 l 1,2,-1
 90 0 l 1,3,-1
 316 301 l 1,4,-1
 542 0 l 1,5,-1
 618 0 l 1,6,-1
 354 350 l 1,7,-1
 626 710 l 1,8,-1
 550 710 l 1,9,-1
 316 399 l 1,10,-1
 82 710 l 1,11,-1
 6 710 l 1,0,-1
EndSplineSet
EndChar

StartChar: Y
Encoding: 89 89 60
Width: 650
GlyphClass: 1
Flags: W
LayerCount: 2
Fore
SplineSet
16 710 m 1,0,-1
 291 266 l 1,1,-1
 291 0 l 1,2,-1
 358 0 l 1,3,-1
 358 264 l 1,4,-1
 634 710 l 1,5,-1
 561 710 l 1,6,-1
 325 326 l 1,7,-1
 90 710 l 1,8,-1
 16 710 l 1,0,-1
EndSplineSet
EndChar

StartChar: Z
Encoding: 90 90 61
Width: 629
GlyphClass: 1
Flags: W
LayerCount: 2
Fore
SplineSet
31 0 m 1,0,-1
 594 0 l 1,1,-1
 594 60 l 1,2,-1
 114 60 l 1,3,-1
 595 657 l 1,4,-1
 595 710 l 1,5,-1
 38 710 l 1,6,-1
 38 650 l 1,7,-1
 517 650 l 1,8,-1
 31 53 l 1,9,-1
 31 0 l 1,0,-1
EndSplineSet
EndChar

StartChar: bracketleft
Encoding: 91 91 62
Width: 256
GlyphClass: 1
Flags: W
LayerCount: 2
Fore
SplineSet
205 -40 m 1,0,-1
 205 15 l 1,1,-1
 150 15 l 1,2,-1
 150 685 l 1,3,-1
 205 685 l 1,4,-1
 205 740 l 1,5,-1
 88 740 l 1,6,-1
 88 -40 l 1,7,-1
 205 -40 l 1,0,-1
EndSplineSet
EndChar

StartChar: backslash
Encoding: 92 92 63
Width: 565
GlyphClass: 1
Flags: W
LayerCount: 2
Fore
SplineSet
28 710 m 1,0,-1
 464 0 l 1,1,-1
 537 0 l 1,2,-1
 102 710 l 1,3,-1
 28 710 l 1,0,-1
EndSplineSet
EndChar

StartChar: bracketright
Encoding: 93 93 64
Width: 256
GlyphClass: 1
Flags: W
LayerCount: 2
Fore
SplineSet
168 -40 m 1,0,-1
 168 740 l 1,1,-1
 51 740 l 1,2,-1
 51 685 l 1,3,-1
 106 685 l 1,4,-1
 106 15 l 1,5,-1
 51 15 l 1,6,-1
 51 -40 l 1,7,-1
 168 -40 l 1,0,-1
EndSplineSet
EndChar

StartChar: asciicircum
Encoding: 94 94 65
Width: 537
GlyphClass: 1
Flags: W
LayerCount: 2
Fore
SplineSet
99 303 m 1,0,-1
 269 648 l 1,1,-1
 436 303 l 1,2,-1
 494 303 l 1,3,-1
 297 710 l 1,4,-1
 241 710 l 1,5,-1
 43 303 l 1,6,-1
 99 303 l 1,0,-1
EndSplineSet
EndChar

StartChar: underscore
Encoding: 95 95 66
Width: 512
GlyphClass: 1
Flags: W
LayerCount: 2
Fore
SplineSet
447 -60 m 1,0,-1
 447 0 l 1,1,-1
 65 0 l 1,2,-1
 65 -60 l 1,3,-1
 447 -60 l 1,0,-1
EndSplineSet
EndChar

StartChar: a
Encoding: 97 97 68
Width: 541
GlyphClass: 1
Flags: W
LayerCount: 2
Fore
SplineSet
472 0 m 1,0,-1
 472 323 l 2,1,2
 472 368 472 368 458.5 406.5 c 128,-1,3
 445 445 445 445 418.5 472 c 128,-1,4
 392 499 392 499 353 514.5 c 128,-1,5
 314 530 314 530 263 530 c 0,6,7
 209 530 209 530 160.5 510.5 c 128,-1,8
 112 491 112 491 68 462 c 1,9,-1
 91 418 l 1,10,11
 135 449 135 449 176.5 464.5 c 128,-1,12
 218 480 218 480 258 480 c 0,13,14
 293 480 293 480 320.5 469.5 c 128,-1,15
 348 459 348 459 367 439 c 128,-1,16
 386 419 386 419 396.5 391 c 128,-1,17
 407 363 407 363 407 329 c 2,18,-1
 407 281 l 1,19,20
 387 290 387 290 347 299 c 128,-1,21
 307 308 307 308 251 308 c 0,22,23
 213 308 213 308 174.5 299.5 c 128,-1,24
 136 291 136 291 104.5 272 c 128,-1,25
 73 253 73 253 53 223 c 128,-1,26
 33 193 33 193 33 152 c 0,27,28
 33 118 33 118 46.5 88.5 c 128,-1,29
 60 59 60 59 83 37 c 128,-1,30
 106 15 106 15 138 2.5 c 128,-1,31
 170 -10 170 -10 206 -10 c 0,32,33
 264 -10 264 -10 318.5 12 c 128,-1,34
 373 34 373 34 409 82 c 1,35,-1
 409 0 l 1,36,-1
 472 0 l 1,0,-1
389 114 m 0,37,38
 376 95 376 95 357 81 c 128,-1,39
 338 67 338 67 315.5 58.5 c 128,-1,40
 293 50 293 50 268.5 45.5 c 128,-1,41
 244 41 244 41 221 41 c 0,42,43
 196 41 196 41 173.5 49 c 128,-1,44
 151 57 151 57 133.5 72 c 128,-1,45
 116 87 116 87 106 109 c 128,-1,46
 96 131 96 131 96 156 c 0,47,48
 96 186 96 186 111 207 c 128,-1,49
 126 228 126 228 150 241.5 c 128,-1,50
 174 255 174 255 203 260.5 c 128,-1,51
 232 266 232 266 260 266 c 0,52,53
 296 266 296 266 333.5 260 c 128,-1,54
 371 254 371 254 407 239 c 1,55,-1
 407 154 l 2,56,57
 407 145 407 145 402.5 134.5 c 128,-1,58
 398 124 398 124 389 114 c 0,37,38
EndSplineSet
Substitution2: "Single Substitution lookup 45 subtable" ordfeminine
Substitution2: "'ss02' Style Set 2 lookup 30 subtable" a.ss02
Substitution2: "'ss01' Style Set 1 lookup 29 subtable" a.ss01
Substitution2: "'salt' Stylistic Alternatives lookup 28 subtable" a.ss01
AlternateSubs2: "'aalt' Access All Alternates lookup 1 subtable" ordfeminine a.ss01 a.ss02
EndChar

StartChar: b
Encoding: 98 98 69
Width: 616
GlyphClass: 1
Flags: W
LayerCount: 2
Fore
SplineSet
328 -10 m 0,0,1
 381 -10 381 -10 426.5 11.5 c 128,-1,2
 472 33 472 33 505 70 c 128,-1,3
 538 107 538 107 557 155.5 c 128,-1,4
 576 204 576 204 576 259 c 0,5,6
 576 310 576 310 559.5 358.5 c 128,-1,7
 543 407 543 407 512.5 445 c 128,-1,8
 482 483 482 483 438.5 506.5 c 128,-1,9
 395 530 395 530 340 530 c 0,10,11
 274 530 274 530 225 497 c 128,-1,12
 176 464 176 464 141 411 c 1,13,-1
 141 730 l 1,14,-1
 75 730 l 1,15,-1
 75 0 l 1,16,-1
 134 0 l 1,17,-1
 134 101 l 1,18,19
 148 77 148 77 169 56.5 c 128,-1,20
 190 36 190 36 215 21.5 c 128,-1,21
 240 7 240 7 269 -1.5 c 128,-1,22
 298 -10 298 -10 328 -10 c 0,0,1
314 47 m 0,23,24
 288 47 288 47 259 57.5 c 128,-1,25
 230 68 230 68 205 85.5 c 128,-1,26
 180 103 180 103 162.5 126.5 c 128,-1,27
 145 150 145 150 141 177 c 1,28,-1
 141 341 l 1,29,30
 154 367 154 367 172 391 c 128,-1,31
 190 415 190 415 213 433 c 128,-1,32
 236 451 236 451 263.5 461.5 c 128,-1,33
 291 472 291 472 322 472 c 0,34,35
 364 472 364 472 398.5 454 c 128,-1,36
 433 436 433 436 457.5 406.5 c 128,-1,37
 482 377 482 377 496 338.5 c 128,-1,38
 510 300 510 300 510 259 c 0,39,40
 510 219 510 219 495.5 180.5 c 128,-1,41
 481 142 481 142 455 112.5 c 128,-1,42
 429 83 429 83 392.5 65 c 128,-1,43
 356 47 356 47 314 47 c 0,23,24
EndSplineSet
EndChar

StartChar: c
Encoding: 99 99 70
Width: 549
GlyphClass: 1
Flags: W
LayerCount: 2
Fore
SplineSet
300 -10 m 0,0,1
 338 -10 338 -10 372.5 0 c 128,-1,2
 407 10 407 10 435 26.5 c 128,-1,3
 463 43 463 43 484 67 c 128,-1,4
 505 91 505 91 516 118 c 1,5,-1
 452 138 l 1,6,7
 446 120 446 120 430.5 103.5 c 128,-1,8
 415 87 415 87 394.5 74.5 c 128,-1,9
 374 62 374 62 348.5 54.5 c 128,-1,10
 323 47 323 47 298 47 c 0,11,12
 259 47 259 47 224 64 c 128,-1,13
 189 81 189 81 163 110 c 128,-1,14
 137 139 137 139 121.5 178.5 c 128,-1,15
 106 218 106 218 106 262 c 0,16,17
 106 307 106 307 121 345.5 c 128,-1,18
 136 384 136 384 161.5 412 c 128,-1,19
 187 440 187 440 222 456 c 128,-1,20
 257 472 257 472 297 472 c 0,21,22
 345 472 345 472 385 449.5 c 128,-1,23
 425 427 425 427 447 386 c 1,24,-1
 511 406 l 1,25,26
 483 463 483 463 428 496.5 c 128,-1,27
 373 530 373 530 299 530 c 0,28,29
 242 530 242 530 194.5 508.5 c 128,-1,30
 147 487 147 487 112 451 c 128,-1,31
 77 415 77 415 58 366 c 128,-1,32
 39 317 39 317 39 262 c 256,33,34
 39 207 39 207 59 157.5 c 128,-1,35
 79 108 79 108 113.5 71 c 128,-1,36
 148 34 148 34 196 12 c 128,-1,37
 244 -10 244 -10 300 -10 c 0,0,1
EndSplineSet
EndChar

StartChar: d
Encoding: 100 100 71
Width: 617
GlyphClass: 1
Flags: W
LayerCount: 2
Fore
SplineSet
542 0 m 1,0,-1
 542 730 l 1,1,-1
 476 730 l 1,2,-1
 476 411 l 1,3,4
 460 436 460 436 439.5 457.5 c 128,-1,5
 419 479 419 479 394 495 c 128,-1,6
 369 511 369 511 340 520.5 c 128,-1,7
 311 530 311 530 278 530 c 0,8,9
 226 530 226 530 183 508 c 128,-1,10
 140 486 140 486 108 449 c 128,-1,11
 76 412 76 412 58 363.5 c 128,-1,12
 40 315 40 315 40 259 c 0,13,14
 40 207 40 207 58.5 158 c 128,-1,15
 77 109 77 109 110 72 c 128,-1,16
 143 35 143 35 189 12.5 c 128,-1,17
 235 -10 235 -10 289 -10 c 0,18,19
 347 -10 347 -10 396.5 19.5 c 128,-1,20
 446 49 446 49 476 97 c 1,21,-1
 476 0 l 1,22,-1
 542 0 l 1,0,-1
476 178 m 2,23,24
 473 152 473 152 455.5 128 c 128,-1,25
 438 104 438 104 413 86 c 128,-1,26
 388 68 388 68 358.5 57.5 c 128,-1,27
 329 47 329 47 303 47 c 0,28,29
 262 47 262 47 226.5 64.5 c 128,-1,30
 191 82 191 82 164.5 110.5 c 128,-1,31
 138 139 138 139 122.5 177.5 c 128,-1,32
 107 216 107 216 107 259 c 0,33,34
 107 299 107 299 120.5 337.5 c 128,-1,35
 134 376 134 376 158.5 406 c 128,-1,36
 183 436 183 436 217.5 454 c 128,-1,37
 252 472 252 472 294 472 c 0,38,39
 322 472 322 472 350 462 c 128,-1,40
 378 452 378 452 403 434 c 128,-1,41
 428 416 428 416 447.5 392 c 128,-1,42
 467 368 467 368 476 341 c 1,43,-1
 476 178 l 2,23,24
EndSplineSet
Substitution2: "'ss03' Style Set 3 lookup 31 subtable" d.ss03
Substitution2: "'aalt' Access All Alternates lookup 0 subtable" d.ss03
EndChar

StartChar: e
Encoding: 101 101 72
Width: 586
GlyphClass: 1
Flags: W
LayerCount: 2
Fore
SplineSet
300 -10 m 0,0,1
 337 -10 337 -10 372 0 c 128,-1,2
 407 10 407 10 436 27 c 128,-1,3
 465 44 465 44 487 67.5 c 128,-1,4
 509 91 509 91 521 119 c 1,5,-1
 464 135 l 1,6,7
 455 114 455 114 438 96.5 c 128,-1,8
 421 79 421 79 399.5 67 c 128,-1,9
 378 55 378 55 353 48 c 128,-1,10
 328 41 328 41 302 41 c 0,11,12
 265 41 265 41 231 55.5 c 128,-1,13
 197 70 197 70 170.5 96 c 128,-1,14
 144 122 144 122 127.5 158 c 128,-1,15
 111 194 111 194 108 237 c 1,16,-1
 555 237 l 1,17,18
 556 241 556 241 556 248 c 128,-1,19
 556 255 556 255 556 263 c 0,20,21
 556 317 556 317 537 365.5 c 128,-1,22
 518 414 518 414 484.5 450 c 128,-1,23
 451 486 451 486 403.5 508 c 128,-1,24
 356 530 356 530 299 530 c 0,25,26
 243 530 243 530 195.5 508.5 c 128,-1,27
 148 487 148 487 113 450.5 c 128,-1,28
 78 414 78 414 58.5 365.5 c 128,-1,29
 39 317 39 317 39 262 c 0,30,31
 39 206 39 206 59 156.5 c 128,-1,32
 79 107 79 107 113.5 70 c 128,-1,33
 148 33 148 33 196 11.5 c 128,-1,34
 244 -10 244 -10 300 -10 c 0,0,1
106 284 m 1,35,36
 109 326 109 326 124.5 362 c 128,-1,37
 140 398 140 398 166.5 424 c 128,-1,38
 193 450 193 450 227 464.5 c 128,-1,39
 261 479 261 479 299 479 c 0,40,41
 338 479 338 479 372 464.5 c 128,-1,42
 406 450 406 450 432 424.5 c 128,-1,43
 458 399 458 399 475 363 c 128,-1,44
 492 327 492 327 495 284 c 1,45,-1
 106 284 l 1,35,36
EndSplineSet
EndChar

StartChar: f
Encoding: 102 102 73
Width: 328
GlyphClass: 1
Flags: W
LayerCount: 2
Fore
SplineSet
166 0 m 1,0,-1
 166 468 l 1,1,-1
 310 468 l 1,2,-1
 310 521 l 1,3,-1
 166 521 l 1,4,-1
 166 537 l 2,5,6
 166 609 166 609 191.5 646.5 c 128,-1,7
 217 684 217 684 265 684 c 0,8,9
 286 684 286 684 307 677.5 c 128,-1,10
 328 671 328 671 341 660 c 1,11,-1
 361 707 l 1,12,13
 340 722 340 722 311.5 731 c 128,-1,14
 283 740 283 740 253 740 c 0,15,16
 217 740 217 740 189 726 c 128,-1,17
 161 712 161 712 141 685.5 c 128,-1,18
 121 659 121 659 110.5 621 c 128,-1,19
 100 583 100 583 100 535 c 2,20,-1
 100 521 l 1,21,-1
 28 521 l 1,22,-1
 28 468 l 1,23,-1
 100 468 l 1,24,-1
 100 0 l 1,25,-1
 166 0 l 1,0,-1
EndSplineSet
EndChar

StartChar: g
Encoding: 103 103 74
Width: 617
GlyphClass: 1
Flags: W
LayerCount: 2
Fore
SplineSet
285 -7 m 0,0,1
 342 -7 342 -7 394 22.5 c 128,-1,2
 446 52 446 52 476 101 c 1,3,-1
 476 -3 l 2,4,5
 476 -46 476 -46 461 -77 c 128,-1,6
 446 -108 446 -108 420.5 -129 c 128,-1,7
 395 -150 395 -150 360.5 -160.5 c 128,-1,8
 326 -171 326 -171 288 -171 c 0,9,10
 229 -171 229 -171 178 -147 c 128,-1,11
 127 -123 127 -123 95 -73 c 1,12,-1
 55 -105 l 1,13,14
 89 -159 89 -159 144 -191 c 128,-1,15
 199 -223 199 -223 288 -223 c 0,16,17
 340 -223 340 -223 386 -209 c 128,-1,18
 432 -195 432 -195 467 -167.5 c 128,-1,19
 502 -140 502 -140 522 -99 c 128,-1,20
 542 -58 542 -58 542 -3 c 2,21,-1
 542 521 l 1,22,-1
 483 521 l 1,23,-1
 483 411 l 1,24,25
 466 436 466 436 445 458 c 128,-1,26
 424 480 424 480 399 496 c 128,-1,27
 374 512 374 512 345 521 c 128,-1,28
 316 530 316 530 282 530 c 0,29,30
 229 530 229 530 184.5 508 c 128,-1,31
 140 486 140 486 108 449 c 128,-1,32
 76 412 76 412 58.5 362.5 c 128,-1,33
 41 313 41 313 41 259 c 0,34,35
 41 208 41 208 58.5 160 c 128,-1,36
 76 112 76 112 108.5 74.5 c 128,-1,37
 141 37 141 37 186 15 c 128,-1,38
 231 -7 231 -7 285 -7 c 0,0,1
303 47 m 0,39,40
 262 47 262 47 226 64.5 c 128,-1,41
 190 82 190 82 163.5 110.5 c 128,-1,42
 137 139 137 139 122 177.5 c 128,-1,43
 107 216 107 216 107 258 c 0,44,45
 107 297 107 297 120 335.5 c 128,-1,46
 133 374 133 374 157 404.5 c 128,-1,47
 181 435 181 435 215.5 453.5 c 128,-1,48
 250 472 250 472 294 472 c 0,49,50
 323 472 323 472 351 462.5 c 128,-1,51
 379 453 379 453 403 435 c 128,-1,52
 427 417 427 417 446.5 393.5 c 128,-1,53
 466 370 466 370 476 341 c 1,54,-1
 476 178 l 1,55,56
 472 154 472 154 456 131 c 128,-1,57
 440 108 440 108 416 89 c 128,-1,58
 392 70 392 70 363 58.5 c 128,-1,59
 334 47 334 47 303 47 c 0,39,40
EndSplineSet
EndChar

StartChar: h
Encoding: 104 104 75
Width: 582
GlyphClass: 1
Flags: W
LayerCount: 2
Fore
SplineSet
512 304 m 2,0,1
 512 355 512 355 502.5 396.5 c 128,-1,2
 493 438 493 438 473.5 467.5 c 128,-1,3
 454 497 454 497 423 513.5 c 128,-1,4
 392 530 392 530 347 530 c 0,5,6
 282 530 282 530 227 495.5 c 128,-1,7
 172 461 172 461 141 402 c 1,8,-1
 141 730 l 1,9,-1
 75 730 l 1,10,-1
 75 0 l 1,11,-1
 141 0 l 1,12,-1
 141 319 l 1,13,14
 150 352 150 352 169 379.5 c 128,-1,15
 188 407 188 407 213 427 c 128,-1,16
 238 447 238 447 267 458.5 c 128,-1,17
 296 470 296 470 325 470 c 0,18,19
 385 470 385 470 415.5 425.5 c 128,-1,20
 446 381 446 381 446 291 c 2,21,-1
 446 0 l 1,22,-1
 512 0 l 1,23,-1
 512 304 l 2,0,1
EndSplineSet
EndChar

StartChar: k
Encoding: 107 107 78
Width: 529
GlyphClass: 1
Flags: W
LayerCount: 2
Fore
SplineSet
519 0 m 1,0,-1
 297 307 l 1,1,-1
 511 520 l 1,2,-1
 439 520 l 1,3,-1
 141 234 l 1,4,-1
 141 730 l 1,5,-1
 75 730 l 1,6,-1
 75 0 l 1,7,-1
 141 0 l 1,8,-1
 141 164 l 1,9,-1
 254 268 l 1,10,-1
 448 0 l 1,11,-1
 519 0 l 1,0,-1
EndSplineSet
EndChar

StartChar: l
Encoding: 108 108 79
Width: 270
GlyphClass: 1
Flags: W
LayerCount: 2
Fore
SplineSet
79 94 m 2,0,1
 79 47 79 47 106 20.5 c 128,-1,2
 133 -6 133 -6 178 -6 c 0,3,4
 198 -6 198 -6 225 -1 c 128,-1,5
 252 4 252 4 271 12 c 1,6,-1
 260 65 l 1,7,8
 247 60 247 60 229 56.5 c 128,-1,9
 211 53 211 53 193 53 c 0,10,11
 182 53 182 53 173 55.5 c 128,-1,12
 164 58 164 58 157.5 65 c 128,-1,13
 151 72 151 72 147.5 84 c 128,-1,14
 144 96 144 96 144 116 c 2,15,-1
 144 730 l 1,16,-1
 79 730 l 1,17,-1
 79 94 l 2,0,1
EndSplineSet
Substitution2: "'ss05' Style Set 5 lookup 33 subtable" l.ss05
Substitution2: "'aalt' Access All Alternates lookup 0 subtable" l.ss05
EndChar

StartChar: m
Encoding: 109 109 80
Width: 919
GlyphClass: 1
Flags: W
LayerCount: 2
Fore
SplineSet
849 304 m 2,0,1
 849 356 849 356 840.5 397.5 c 128,-1,2
 832 439 832 439 813 468.5 c 128,-1,3
 794 498 794 498 764 514 c 128,-1,4
 734 530 734 530 690 530 c 0,5,6
 626 530 626 530 575.5 496 c 128,-1,7
 525 462 525 462 488 395 c 1,8,9
 480 455 480 455 439.5 492.5 c 128,-1,10
 399 530 399 530 334 530 c 0,11,12
 271 530 271 530 219.5 496.5 c 128,-1,13
 168 463 168 463 135 402 c 1,14,-1
 135 521 l 1,15,-1
 75 521 l 1,16,-1
 75 0 l 1,17,-1
 141 0 l 1,18,-1
 141 319 l 1,19,20
 150 353 150 353 167.5 381 c 128,-1,21
 185 409 185 409 207.5 428.5 c 128,-1,22
 230 448 230 448 257 459 c 128,-1,23
 284 470 284 470 314 470 c 0,24,25
 372 470 372 470 400.5 427.5 c 128,-1,26
 429 385 429 385 429 291 c 2,27,-1
 429 0 l 1,28,-1
 494 0 l 1,29,-1
 494 318 l 1,30,31
 504 351 504 351 520.5 379 c 128,-1,32
 537 407 537 407 559.5 427.5 c 128,-1,33
 582 448 582 448 609.5 459 c 128,-1,34
 637 470 637 470 667 470 c 0,35,36
 726 470 726 470 754.5 426.5 c 128,-1,37
 783 383 783 383 783 291 c 2,38,-1
 783 0 l 1,39,-1
 849 0 l 1,40,-1
 849 304 l 2,0,1
EndSplineSet
EndChar

StartChar: n
Encoding: 110 110 81
Width: 582
GlyphClass: 1
Flags: W
LayerCount: 2
Fore
SplineSet
512 304 m 2,0,1
 512 356 512 356 504 398 c 128,-1,2
 496 440 496 440 477.5 469 c 128,-1,3
 459 498 459 498 429.5 514 c 128,-1,4
 400 530 400 530 356 530 c 0,5,6
 322 530 322 530 289 520.5 c 128,-1,7
 256 511 256 511 227 494.5 c 128,-1,8
 198 478 198 478 174.5 454 c 128,-1,9
 151 430 151 430 135 402 c 1,10,-1
 135 521 l 1,11,-1
 75 521 l 1,12,-1
 75 0 l 1,13,-1
 141 0 l 1,14,-1
 141 319 l 1,15,16
 150 352 150 352 170 379.5 c 128,-1,17
 190 407 190 407 216 427 c 128,-1,18
 242 447 242 447 272.5 458.5 c 128,-1,19
 303 470 303 470 333 470 c 0,20,21
 391 470 391 470 418.5 427.5 c 128,-1,22
 446 385 446 385 446 291 c 2,23,-1
 446 0 l 1,24,-1
 512 0 l 1,25,-1
 512 304 l 2,0,1
EndSplineSet
EndChar

StartChar: o
Encoding: 111 111 82
Width: 595
GlyphClass: 1
Flags: W
LayerCount: 2
Fore
SplineSet
297 -10 m 256,0,1
 353 -10 353 -10 400.5 12 c 128,-1,2
 448 34 448 34 482.5 70.5 c 128,-1,3
 517 107 517 107 536 156 c 128,-1,4
 555 205 555 205 555 259 c 0,5,6
 555 314 555 314 535.5 363 c 128,-1,7
 516 412 516 412 482 449 c 128,-1,8
 448 486 448 486 400.5 508 c 128,-1,9
 353 530 353 530 297 530 c 0,10,11
 242 530 242 530 194.5 508 c 128,-1,12
 147 486 147 486 113 449 c 128,-1,13
 79 412 79 412 59 363 c 128,-1,14
 39 314 39 314 39 259 c 0,15,16
 39 205 39 205 58.5 156 c 128,-1,17
 78 107 78 107 112 70.5 c 128,-1,18
 146 34 146 34 193.5 12 c 128,-1,19
 241 -10 241 -10 297 -10 c 256,0,1
106 258 m 256,20,21
 106 302 106 302 121 341 c 128,-1,22
 136 380 136 380 162 409 c 128,-1,23
 188 438 188 438 223 455 c 128,-1,24
 258 472 258 472 297 472 c 256,25,26
 336 472 336 472 371 455.5 c 128,-1,27
 406 439 406 439 432.5 410 c 128,-1,28
 459 381 459 381 474 342.5 c 128,-1,29
 489 304 489 304 489 260 c 256,30,31
 489 216 489 216 474 177.5 c 128,-1,32
 459 139 459 139 432.5 110 c 128,-1,33
 406 81 406 81 371 64 c 128,-1,34
 336 47 336 47 297 47 c 0,35,36
 257 47 257 47 222.5 63.5 c 128,-1,37
 188 80 188 80 162 108.5 c 128,-1,38
 136 137 136 137 121 175.5 c 128,-1,39
 106 214 106 214 106 258 c 256,20,21
EndSplineSet
Substitution2: "Single Substitution lookup 45 subtable" ordmasculine
Substitution2: "'aalt' Access All Alternates lookup 0 subtable" ordmasculine
EndChar

StartChar: p
Encoding: 112 112 83
Width: 616
GlyphClass: 1
Flags: W
LayerCount: 2
Fore
SplineSet
340 -10 m 0,0,1
 393 -10 393 -10 436.5 11.5 c 128,-1,2
 480 33 480 33 511 70 c 128,-1,3
 542 107 542 107 559 156 c 128,-1,4
 576 205 576 205 576 260 c 0,5,6
 576 312 576 312 557.5 360.5 c 128,-1,7
 539 409 539 409 506 447 c 128,-1,8
 473 485 473 485 428 507.5 c 128,-1,9
 383 530 383 530 328 530 c 0,10,11
 268 530 268 530 217 499 c 128,-1,12
 166 468 166 468 134 419 c 1,13,-1
 134 521 l 1,14,-1
 75 521 l 1,15,-1
 75 -213 l 1,16,-1
 141 -213 l 1,17,-1
 141 108 l 1,18,19
 156 84 156 84 176.5 62 c 128,-1,20
 197 40 197 40 222.5 24 c 128,-1,21
 248 8 248 8 277.5 -1 c 128,-1,22
 307 -10 307 -10 340 -10 c 0,0,1
322 47 m 0,23,24
 293 47 293 47 265.5 57.5 c 128,-1,25
 238 68 238 68 214.5 85.5 c 128,-1,26
 191 103 191 103 172 127.5 c 128,-1,27
 153 152 153 152 141 180 c 1,28,-1
 141 341 l 1,29,30
 145 368 145 368 162.5 392 c 128,-1,31
 180 416 180 416 205 433.5 c 128,-1,32
 230 451 230 451 259 461.5 c 128,-1,33
 288 472 288 472 314 472 c 0,34,35
 355 472 355 472 390.5 455 c 128,-1,36
 426 438 426 438 452.5 409 c 128,-1,37
 479 380 479 380 494.5 341 c 128,-1,38
 510 302 510 302 510 260 c 0,39,40
 510 220 510 220 496.5 182 c 128,-1,41
 483 144 483 144 458.5 114 c 128,-1,42
 434 84 434 84 399.5 65.5 c 128,-1,43
 365 47 365 47 322 47 c 0,23,24
EndSplineSet
EndChar

StartChar: q
Encoding: 113 113 84
Width: 616
GlyphClass: 1
Flags: W
LayerCount: 2
Fore
SplineSet
276 -10 m 0,0,1
 337 -10 337 -10 387.5 20 c 128,-1,2
 438 50 438 50 476 108 c 1,3,-1
 476 -213 l 1,4,-1
 541 -213 l 1,5,-1
 541 521 l 1,6,-1
 482 521 l 1,7,-1
 482 418 l 1,8,9
 467 443 467 443 446.5 463 c 128,-1,10
 426 483 426 483 400.5 498 c 128,-1,11
 375 513 375 513 346.5 521.5 c 128,-1,12
 318 530 318 530 288 530 c 0,13,14
 236 530 236 530 191 508 c 128,-1,15
 146 486 146 486 112 449 c 128,-1,16
 78 412 78 412 59 363 c 128,-1,17
 40 314 40 314 40 260 c 0,18,19
 40 207 40 207 57 158.5 c 128,-1,20
 74 110 74 110 105 72.5 c 128,-1,21
 136 35 136 35 179.5 12.5 c 128,-1,22
 223 -10 223 -10 276 -10 c 0,0,1
296 47 m 0,23,24
 255 47 255 47 220 64.5 c 128,-1,25
 185 82 185 82 160 110.5 c 128,-1,26
 135 139 135 139 121 177.5 c 128,-1,27
 107 216 107 216 107 259 c 0,28,29
 107 299 107 299 121 337.5 c 128,-1,30
 135 376 135 376 161 406 c 128,-1,31
 187 436 187 436 222.5 454 c 128,-1,32
 258 472 258 472 301 472 c 0,33,34
 329 472 329 472 358 461 c 128,-1,35
 387 450 387 450 412 431 c 128,-1,36
 437 412 437 412 454.5 387 c 128,-1,37
 472 362 472 362 476 335 c 1,38,-1
 476 172 l 1,39,40
 462 147 462 147 444 124.5 c 128,-1,41
 426 102 426 102 403.5 85 c 128,-1,42
 381 68 381 68 354 57.5 c 128,-1,43
 327 47 327 47 296 47 c 0,23,24
EndSplineSet
Substitution2: "'ss06' Style Set 6 lookup 34 subtable" q.ss06
Substitution2: "'aalt' Access All Alternates lookup 0 subtable" q.ss06
EndChar

StartChar: r
Encoding: 114 114 85
Width: 350
GlyphClass: 1
Flags: W
LayerCount: 2
Fore
SplineSet
333 523 m 1,0,1
 328 524 328 524 320.5 523.5 c 128,-1,2
 313 523 313 523 303 523 c 0,3,4
 253 518 253 518 208.5 484 c 128,-1,5
 164 450 164 450 137 396 c 1,6,-1
 137 521 l 1,7,-1
 75 521 l 1,8,-1
 75 0 l 1,9,-1
 141 0 l 1,10,-1
 141 324 l 1,11,12
 162 388 162 388 213.5 424.5 c 128,-1,13
 265 461 265 461 333 463 c 1,14,-1
 333 523 l 1,0,1
EndSplineSet
EndChar

StartChar: s
Encoding: 115 115 86
Width: 482
GlyphClass: 1
Flags: W
LayerCount: 2
Fore
SplineSet
245 -10 m 0,0,1
 290 -10 290 -10 327 0.5 c 128,-1,2
 364 11 364 11 390.5 31 c 128,-1,3
 417 51 417 51 431 79.5 c 128,-1,4
 445 108 445 108 445 144 c 256,5,6
 445 180 445 180 431 202.5 c 128,-1,7
 417 225 417 225 391.5 241 c 128,-1,8
 366 257 366 257 330 268.5 c 128,-1,9
 294 280 294 280 249 292 c 0,10,11
 218 301 218 301 194.5 309 c 128,-1,12
 171 317 171 317 155 326.5 c 128,-1,13
 139 336 139 336 131.5 350 c 128,-1,14
 124 364 124 364 124 385 c 0,15,16
 124 411 124 411 135 428.5 c 128,-1,17
 146 446 146 446 164 457 c 128,-1,18
 182 468 182 468 205 472.5 c 128,-1,19
 228 477 228 477 252 477 c 0,20,21
 300 477 300 477 339 461.5 c 128,-1,22
 378 446 378 446 405 414 c 1,23,-1
 437 457 l 1,24,25
 409 491 409 491 363 510.5 c 128,-1,26
 317 530 317 530 257 530 c 0,27,28
 215 530 215 530 179.5 520 c 128,-1,29
 144 510 144 510 118 491 c 128,-1,30
 92 472 92 472 77 443.5 c 128,-1,31
 62 415 62 415 62 377 c 0,32,33
 62 346 62 346 72.5 324.5 c 128,-1,34
 83 303 83 303 104 287.5 c 128,-1,35
 125 272 125 272 155.5 261 c 128,-1,36
 186 250 186 250 226 238 c 0,37,38
 262 229 262 229 291 221 c 128,-1,39
 320 213 320 213 340 202.5 c 128,-1,40
 360 192 360 192 370.5 177.5 c 128,-1,41
 381 163 381 163 381 139 c 0,42,43
 381 93 381 93 342.5 68 c 128,-1,44
 304 43 304 43 242 43 c 0,45,46
 192 43 192 43 147.5 61.5 c 128,-1,47
 103 80 103 80 60 121 c 1,48,-1
 32 75 l 1,49,50
 73 32 73 32 127 11 c 128,-1,51
 181 -10 181 -10 245 -10 c 0,0,1
EndSplineSet
EndChar

StartChar: t
Encoding: 116 116 87
Width: 333
GlyphClass: 1
Flags: W
LayerCount: 2
Fore
SplineSet
305 77 m 2,0,1
 302 76 302 76 295 72 c 128,-1,2
 288 68 288 68 277.5 64 c 128,-1,3
 267 60 267 60 253.5 57 c 128,-1,4
 240 54 240 54 226 54 c 0,5,6
 202 54 202 54 183.5 68 c 128,-1,7
 165 82 165 82 163 111 c 2,8,-1
 163 468 l 1,9,-1
 283 468 l 1,10,-1
 283 521 l 1,11,-1
 163 521 l 1,12,-1
 163 697 l 1,13,-1
 98 697 l 1,14,-1
 98 521 l 1,15,-1
 25 521 l 1,16,-1
 25 468 l 1,17,-1
 98 468 l 1,18,-1
 98 93 l 2,19,20
 98 68 98 68 106.5 49.5 c 128,-1,21
 115 31 115 31 130 18.5 c 128,-1,22
 145 6 145 6 164.5 0 c 128,-1,23
 184 -6 184 -6 206 -6 c 0,24,25
 227 -6 227 -6 246 -2 c 128,-1,26
 265 2 265 2 280 7 c 128,-1,27
 295 12 295 12 306 17.5 c 128,-1,28
 317 23 317 23 323 25 c 1,29,-1
 305 77 l 2,0,1
EndSplineSet
Substitution2: "'ss07' Style Set 7 lookup 35 subtable" t.ss07
Substitution2: "'aalt' Access All Alternates lookup 0 subtable" t.ss07
EndChar

StartChar: u
Encoding: 117 117 88
Width: 589
GlyphClass: 1
Flags: W
LayerCount: 2
Fore
SplineSet
514 0 m 1,0,-1
 514 521 l 1,1,-1
 448 521 l 1,2,-1
 448 193 l 1,3,4
 438 164 438 164 419.5 137 c 128,-1,5
 401 110 401 110 376.5 90.5 c 128,-1,6
 352 71 352 71 322.5 59 c 128,-1,7
 293 47 293 47 262 47 c 0,8,9
 224 47 224 47 199 61.5 c 128,-1,10
 174 76 174 76 160 100 c 128,-1,11
 146 124 146 124 140.5 157 c 128,-1,12
 135 190 135 190 135 227 c 2,13,-1
 135 521 l 1,14,-1
 70 521 l 1,15,-1
 70 215 l 2,16,17
 70 171 70 171 77.5 130 c 128,-1,18
 85 89 85 89 104 58 c 128,-1,19
 123 27 123 27 156.5 8.5 c 128,-1,20
 190 -10 190 -10 241 -10 c 0,21,22
 273 -10 273 -10 304 -1 c 128,-1,23
 335 8 335 8 362.5 24 c 128,-1,24
 390 40 390 40 412.5 63 c 128,-1,25
 435 86 435 86 450 115 c 1,26,-1
 450 0 l 1,27,-1
 514 0 l 1,0,-1
EndSplineSet
Substitution2: "'ss08' Style Set 8 lookup 36 subtable" u.ss08
Substitution2: "'aalt' Access All Alternates lookup 0 subtable" u.ss08
EndChar

StartChar: v
Encoding: 118 118 89
Width: 533
GlyphClass: 1
Flags: W
LayerCount: 2
Fore
SplineSet
301 0 m 1,0,-1
 513 521 l 1,1,-1
 448 521 l 1,2,-1
 268 66 l 1,3,-1
 88 521 l 1,4,-1
 19 521 l 1,5,-1
 231 0 l 1,6,-1
 301 0 l 1,0,-1
EndSplineSet
EndChar

StartChar: w
Encoding: 119 119 90
Width: 827
GlyphClass: 1
Flags: W
LayerCount: 2
Fore
SplineSet
22 521 m 1,0,-1
 206 0 l 1,1,-1
 274 0 l 1,2,-1
 414 422 l 1,3,-1
 553 0 l 1,4,-1
 621 0 l 1,5,-1
 805 521 l 1,6,-1
 737 521 l 1,7,-1
 585 82 l 1,8,-1
 445 521 l 1,9,-1
 382 521 l 1,10,-1
 242 82 l 1,11,-1
 91 521 l 1,12,-1
 22 521 l 1,0,-1
EndSplineSet
Substitution2: "'ss09' Style Set 9 lookup 37 subtable" w.ss09
Substitution2: "'aalt' Access All Alternates lookup 0 subtable" w.ss09
EndChar

StartChar: x
Encoding: 120 120 91
Width: 503
GlyphClass: 1
Flags: W
LayerCount: 2
Fore
SplineSet
15 521 m 1,0,-1
 213 259 l 1,1,-1
 15 0 l 1,2,-1
 89 0 l 1,3,-1
 243 205 l 1,4,-1
 251 219 l 1,5,-1
 260 205 l 1,6,-1
 413 0 l 1,7,-1
 487 0 l 1,8,-1
 289 259 l 1,9,-1
 487 521 l 1,10,-1
 413 521 l 1,11,-1
 260 315 l 1,12,-1
 251 300 l 1,13,-1
 243 315 l 1,14,-1
 89 521 l 1,15,-1
 15 521 l 1,0,-1
EndSplineSet
EndChar

StartChar: y
Encoding: 121 121 92
Width: 543
GlyphClass: 1
Flags: W
LayerCount: 2
Fore
SplineSet
459 521 m 1,0,-1
 278 61 l 1,1,-1
 83 521 l 1,2,-1
 15 521 l 1,3,-1
 242 0 l 1,4,-1
 156 -213 l 1,5,-1
 228 -213 l 1,6,-1
 522 521 l 1,7,-1
 459 521 l 1,0,-1
EndSplineSet
Substitution2: "'ss10' Style Set 10 lookup 38 subtable" y.ss10
Substitution2: "'aalt' Access All Alternates lookup 0 subtable" y.ss10
EndChar

StartChar: z
Encoding: 122 122 93
Width: 491
GlyphClass: 1
Flags: W
LayerCount: 2
Fore
SplineSet
31 0 m 1,0,-1
 456 0 l 1,1,-1
 456 49 l 1,2,-1
 107 49 l 1,3,-1
 457 476 l 1,4,-1
 457 521 l 1,5,-1
 39 521 l 1,6,-1
 39 472 l 1,7,-1
 382 472 l 1,8,-1
 31 45 l 1,9,-1
 31 0 l 1,0,-1
EndSplineSet
EndChar

StartChar: braceleft
Encoding: 123 123 94
Width: 257
GlyphClass: 1
Flags: W
LayerCount: 2
Fore
SplineSet
207 685 m 1,0,-1
 207 740 l 1,1,-1
 115 740 l 2,2,3
 110 740 110 740 101 734.5 c 128,-1,4
 92 729 92 729 92 710 c 2,5,-1
 92 439 l 2,6,7
 92 433 92 433 90 424 c 128,-1,8
 88 415 88 415 83.5 406.5 c 128,-1,9
 79 398 79 398 72 392 c 128,-1,10
 65 386 65 386 54 386 c 1,11,-1
 54 336 l 1,12,13
 73 334 73 334 82.5 317.5 c 128,-1,14
 92 301 92 301 92 281 c 2,15,-1
 92 -1 l 2,16,17
 92 -18 92 -18 99.5 -24.5 c 128,-1,18
 107 -31 107 -31 115 -31 c 2,19,-1
 207 -31 l 1,20,-1
 207 24 l 1,21,-1
 152 24 l 1,22,-1
 152 299 l 2,23,24
 152 310 152 310 146.5 328 c 128,-1,25
 141 346 141 346 126 360 c 1,26,27
 142 374 142 374 147 392 c 128,-1,28
 152 410 152 410 152 421 c 2,29,-1
 152 685 l 1,30,-1
 207 685 l 1,0,-1
EndSplineSet
EndChar

StartChar: bar
Encoding: 124 124 95
Width: 230
GlyphClass: 1
Flags: W
LayerCount: 2
Fore
SplineSet
144 -130 m 1,0,-1
 144 775 l 1,1,-1
 86 775 l 1,2,-1
 86 -130 l 1,3,-1
 144 -130 l 1,0,-1
EndSplineSet
EndChar

StartChar: braceright
Encoding: 125 125 96
Width: 257
GlyphClass: 1
Flags: W
LayerCount: 2
Fore
SplineSet
105 685 m 1,0,-1
 105 421 l 2,1,2
 105 410 105 410 110 392 c 128,-1,3
 115 374 115 374 131 360 c 1,4,5
 115 346 115 346 110 328 c 128,-1,6
 105 310 105 310 105 299 c 2,7,-1
 105 24 l 1,8,-1
 50 24 l 1,9,-1
 50 -31 l 1,10,-1
 142 -31 l 2,11,12
 149 -31 149 -31 157 -24.5 c 128,-1,13
 165 -18 165 -18 165 -1 c 2,14,-1
 165 281 l 2,15,16
 165 301 165 301 174.5 317.5 c 128,-1,17
 184 334 184 334 203 336 c 1,18,-1
 203 386 l 1,19,20
 193 386 193 386 185.5 392 c 128,-1,21
 178 398 178 398 173.5 406.5 c 128,-1,22
 169 415 169 415 167 424 c 128,-1,23
 165 433 165 433 165 439 c 2,24,-1
 165 710 l 2,25,26
 165 729 165 729 156 734.5 c 128,-1,27
 147 740 147 740 142 740 c 2,28,-1
 50 740 l 1,29,-1
 50 685 l 1,30,-1
 105 685 l 1,0,-1
EndSplineSet
EndChar

StartChar: asciitilde
Encoding: 126 126 97
Width: 509
GlyphClass: 1
Flags: W
LayerCount: 2
Fore
SplineSet
67 242 m 1,0,-1
 108 242 l 1,1,2
 108 243 108 243 111.5 251.5 c 128,-1,3
 115 260 115 260 122.5 271 c 128,-1,4
 130 282 130 282 142.5 290.5 c 128,-1,5
 155 299 155 299 172 299 c 0,6,7
 190 299 190 299 208 290.5 c 128,-1,8
 226 282 226 282 245 271 c 128,-1,9
 264 260 264 260 285.5 251 c 128,-1,10
 307 242 307 242 332 242 c 0,11,12
 364 242 364 242 385 256 c 128,-1,13
 406 270 406 270 419 287.5 c 128,-1,14
 432 305 432 305 437.5 320 c 128,-1,15
 443 335 443 335 443 337 c 2,16,-1
 402 338 l 1,17,18
 402 336 402 336 398 327.5 c 128,-1,19
 394 319 394 319 386 309.5 c 128,-1,20
 378 300 378 300 365 292.5 c 128,-1,21
 352 285 352 285 332 285 c 256,22,23
 312 285 312 285 293 294 c 128,-1,24
 274 303 274 303 255 314 c 128,-1,25
 236 325 236 325 215.5 334 c 128,-1,26
 195 343 195 343 173 343 c 0,27,28
 143 343 143 343 123 329 c 128,-1,29
 103 315 103 315 90.5 297 c 128,-1,30
 78 279 78 279 72.5 262.5 c 128,-1,31
 67 246 67 246 67 242 c 1,0,-1
EndSplineSet
EndChar

StartChar: exclamdown
Encoding: 161 161 99
Width: 251
GlyphClass: 1
Flags: W
LayerCount: 2
Fore
SplineSet
178 475 m 256,0,1
 178 486 178 486 174 495.5 c 128,-1,2
 170 505 170 505 162.5 512 c 128,-1,3
 155 519 155 519 145.5 523 c 128,-1,4
 136 527 136 527 125 527 c 256,5,6
 114 527 114 527 104.5 523 c 128,-1,7
 95 519 95 519 88 512 c 128,-1,8
 81 505 81 505 77 495.5 c 128,-1,9
 73 486 73 486 73 475 c 256,10,11
 73 464 73 464 77 454.5 c 128,-1,12
 81 445 81 445 88 438 c 128,-1,13
 95 431 95 431 104.5 427 c 128,-1,14
 114 423 114 423 125 423 c 256,15,16
 136 423 136 423 145.5 427 c 128,-1,17
 155 431 155 431 162.5 438 c 128,-1,18
 170 445 170 445 174 454.5 c 128,-1,19
 178 464 178 464 178 475 c 256,0,1
103 292 m 1,20,-1
 93 52 l 1,21,-1
 93 -198 l 1,22,-1
 158 -198 l 1,23,-1
 158 52 l 1,24,-1
 148 292 l 1,25,-1
 103 292 l 1,20,-1
EndSplineSet
EndChar

StartChar: cent
Encoding: 162 162 100
Width: 560
GlyphClass: 1
Flags: W
LayerCount: 2
Fore
SplineSet
312 -120 m 1,0,-1
 312 -10 l 1,1,2
 340 -10 340 -10 371 -2 c 128,-1,3
 402 6 402 6 431.5 22 c 128,-1,4
 461 38 461 38 485 62 c 128,-1,5
 509 86 509 86 521 118 c 1,6,-1
 457 138 l 1,7,8
 451 118 451 118 435 102 c 128,-1,9
 419 86 419 86 398.5 74.5 c 128,-1,10
 378 63 378 63 355 56.5 c 128,-1,11
 332 50 332 50 312 49 c 1,12,-1
 312 470 l 1,13,14
 356 468 356 468 392.5 447.5 c 128,-1,15
 429 427 429 427 452 386 c 1,16,-1
 515 406 l 1,17,18
 487 462 487 462 437 494.5 c 128,-1,19
 387 527 387 527 312 529 c 1,20,-1
 312 645 l 1,21,-1
 276 645 l 1,22,-1
 276 529 l 1,23,24
 222 524 222 524 179 500 c 128,-1,25
 136 476 136 476 106 439 c 128,-1,26
 76 402 76 402 59.5 355.5 c 128,-1,27
 43 309 43 309 43 258 c 0,28,29
 43 210 43 210 60.5 164 c 128,-1,30
 78 118 78 118 109 81 c 128,-1,31
 140 44 140 44 182.5 19.5 c 128,-1,32
 225 -5 225 -5 276 -9 c 1,33,-1
 276 -120 l 1,34,-1
 312 -120 l 1,0,-1
110 258 m 0,35,36
 110 294 110 294 121 330.5 c 128,-1,37
 132 367 132 367 153.5 396 c 128,-1,38
 175 425 175 425 206 445 c 128,-1,39
 237 465 237 465 276 468 c 1,40,-1
 276 52 l 1,41,42
 240 57 240 57 210 76 c 128,-1,43
 180 95 180 95 157.5 123 c 128,-1,44
 135 151 135 151 122.5 186 c 128,-1,45
 110 221 110 221 110 258 c 0,35,36
EndSplineSet
EndChar

StartChar: sterling
Encoding: 163 163 101
Width: 497
GlyphClass: 1
Flags: W
LayerCount: 2
Fore
SplineSet
51 320 m 1,0,-1
 386 320 l 1,1,-1
 386 372 l 1,2,-1
 51 372 l 1,3,-1
 51 320 l 1,0,-1
72 -8 m 1,4,5
 97 -1 97 -1 126 3.5 c 128,-1,6
 155 8 155 8 179 8 c 0,7,8
 202 8 202 8 222.5 4.5 c 128,-1,9
 243 1 243 1 263 -3.5 c 128,-1,10
 283 -8 283 -8 303 -11.5 c 128,-1,11
 323 -15 323 -15 345 -15 c 0,12,13
 372 -15 372 -15 400 -8.5 c 128,-1,14
 428 -2 428 -2 454 10 c 1,15,-1
 438 61 l 1,16,17
 410 52 410 52 389 47 c 128,-1,18
 368 42 368 42 348 42 c 0,19,20
 330 42 330 42 313 45 c 128,-1,21
 296 48 296 48 279.5 51.5 c 128,-1,22
 263 55 263 55 244.5 58 c 128,-1,23
 226 61 226 61 205 61 c 0,24,25
 187 61 187 61 169 58.5 c 128,-1,26
 151 56 151 56 132 52 c 1,27,28
 161 83 161 83 181 109.5 c 128,-1,29
 201 136 201 136 213.5 160 c 128,-1,30
 226 184 226 184 231.5 208 c 128,-1,31
 237 232 237 232 237 257 c 0,32,33
 237 304 237 304 222 341.5 c 128,-1,34
 207 379 207 379 188 412 c 128,-1,35
 169 445 169 445 154 476 c 128,-1,36
 139 507 139 507 139 541 c 0,37,38
 139 566 139 566 148 587.5 c 128,-1,39
 157 609 157 609 173 625 c 128,-1,40
 189 641 189 641 210.5 650.5 c 128,-1,41
 232 660 232 660 256 660 c 0,42,43
 298 660 298 660 337 635.5 c 128,-1,44
 376 611 376 611 400 570 c 1,45,-1
 438 610 l 1,46,47
 408 659 408 659 360.5 687 c 128,-1,48
 313 715 313 715 258 715 c 0,49,50
 221 715 221 715 188 701.5 c 128,-1,51
 155 688 155 688 130.5 665 c 128,-1,52
 106 642 106 642 92 611 c 128,-1,53
 78 580 78 580 78 545 c 0,54,55
 78 506 78 506 93.5 472.5 c 128,-1,56
 109 439 109 439 128 405.5 c 128,-1,57
 147 372 147 372 163 335.5 c 128,-1,58
 179 299 179 299 179 254 c 0,59,60
 179 229 179 229 172.5 205.5 c 128,-1,61
 166 182 166 182 151.5 157 c 128,-1,62
 137 132 137 132 113 103.5 c 128,-1,63
 89 75 89 75 54 41 c 1,64,-1
 72 -8 l 1,4,5
EndSplineSet
EndChar

StartChar: currency
Encoding: 164 164 102
Width: 536
GlyphClass: 1
Flags: W
LayerCount: 2
Fore
SplineSet
86 550 m 1,0,-1
 53 518 l 1,1,-1
 123 447 l 1,2,3
 106 424 106 424 97 395.5 c 128,-1,4
 88 367 88 367 88 336 c 256,5,6
 88 305 88 305 97.5 276.5 c 128,-1,7
 107 248 107 248 125 225 c 1,8,-1
 53 154 l 1,9,-1
 82 125 l 1,10,-1
 154 194 l 1,11,12
 177 176 177 176 205.5 165.5 c 128,-1,13
 234 155 234 155 268 155 c 0,14,15
 301 155 301 155 330 165.5 c 128,-1,16
 359 176 359 176 382 195 c 1,17,-1
 455 125 l 1,18,-1
 484 154 l 1,19,-1
 411 226 l 1,20,21
 429 249 429 249 438.5 277.5 c 128,-1,22
 448 306 448 306 448 336 c 0,23,24
 448 367 448 367 438.5 395 c 128,-1,25
 429 423 429 423 412 447 c 1,26,-1
 484 518 l 1,27,-1
 452 550 l 1,28,-1
 381 479 l 1,29,30
 358 498 358 498 329.5 508.5 c 128,-1,31
 301 519 301 519 268 519 c 256,32,33
 235 519 235 519 206.5 509 c 128,-1,34
 178 499 178 499 155 480 c 1,35,-1
 86 550 l 1,0,-1
143 335 m 0,36,37
 143 364 143 364 153 389 c 128,-1,38
 163 414 163 414 180 432 c 128,-1,39
 197 450 197 450 219.5 460.5 c 128,-1,40
 242 471 242 471 268 471 c 256,41,42
 294 471 294 471 316.5 461 c 128,-1,43
 339 451 339 451 356 433 c 128,-1,44
 373 415 373 415 383 390.5 c 128,-1,45
 393 366 393 366 393 337 c 0,46,47
 393 309 393 309 383 284.5 c 128,-1,48
 373 260 373 260 356 241.5 c 128,-1,49
 339 223 339 223 316.5 212.5 c 128,-1,50
 294 202 294 202 268 202 c 256,51,52
 242 202 242 202 219.5 212.5 c 128,-1,53
 197 223 197 223 180 240.5 c 128,-1,54
 163 258 163 258 153 283 c 128,-1,55
 143 308 143 308 143 335 c 0,36,37
EndSplineSet
EndChar

StartChar: yen
Encoding: 165 165 103
Width: 675
GlyphClass: 1
Flags: W
LayerCount: 2
Fore
SplineSet
646 710 m 1,0,-1
 573 710 l 1,1,-1
 336 326 l 1,2,-1
 102 710 l 1,3,-1
 29 710 l 1,4,-1
 246 365 l 1,5,-1
 160 365 l 1,6,-1
 160 318 l 1,7,-1
 272 318 l 1,8,-1
 303 266 l 1,9,-1
 303 238 l 1,10,-1
 160 238 l 1,11,-1
 160 191 l 1,12,-1
 303 191 l 1,13,-1
 303 0 l 1,14,-1
 370 0 l 1,15,-1
 370 191 l 1,16,-1
 515 191 l 1,17,-1
 515 238 l 1,18,-1
 370 238 l 1,19,-1
 370 264 l 1,20,-1
 403 318 l 1,21,-1
 514 318 l 1,22,-1
 514 365 l 1,23,-1
 429 365 l 1,24,-1
 646 710 l 1,0,-1
EndSplineSet
EndChar

StartChar: brokenbar
Encoding: 166 166 104
Width: 233
GlyphClass: 1
Flags: W
LayerCount: 2
Fore
SplineSet
88 277 m 1,0,-1
 88 -130 l 1,1,-1
 145 -130 l 1,2,-1
 145 277 l 1,3,-1
 88 277 l 1,0,-1
88 775 m 1,4,-1
 88 368 l 1,5,-1
 145 368 l 1,6,-1
 145 775 l 1,7,-1
 88 775 l 1,4,-1
EndSplineSet
EndChar

StartChar: section
Encoding: 167 167 105
Width: 505
GlyphClass: 1
Flags: W
LayerCount: 2
Fore
SplineSet
415 194 m 1,0,1
 428 209 428 209 437 233.5 c 128,-1,2
 446 258 446 258 446 287 c 0,3,4
 446 329 446 329 428 358.5 c 128,-1,5
 410 388 410 388 382 406.5 c 128,-1,6
 354 425 354 425 318 433 c 128,-1,7
 282 441 282 441 246 441 c 0,8,9
 217 441 217 441 192.5 446.5 c 128,-1,10
 168 452 168 452 150.5 464 c 128,-1,11
 133 476 133 476 123 496 c 128,-1,12
 113 516 113 516 113 545 c 0,13,14
 113 571 113 571 124 591 c 128,-1,15
 135 611 135 611 154 626 c 128,-1,16
 173 641 173 641 196.5 648.5 c 128,-1,17
 220 656 220 656 245 656 c 0,18,19
 263 656 263 656 282 653 c 128,-1,20
 301 650 301 650 318.5 643 c 128,-1,21
 336 636 336 636 350.5 624.5 c 128,-1,22
 365 613 365 613 374 597 c 1,23,-1
 425 621 l 1,24,25
 413 639 413 639 396.5 656 c 128,-1,26
 380 673 380 673 358 686 c 128,-1,27
 336 699 336 699 307 707 c 128,-1,28
 278 715 278 715 241 715 c 0,29,30
 205 715 205 715 170 702.5 c 128,-1,31
 135 690 135 690 108 667.5 c 128,-1,32
 81 645 81 645 64 613.5 c 128,-1,33
 47 582 47 582 47 544 c 0,34,35
 47 504 47 504 62 473.5 c 128,-1,36
 77 443 77 443 98 427 c 1,37,38
 88 414 88 414 80 391 c 128,-1,39
 72 368 72 368 72 341 c 0,40,41
 72 302 72 302 86.5 273 c 128,-1,42
 101 244 101 244 127 224 c 128,-1,43
 153 204 153 204 188.5 193 c 128,-1,44
 224 182 224 182 266 179 c 0,45,46
 289 178 289 178 311.5 174.5 c 128,-1,47
 334 171 334 171 352.5 161.5 c 128,-1,48
 371 152 371 152 382.5 134 c 128,-1,49
 394 116 394 116 394 87 c 0,50,51
 394 61 394 61 382 40 c 128,-1,52
 370 19 370 19 351 4.5 c 128,-1,53
 332 -10 332 -10 308 -17.5 c 128,-1,54
 284 -25 284 -25 259 -25 c 0,55,56
 216 -25 216 -25 179.5 -8.5 c 128,-1,57
 143 8 143 8 106 43 c 1,58,-1
 63 3 l 1,59,60
 78 -13 78 -13 97.5 -29.5 c 128,-1,61
 117 -46 117 -46 141.5 -59 c 128,-1,62
 166 -72 166 -72 196 -80 c 128,-1,63
 226 -88 226 -88 261 -88 c 0,64,65
 294 -88 294 -88 329.5 -77 c 128,-1,66
 365 -66 365 -66 394.5 -44.5 c 128,-1,67
 424 -23 424 -23 443 10.5 c 128,-1,68
 462 44 462 44 462 89 c 0,69,70
 462 127 462 127 450.5 153.5 c 128,-1,71
 439 180 439 180 415 194 c 1,0,1
136 334 m 0,72,73
 136 353 136 353 142.5 371.5 c 128,-1,74
 149 390 149 390 161 402 c 1,75,76
 178 394 178 394 201 390.5 c 128,-1,77
 224 387 224 387 248 387 c 0,78,79
 270 387 270 387 294 382 c 128,-1,80
 318 377 318 377 337.5 365.5 c 128,-1,81
 357 354 357 354 370 334.5 c 128,-1,82
 383 315 383 315 383 285 c 0,83,84
 383 265 383 265 375 245 c 128,-1,85
 367 225 367 225 354 213 c 1,86,87
 337 220 337 220 314 222.5 c 128,-1,88
 291 225 291 225 267 228 c 128,-1,89
 243 231 243 231 219.5 236 c 128,-1,90
 196 241 196 241 177 252 c 128,-1,91
 158 263 158 263 147 282.5 c 128,-1,92
 136 302 136 302 136 334 c 0,72,73
EndSplineSet
EndChar

StartChar: copyright
Encoding: 169 169 107
Width: 832
GlyphClass: 1
Flags: W
LayerCount: 2
Fore
SplineSet
415 -7 m 256,0,1
 494 -7 494 -7 561.5 20.5 c 128,-1,2
 629 48 629 48 678.5 96.5 c 128,-1,3
 728 145 728 145 756 211 c 128,-1,4
 784 277 784 277 784 355 c 0,5,6
 784 432 784 432 756 498 c 128,-1,7
 728 564 728 564 678.5 612 c 128,-1,8
 629 660 629 660 561.5 687.5 c 128,-1,9
 494 715 494 715 415 715 c 256,10,11
 336 715 336 715 268.5 687.5 c 128,-1,12
 201 660 201 660 152.5 612 c 128,-1,13
 104 564 104 564 76 498 c 128,-1,14
 48 432 48 432 48 355 c 0,15,16
 48 277 48 277 76 211 c 128,-1,17
 104 145 104 145 152.5 96.5 c 128,-1,18
 201 48 201 48 268.5 20.5 c 128,-1,19
 336 -7 336 -7 415 -7 c 256,0,1
415 29 m 0,20,21
 344 29 344 29 283.5 54 c 128,-1,22
 223 79 223 79 179.5 122.5 c 128,-1,23
 136 166 136 166 111 225.5 c 128,-1,24
 86 285 86 285 86 354 c 0,25,26
 86 424 86 424 111 483 c 128,-1,27
 136 542 136 542 180 586 c 128,-1,28
 224 630 224 630 284.5 654.5 c 128,-1,29
 345 679 345 679 415 679 c 0,30,31
 486 679 486 679 546.5 654.5 c 128,-1,32
 607 630 607 630 651.5 586 c 128,-1,33
 696 542 696 542 720.5 482.5 c 128,-1,34
 745 423 745 423 745 353 c 0,35,36
 745 281 745 281 720 221.5 c 128,-1,37
 695 162 695 162 650 119 c 128,-1,38
 605 76 605 76 545 52.5 c 128,-1,39
 485 29 485 29 415 29 c 0,20,21
422 123 m 0,40,41
 460 123 460 123 492.5 134 c 128,-1,42
 525 145 525 145 549.5 162.5 c 128,-1,43
 574 180 574 180 591 200.5 c 128,-1,44
 608 221 608 221 614 238 c 1,45,-1
 551 257 l 1,46,47
 543 240 543 240 528.5 225.5 c 128,-1,48
 514 211 514 211 496 201 c 128,-1,49
 478 191 478 191 458 185.5 c 128,-1,50
 438 180 438 180 419 180 c 0,51,52
 392 180 392 180 363 192 c 128,-1,53
 334 204 334 204 310.5 226 c 128,-1,54
 287 248 287 248 272 280.5 c 128,-1,55
 257 313 257 313 257 355 c 0,56,57
 257 387 257 387 266.5 418.5 c 128,-1,58
 276 450 276 450 296 475 c 128,-1,59
 316 500 316 500 346 515.5 c 128,-1,60
 376 531 376 531 416 531 c 0,61,62
 431 531 431 531 449 528 c 128,-1,63
 467 525 467 525 484.5 517 c 128,-1,64
 502 509 502 509 518 494.5 c 128,-1,65
 534 480 534 480 544 458 c 1,66,-1
 607 478 l 1,67,68
 584 533 584 533 533 561 c 128,-1,69
 482 589 482 589 416 589 c 0,70,71
 359 589 359 589 316 568 c 128,-1,72
 273 547 273 547 245.5 513.5 c 128,-1,73
 218 480 218 480 204 438.5 c 128,-1,74
 190 397 190 397 190 355 c 0,75,76
 190 302 190 302 209.5 259.5 c 128,-1,77
 229 217 229 217 261 186.5 c 128,-1,78
 293 156 293 156 335 139.5 c 128,-1,79
 377 123 377 123 422 123 c 0,40,41
EndSplineSet
EndChar

StartChar: ordfeminine
Encoding: 170 170 108
Width: 434
GlyphClass: 1
Flags: W
LayerCount: 2
Fore
SplineSet
167 346 m 0,0,1
 209 346 209 346 246 363 c 128,-1,2
 283 380 283 380 308 411 c 1,3,-1
 308 353 l 1,4,-1
 357 353 l 1,5,-1
 357 569 l 2,6,7
 357 637 357 637 317 673.5 c 128,-1,8
 277 710 277 710 208 710 c 0,9,10
 173 710 173 710 138.5 698.5 c 128,-1,11
 104 687 104 687 69 664 c 1,12,-1
 89 628 l 1,13,14
 119 648 119 648 147.5 658.5 c 128,-1,15
 176 669 176 669 203 669 c 0,16,17
 249 669 249 669 274 643.5 c 128,-1,18
 299 618 299 618 299 575 c 2,19,-1
 299 547 l 1,20,21
 278 555 278 555 251 560 c 128,-1,22
 224 565 224 565 197 565 c 0,23,24
 131 565 131 565 89.5 534.5 c 128,-1,25
 48 504 48 504 48 456 c 0,26,27
 48 433 48 433 57 413 c 128,-1,28
 66 393 66 393 82 378 c 128,-1,29
 98 363 98 363 120 354.5 c 128,-1,30
 142 346 142 346 167 346 c 0,0,1
182 390 m 0,31,32
 148 390 148 390 125.5 410.5 c 128,-1,33
 103 431 103 431 103 460 c 0,34,35
 103 492 103 492 131.5 510 c 128,-1,36
 160 528 160 528 206 528 c 0,37,38
 230 528 230 528 254 524.5 c 128,-1,39
 278 521 278 521 299 512 c 1,40,-1
 299 460 l 2,41,42
 299 454 299 454 296 447 c 128,-1,43
 293 440 293 440 287 433 c 0,44,45
 272 414 272 414 243.5 402 c 128,-1,46
 215 390 215 390 182 390 c 0,31,32
EndSplineSet
EndChar

StartChar: guillemotleft
Encoding: 171 171 109
Width: 570
GlyphClass: 1
Flags: W
LayerCount: 2
Fore
SplineSet
41 239 m 1,0,-1
 288 67 l 1,1,-1
 288 123 l 1,2,-1
 94 259 l 1,3,-1
 288 396 l 1,4,-1
 288 453 l 1,5,-1
 41 276 l 1,6,-1
 41 239 l 1,0,-1
259 239 m 1,7,-1
 506 67 l 1,8,-1
 506 123 l 1,9,-1
 312 259 l 1,10,-1
 506 396 l 1,11,-1
 506 453 l 1,12,-1
 259 276 l 1,13,-1
 259 239 l 1,7,-1
EndSplineSet
EndChar

StartChar: logicalnot
Encoding: 172 172 110
Width: 581
GlyphClass: 1
Flags: W
LayerCount: 2
Fore
SplineSet
74 363 m 1,0,-1
 74 303 l 1,1,-1
 453 303 l 1,2,-1
 453 127 l 1,3,-1
 511 127 l 1,4,-1
 511 363 l 1,5,-1
 74 363 l 1,0,-1
EndSplineSet
EndChar

StartChar: uni00AD
Encoding: 173 173 111
Width: 568
GlyphClass: 1
Flags: W
LayerCount: 2
Fore
SplineSet
503 242 m 1,0,-1
 503 302 l 1,1,-1
 66 302 l 1,2,-1
 66 242 l 1,3,-1
 503 242 l 1,0,-1
EndSplineSet
EndChar

StartChar: registered
Encoding: 174 174 112
Width: 832
GlyphClass: 1
Flags: W
LayerCount: 2
Fore
SplineSet
415 -7 m 0,0,1
 495 -7 495 -7 562 20.5 c 128,-1,2
 629 48 629 48 678.5 96.5 c 128,-1,3
 728 145 728 145 756 211 c 128,-1,4
 784 277 784 277 784 355 c 0,5,6
 784 432 784 432 756 498 c 128,-1,7
 728 564 728 564 678.5 612 c 128,-1,8
 629 660 629 660 562 687.5 c 128,-1,9
 495 715 495 715 415 715 c 0,10,11
 336 715 336 715 269 687.5 c 128,-1,12
 202 660 202 660 153 612 c 128,-1,13
 104 564 104 564 76 498 c 128,-1,14
 48 432 48 432 48 355 c 0,15,16
 48 277 48 277 76 211 c 128,-1,17
 104 145 104 145 153 96.5 c 128,-1,18
 202 48 202 48 269 20.5 c 128,-1,19
 336 -7 336 -7 415 -7 c 0,0,1
415 28 m 0,20,21
 344 28 344 28 284 53 c 128,-1,22
 224 78 224 78 180 122 c 128,-1,23
 136 166 136 166 111.5 226 c 128,-1,24
 87 286 87 286 87 355 c 256,25,26
 87 424 87 424 111.5 483 c 128,-1,27
 136 542 136 542 180 585.5 c 128,-1,28
 224 629 224 629 284 654 c 128,-1,29
 344 679 344 679 415 679 c 0,30,31
 487 679 487 679 547 654 c 128,-1,32
 607 629 607 629 651 585.5 c 128,-1,33
 695 542 695 542 720 482.5 c 128,-1,34
 745 423 745 423 745 354 c 0,35,36
 745 282 745 282 719.5 222 c 128,-1,37
 694 162 694 162 649.5 119 c 128,-1,38
 605 76 605 76 545 52 c 128,-1,39
 485 28 485 28 415 28 c 0,20,21
264 127 m 1,40,-1
 314 127 l 1,41,-1
 314 296 l 1,42,-1
 433 296 l 1,43,-1
 540 127 l 1,44,-1
 597 127 l 1,45,-1
 485 302 l 1,46,47
 508 306 508 306 527 319 c 128,-1,48
 546 332 546 332 559.5 350 c 128,-1,49
 573 368 573 368 580.5 390.5 c 128,-1,50
 588 413 588 413 588 438 c 0,51,52
 588 464 588 464 578.5 489.5 c 128,-1,53
 569 515 569 515 551 535.5 c 128,-1,54
 533 556 533 556 508.5 568 c 128,-1,55
 484 580 484 580 454 580 c 2,56,-1
 264 580 l 1,57,-1
 264 127 l 1,40,-1
314 340 m 1,58,-1
 314 534 l 1,59,-1
 450 534 l 2,60,61
 470 534 470 534 486 527 c 128,-1,62
 502 520 502 520 514 507 c 128,-1,63
 526 494 526 494 532.5 476 c 128,-1,64
 539 458 539 458 539 438 c 0,65,66
 539 417 539 417 533.5 399.5 c 128,-1,67
 528 382 528 382 517 369 c 128,-1,68
 506 356 506 356 490.5 348 c 128,-1,69
 475 340 475 340 454 340 c 2,70,-1
 314 340 l 1,58,-1
EndSplineSet
EndChar

StartChar: degree
Encoding: 176 176 114
Width: 265
GlyphClass: 1
Flags: W
LayerCount: 2
Fore
SplineSet
50 643 m 0,0,1
 50 607 50 607 74 583 c 128,-1,2
 98 559 98 559 133 559 c 256,3,4
 168 559 168 559 191.5 583 c 128,-1,5
 215 607 215 607 215 643 c 0,6,7
 215 677 215 677 191.5 700.5 c 128,-1,8
 168 724 168 724 133 724 c 256,9,10
 98 724 98 724 74 700.5 c 128,-1,11
 50 677 50 677 50 643 c 0,0,1
101 673 m 0,12,13
 107 680 107 680 115 683 c 128,-1,14
 123 686 123 686 133 686 c 0,15,16
 141 686 141 686 150 683 c 128,-1,17
 159 680 159 680 164 673 c 0,18,19
 170 667 170 667 173.5 659 c 128,-1,20
 177 651 177 651 177 642 c 256,21,22
 177 633 177 633 173.5 624.5 c 128,-1,23
 170 616 170 616 164 611 c 0,24,25
 159 605 159 605 150 601 c 128,-1,26
 141 597 141 597 133 597 c 0,27,28
 123 597 123 597 115 601 c 128,-1,29
 107 605 107 605 101 611 c 0,30,31
 95 616 95 616 91.5 624.5 c 128,-1,32
 88 633 88 633 88 642 c 256,33,34
 88 651 88 651 91.5 659 c 128,-1,35
 95 667 95 667 101 673 c 0,12,13
EndSplineSet
EndChar

StartChar: plusminus
Encoding: 177 177 115
Width: 467
GlyphClass: 1
Flags: W
LayerCount: 2
Fore
SplineSet
394 62 m 1,0,-1
 394 117 l 1,1,-1
 73 117 l 1,2,-1
 73 62 l 1,3,-1
 394 62 l 1,0,-1
264 391 m 1,4,-1
 264 532 l 1,5,-1
 204 532 l 1,6,-1
 204 391 l 1,7,-1
 73 391 l 1,8,-1
 73 336 l 1,9,-1
 204 336 l 1,10,-1
 204 196 l 1,11,-1
 264 196 l 1,12,-1
 264 336 l 1,13,-1
 394 336 l 1,14,-1
 394 391 l 1,15,-1
 264 391 l 1,4,-1
EndSplineSet
EndChar

StartChar: twosuperior
Encoding: 178 178 116
Width: 387
GlyphClass: 1
Flags: W
LayerCount: 2
Fore
SplineSet
343 408 m 1,0,-1
 343 450 l 1,1,-1
 89 450 l 1,2,3
 89 464 89 464 94.5 480 c 128,-1,4
 100 496 100 496 114 511.5 c 128,-1,5
 128 527 128 527 150.5 542 c 128,-1,6
 173 557 173 557 207 568 c 0,7,8
 227 574 227 574 251.5 583 c 128,-1,9
 276 592 276 592 297.5 606 c 128,-1,10
 319 620 319 620 333 641 c 128,-1,11
 347 662 347 662 347 693 c 0,12,13
 347 718 347 718 338 739.5 c 128,-1,14
 329 761 329 761 311 777 c 128,-1,15
 293 793 293 793 266 802 c 128,-1,16
 239 811 239 811 203 811 c 0,17,18
 166 811 166 811 137 802.5 c 128,-1,19
 108 794 108 794 88 782.5 c 128,-1,20
 68 771 68 771 56 760 c 128,-1,21
 44 749 44 749 40 743 c 1,22,-1
 69 713 l 1,23,24
 77 721 77 721 88 731 c 128,-1,25
 99 741 99 741 115 749.5 c 128,-1,26
 131 758 131 758 151.5 763.5 c 128,-1,27
 172 769 172 769 197 769 c 0,28,29
 248 769 248 769 273.5 747 c 128,-1,30
 299 725 299 725 299 694 c 0,31,32
 299 670 299 670 286 654.5 c 128,-1,33
 273 639 273 639 253.5 627.5 c 128,-1,34
 234 616 234 616 209.5 607.5 c 128,-1,35
 185 599 185 599 162 591 c 0,36,37
 130 579 130 579 106.5 563 c 128,-1,38
 83 547 83 547 67.5 525.5 c 128,-1,39
 52 504 52 504 44 475 c 128,-1,40
 36 446 36 446 36 408 c 1,41,-1
 343 408 l 1,0,-1
EndSplineSet
EndChar

StartChar: threesuperior
Encoding: 179 179 117
Width: 389
GlyphClass: 1
Flags: W
LayerCount: 2
Fore
SplineSet
190 402 m 0,0,1
 222 402 222 402 251 409.5 c 128,-1,2
 280 417 280 417 302.5 431 c 128,-1,3
 325 445 325 445 337.5 465.5 c 128,-1,4
 350 486 350 486 350 511 c 0,5,6
 350 550 350 550 322.5 578 c 128,-1,7
 295 606 295 606 248 613 c 1,8,9
 293 623 293 623 316 644.5 c 128,-1,10
 339 666 339 666 339 701 c 0,11,12
 339 725 339 725 327.5 745 c 128,-1,13
 316 765 316 765 295 779.5 c 128,-1,14
 274 794 274 794 246 802.5 c 128,-1,15
 218 811 218 811 185 811 c 0,16,17
 162 811 162 811 139.5 807 c 128,-1,18
 117 803 117 803 98 794.5 c 128,-1,19
 79 786 79 786 64 774.5 c 128,-1,20
 49 763 49 763 39 748 c 1,21,-1
 69 715 l 1,22,23
 84 740 84 740 114 755.5 c 128,-1,24
 144 771 144 771 185 771 c 0,25,26
 207 771 207 771 226.5 766 c 128,-1,27
 246 761 246 761 260.5 751.5 c 128,-1,28
 275 742 275 742 284 728.5 c 128,-1,29
 293 715 293 715 293 699 c 0,30,31
 293 665 293 665 257 648.5 c 128,-1,32
 221 632 221 632 157 632 c 2,33,-1
 135 632 l 1,34,-1
 135 592 l 1,35,-1
 157 592 l 2,36,37
 226 592 226 592 266 572.5 c 128,-1,38
 306 553 306 553 306 517 c 0,39,40
 306 485 306 485 272.5 465.5 c 128,-1,41
 239 446 239 446 189 446 c 0,42,43
 162 446 162 446 139 452.5 c 128,-1,44
 116 459 116 459 99 470 c 128,-1,45
 82 481 82 481 72.5 494 c 128,-1,46
 63 507 63 507 62 519 c 1,47,-1
 35 491 l 1,48,49
 43 451 43 451 85 426.5 c 128,-1,50
 127 402 127 402 190 402 c 0,0,1
EndSplineSet
EndChar

StartChar: uni00B5
Encoding: 181 181 119
Width: 619
GlyphClass: 1
Flags: W
LayerCount: 2
Fore
SplineSet
82 -212 m 1,0,-1
 148 -212 l 1,1,-1
 144 76 l 1,2,3
 151 57 151 57 162 41 c 128,-1,4
 173 25 173 25 188.5 13.5 c 128,-1,5
 204 2 204 2 224 -4 c 128,-1,6
 244 -10 244 -10 269 -10 c 0,7,8
 300 -10 300 -10 330.5 0 c 128,-1,9
 361 10 361 10 387 27.5 c 128,-1,10
 413 45 413 45 434.5 68.5 c 128,-1,11
 456 92 456 92 469 119 c 1,12,-1
 477 0 l 1,13,-1
 527 0 l 1,14,-1
 527 521 l 1,15,-1
 461 521 l 1,16,-1
 461 193 l 1,17,18
 449 160 449 160 429.5 133 c 128,-1,19
 410 106 410 106 385 87 c 128,-1,20
 360 68 360 68 331 57.5 c 128,-1,21
 302 47 302 47 272 47 c 0,22,23
 209 47 209 47 178.5 91.5 c 128,-1,24
 148 136 148 136 148 227 c 2,25,-1
 148 521 l 1,26,-1
 82 521 l 1,27,-1
 82 -212 l 1,0,-1
EndSplineSet
EndChar

StartChar: paragraph
Encoding: 182 182 120
Width: 600
GlyphClass: 1
Flags: W
LayerCount: 2
Fore
SplineSet
34 470 m 0,0,1
 34 415 34 415 52 371 c 128,-1,2
 70 327 70 327 104 296.5 c 128,-1,3
 138 266 138 266 186.5 249.5 c 128,-1,4
 235 233 235 233 295 232 c 1,5,-1
 295 -80 l 1,6,-1
 352 -80 l 1,7,-1
 352 232 l 1,8,-1
 427 232 l 1,9,-1
 427 -80 l 1,10,-1
 484 -80 l 1,11,-1
 484 658 l 1,12,-1
 554 658 l 1,13,-1
 554 710 l 1,14,-1
 316 710 l 2,15,16
 182 710 182 710 108 646.5 c 128,-1,17
 34 583 34 583 34 470 c 0,0,1
91 471 m 0,18,19
 91 558 91 558 143 607.5 c 128,-1,20
 195 657 195 657 295 658 c 1,21,-1
 295 284 l 1,22,23
 253 286 253 286 216 298 c 128,-1,24
 179 310 179 310 151 333 c 128,-1,25
 123 356 123 356 107 390 c 128,-1,26
 91 424 91 424 91 471 c 0,18,19
427 284 m 1,27,-1
 352 284 l 1,28,-1
 352 658 l 1,29,-1
 427 658 l 1,30,-1
 427 284 l 1,27,-1
EndSplineSet
EndChar

StartChar: onesuperior
Encoding: 185 185 123
Width: 271
GlyphClass: 1
Flags: W
LayerCount: 2
Fore
SplineSet
174 450 m 1,0,-1
 174 811 l 1,1,-1
 130 811 l 1,2,3
 130 810 130 810 121 801 c 128,-1,4
 112 792 112 792 98 782 c 128,-1,5
 84 772 84 772 67 764 c 128,-1,6
 50 756 50 756 34 756 c 1,7,-1
 34 713 l 1,8,9
 46 713 46 713 61 718 c 128,-1,10
 76 723 76 723 89.5 730.5 c 128,-1,11
 103 738 103 738 114 746.5 c 128,-1,12
 125 755 125 755 130 761 c 1,13,-1
 130 450 l 1,14,-1
 49 450 l 1,15,-1
 49 407 l 1,16,-1
 249 407 l 1,17,-1
 249 450 l 1,18,-1
 174 450 l 1,0,-1
EndSplineSet
EndChar

StartChar: ordmasculine
Encoding: 186 186 124
Width: 449
GlyphClass: 1
Flags: W
LayerCount: 2
Fore
SplineSet
224 346 m 256,0,1
 264 346 264 346 297 361 c 128,-1,2
 330 376 330 376 354 401 c 128,-1,3
 378 426 378 426 391 459 c 128,-1,4
 404 492 404 492 404 528 c 0,5,6
 404 565 404 565 391 598 c 128,-1,7
 378 631 378 631 354 656 c 128,-1,8
 330 681 330 681 297 695.5 c 128,-1,9
 264 710 264 710 224 710 c 256,10,11
 184 710 184 710 151 695.5 c 128,-1,12
 118 681 118 681 94.5 656 c 128,-1,13
 71 631 71 631 57.5 598 c 128,-1,14
 44 565 44 565 44 528 c 0,15,16
 44 492 44 492 57.5 459 c 128,-1,17
 71 426 71 426 94.5 401 c 128,-1,18
 118 376 118 376 151 361 c 128,-1,19
 184 346 184 346 224 346 c 256,0,1
100 527 m 256,20,21
 100 555 100 555 109.5 580 c 128,-1,22
 119 605 119 605 136 623 c 128,-1,23
 153 641 153 641 175.5 651.5 c 128,-1,24
 198 662 198 662 224 662 c 256,25,26
 250 662 250 662 272.5 652 c 128,-1,27
 295 642 295 642 312 624 c 128,-1,28
 329 606 329 606 339 581.5 c 128,-1,29
 349 557 349 557 349 529 c 0,30,31
 349 500 349 500 339 475.5 c 128,-1,32
 329 451 329 451 312 433 c 128,-1,33
 295 415 295 415 272.5 404 c 128,-1,34
 250 393 250 393 224 393 c 256,35,36
 198 393 198 393 175.5 403.5 c 128,-1,37
 153 414 153 414 136 432 c 128,-1,38
 119 450 119 450 109.5 474.5 c 128,-1,39
 100 499 100 499 100 527 c 256,20,21
EndSplineSet
EndChar

StartChar: guillemotright
Encoding: 187 187 125
Width: 570
GlyphClass: 1
Flags: W
LayerCount: 2
Fore
SplineSet
529 276 m 1,0,-1
 282 453 l 1,1,-1
 282 396 l 1,2,-1
 476 259 l 1,3,-1
 282 123 l 1,4,-1
 282 67 l 1,5,-1
 529 239 l 1,6,-1
 529 276 l 1,0,-1
311 276 m 1,7,-1
 64 453 l 1,8,-1
 64 396 l 1,9,-1
 258 259 l 1,10,-1
 64 123 l 1,11,-1
 64 67 l 1,12,-1
 311 239 l 1,13,-1
 311 276 l 1,7,-1
EndSplineSet
EndChar

StartChar: onehalf
Encoding: 189 189 127
Width: 803
GlyphClass: 1
Flags: W
LayerCount: 2
Fore
SplineSet
174 370 m 1,0,-1
 174 731 l 1,1,-1
 130 731 l 1,2,3
 130 730 130 730 121 721 c 128,-1,4
 112 712 112 712 98 702 c 128,-1,5
 84 692 84 692 67 684 c 128,-1,6
 50 676 50 676 34 676 c 1,7,-1
 34 633 l 1,8,9
 46 633 46 633 61 638 c 128,-1,10
 76 643 76 643 89.5 650.5 c 128,-1,11
 103 658 103 658 114 666.5 c 128,-1,12
 125 675 125 675 130 681 c 1,13,-1
 130 370 l 1,14,-1
 49 370 l 1,15,-1
 49 327 l 1,16,-1
 249 327 l 1,17,-1
 249 370 l 1,18,-1
 174 370 l 1,0,-1
87 -4 m 1,19,-1
 361 344 l 1,20,-1
 639 685 l 1,21,-1
 605 714 l 1,22,-1
 333 367 l 1,23,-1
 54 26 l 1,24,-1
 87 -4 l 1,19,-1
762 0 m 1,25,-1
 762 42 l 1,26,-1
 510 42 l 1,27,28
 510 56 510 56 515.5 72 c 128,-1,29
 521 88 521 88 534 103.5 c 128,-1,30
 547 119 547 119 569.5 134 c 128,-1,31
 592 149 592 149 625 160 c 0,32,33
 645 166 645 166 669 175 c 128,-1,34
 693 184 693 184 713 198 c 128,-1,35
 733 212 733 212 747 233 c 128,-1,36
 761 254 761 254 761 284 c 0,37,38
 761 309 761 309 752.5 331 c 128,-1,39
 744 353 744 353 726 369 c 128,-1,40
 708 385 708 385 682 394 c 128,-1,41
 656 403 656 403 621 403 c 0,42,43
 585 403 585 403 556.5 394.5 c 128,-1,44
 528 386 528 386 508.5 374.5 c 128,-1,45
 489 363 489 363 477.5 352 c 128,-1,46
 466 341 466 341 462 336 c 1,47,-1
 490 305 l 1,48,49
 497 314 497 314 508 323.5 c 128,-1,50
 519 333 519 333 535 341.5 c 128,-1,51
 551 350 551 350 570.5 355.5 c 128,-1,52
 590 361 590 361 615 361 c 0,53,54
 665 361 665 361 689.5 339 c 128,-1,55
 714 317 714 317 714 285 c 0,56,57
 714 262 714 262 701.5 246.5 c 128,-1,58
 689 231 689 231 669.5 219.5 c 128,-1,59
 650 208 650 208 626.5 200 c 128,-1,60
 603 192 603 192 581 183 c 0,61,62
 550 171 550 171 527 155 c 128,-1,63
 504 139 504 139 488.5 117.5 c 128,-1,64
 473 96 473 96 465.5 67 c 128,-1,65
 458 38 458 38 458 0 c 1,66,-1
 762 0 l 1,25,-1
EndSplineSet
EndChar

StartChar: questiondown
Encoding: 191 191 129
Width: 469
GlyphClass: 1
Flags: W
LayerCount: 2
Fore
SplineSet
260 306 m 1,0,1
 260 269 260 269 252.5 245 c 128,-1,2
 245 221 245 221 232.5 204.5 c 128,-1,3
 220 188 220 188 203.5 177 c 128,-1,4
 187 166 187 166 170 156 c 0,5,6
 144 142 144 142 119.5 127.5 c 128,-1,7
 95 113 95 113 76 93 c 128,-1,8
 57 73 57 73 45 45.5 c 128,-1,9
 33 18 33 18 33 -23 c 0,10,11
 33 -71 33 -71 49.5 -106.5 c 128,-1,12
 66 -142 66 -142 93.5 -166 c 128,-1,13
 121 -190 121 -190 156.5 -201.5 c 128,-1,14
 192 -213 192 -213 228 -213 c 0,15,16
 261 -213 261 -213 292.5 -204.5 c 128,-1,17
 324 -196 324 -196 351.5 -179.5 c 128,-1,18
 379 -163 379 -163 401.5 -139 c 128,-1,19
 424 -115 424 -115 437 -84 c 1,20,-1
 392 -55 l 1,21,22
 381 -77 381 -77 364 -96 c 128,-1,23
 347 -115 347 -115 326 -128.5 c 128,-1,24
 305 -142 305 -142 280.5 -150 c 128,-1,25
 256 -158 256 -158 229 -158 c 0,26,27
 203 -158 203 -158 178.5 -149.5 c 128,-1,28
 154 -141 154 -141 134.5 -125 c 128,-1,29
 115 -109 115 -109 103.5 -84 c 128,-1,30
 92 -59 92 -59 92 -26 c 0,31,32
 92 11 92 11 106.5 36 c 128,-1,33
 121 61 121 61 142 79 c 128,-1,34
 163 97 163 97 187 109.5 c 128,-1,35
 211 122 211 122 231 134 c 0,36,37
 253 147 253 147 269 162.5 c 128,-1,38
 285 178 285 178 295.5 198.5 c 128,-1,39
 306 219 306 219 311 245.5 c 128,-1,40
 316 272 316 272 316 306 c 1,41,-1
 260 306 l 1,0,1
336 466 m 256,42,43
 336 486 336 486 321.5 500 c 128,-1,44
 307 514 307 514 287 514 c 256,45,46
 267 514 267 514 253 500 c 128,-1,47
 239 486 239 486 239 466 c 256,48,49
 239 446 239 446 253 431.5 c 128,-1,50
 267 417 267 417 287 417 c 256,51,52
 307 417 307 417 321.5 431.5 c 128,-1,53
 336 446 336 446 336 466 c 256,42,43
EndSplineSet
EndChar

StartChar: AE
Encoding: 198 198 136
Width: 961
GlyphClass: 1
Flags: W
LayerCount: 2
Fore
SplineSet
-26 0 m 1,0,-1
 47 0 l 1,1,-1
 190 223 l 1,2,-1
 449 223 l 1,3,-1
 449 0 l 1,4,-1
 920 0 l 1,5,-1
 920 60 l 1,6,-1
 515 60 l 1,7,-1
 515 332 l 1,8,-1
 857 332 l 1,9,-1
 857 392 l 1,10,-1
 515 392 l 1,11,-1
 515 650 l 1,12,-1
 911 650 l 1,13,-1
 911 710 l 1,14,-1
 432 710 l 1,15,-1
 -26 0 l 1,0,-1
220 283 m 1,16,-1
 445 629 l 1,17,-1
 445 283 l 1,18,-1
 220 283 l 1,16,-1
EndSplineSet
EndChar

StartChar: Idieresis
Encoding: 207 207 145
Width: 246
GlyphClass: 1
Flags: W
LayerCount: 2
Fore
SplineSet
156 0 m 1,0,-1
 156 710 l 1,1,-1
 90 710 l 1,2,-1
 90 0 l 1,3,-1
 156 0 l 1,0,-1
13 868 m 256,4,5
 13 848 13 848 26 833.5 c 128,-1,6
 39 819 39 819 57 819 c 256,7,8
 75 819 75 819 88 833.5 c 128,-1,9
 101 848 101 848 101 868 c 256,10,11
 101 888 101 888 88 902 c 128,-1,12
 75 916 75 916 57 916 c 256,13,14
 39 916 39 916 26 902 c 128,-1,15
 13 888 13 888 13 868 c 256,4,5
145 868 m 256,16,17
 145 848 145 848 158 833.5 c 128,-1,18
 171 819 171 819 189 819 c 256,19,20
 207 819 207 819 219.5 833.5 c 128,-1,21
 232 848 232 848 232 868 c 256,22,23
 232 888 232 888 219.5 902 c 128,-1,24
 207 916 207 916 189 916 c 256,25,26
 171 916 171 916 158 902 c 128,-1,27
 145 888 145 888 145 868 c 256,16,17
EndSplineSet
EndChar

StartChar: Eth
Encoding: 208 208 146
Width: 721
GlyphClass: 1
Flags: W
LayerCount: 2
Fore
SplineSet
334 331 m 1,0,-1
 334 383 l 1,1,-1
 34 383 l 1,2,-1
 34 331 l 1,3,-1
 334 331 l 1,0,-1
336 0 m 2,4,5
 414 0 414 0 476.5 25.5 c 128,-1,6
 539 51 539 51 583.5 97.5 c 128,-1,7
 628 144 628 144 652 209.5 c 128,-1,8
 676 275 676 275 676 356 c 0,9,10
 676 430 676 430 654.5 494.5 c 128,-1,11
 633 559 633 559 590.5 607 c 128,-1,12
 548 655 548 655 484.5 682.5 c 128,-1,13
 421 710 421 710 336 710 c 2,14,-1
 96 710 l 1,15,-1
 96 0 l 1,16,-1
 336 0 l 2,4,5
608 356 m 0,17,18
 608 293 608 293 590.5 238.5 c 128,-1,19
 573 184 573 184 539 144.5 c 128,-1,20
 505 105 505 105 454 82.5 c 128,-1,21
 403 60 403 60 336 60 c 2,22,-1
 163 60 l 1,23,-1
 163 650 l 1,24,-1
 336 650 l 2,25,26
 401 650 401 650 452 628 c 128,-1,27
 503 606 503 606 538 567 c 128,-1,28
 573 528 573 528 590.5 474 c 128,-1,29
 608 420 608 420 608 356 c 0,17,18
EndSplineSet
EndChar

StartChar: multiply
Encoding: 215 215 153
Width: 456
GlyphClass: 1
Flags: W
LayerCount: 2
Fore
SplineSet
270 272 m 1,0,-1
 391 393 l 1,1,-1
 349 436 l 1,2,-1
 228 314 l 1,3,-1
 108 435 l 1,4,-1
 65 393 l 1,5,-1
 186 272 l 1,6,-1
 64 151 l 1,7,-1
 106 108 l 1,8,-1
 228 231 l 1,9,-1
 350 108 l 1,10,-1
 393 150 l 1,11,-1
 270 272 l 1,0,-1
EndSplineSet
EndChar

StartChar: Thorn
Encoding: 222 222 160
Width: 602
GlyphClass: 1
Flags: W
LayerCount: 2
Fore
SplineSet
365 569 m 2,0,-1
 156 569 l 1,1,-1
 156 710 l 1,2,-1
 90 710 l 1,3,-1
 90 0 l 1,4,-1
 156 0 l 1,5,-1
 156 122 l 1,6,-1
 371 122 l 2,7,8
 417 122 417 122 454.5 140.5 c 128,-1,9
 492 159 492 159 518.5 190 c 128,-1,10
 545 221 545 221 560 261.5 c 128,-1,11
 575 302 575 302 575 346 c 0,12,13
 575 387 575 387 559 427 c 128,-1,14
 543 467 543 467 515.5 498.5 c 128,-1,15
 488 530 488 530 449.5 549.5 c 128,-1,16
 411 569 411 569 365 569 c 2,0,-1
368 182 m 2,17,-1
 156 182 l 1,18,-1
 156 509 l 1,19,-1
 362 509 l 2,20,21
 392 509 392 509 418.5 495.5 c 128,-1,22
 445 482 445 482 465 459.5 c 128,-1,23
 485 437 485 437 496.5 407.5 c 128,-1,24
 508 378 508 378 508 346 c 256,25,26
 508 314 508 314 498.5 285 c 128,-1,27
 489 256 489 256 471 233 c 128,-1,28
 453 210 453 210 427 196 c 128,-1,29
 401 182 401 182 368 182 c 2,17,-1
EndSplineSet
EndChar

StartChar: germandbls
Encoding: 223 223 161
Width: 551
GlyphClass: 1
Flags: W
LayerCount: 2
Fore
SplineSet
237 -6 m 1,0,1
 299 -4 299 -4 350 10.5 c 128,-1,2
 401 25 401 25 437 51.5 c 128,-1,3
 473 78 473 78 492.5 117 c 128,-1,4
 512 156 512 156 512 206 c 0,5,6
 512 281 512 281 471 334 c 128,-1,7
 430 387 430 387 354 403 c 1,8,9
 376 408 376 408 395.5 422 c 128,-1,10
 415 436 415 436 429.5 457 c 128,-1,11
 444 478 444 478 452.5 502.5 c 128,-1,12
 461 527 461 527 461 554 c 0,13,14
 461 589 461 589 446.5 618.5 c 128,-1,15
 432 648 432 648 407 669.5 c 128,-1,16
 382 691 382 691 348 702.5 c 128,-1,17
 314 714 314 714 275 714 c 0,18,19
 231 714 231 714 194.5 699.5 c 128,-1,20
 158 685 158 685 131.5 658.5 c 128,-1,21
 105 632 105 632 90 595.5 c 128,-1,22
 75 559 75 559 75 514 c 2,23,-1
 75 0 l 1,24,-1
 138 0 l 1,25,-1
 138 505 l 2,26,27
 138 537 138 537 146.5 564.5 c 128,-1,28
 155 592 155 592 172 612.5 c 128,-1,29
 189 633 189 633 214 645 c 128,-1,30
 239 657 239 657 272 657 c 0,31,32
 298 657 298 657 320.5 649 c 128,-1,33
 343 641 343 641 360.5 627 c 128,-1,34
 378 613 378 613 388 592 c 128,-1,35
 398 571 398 571 398 544 c 0,36,37
 398 519 398 519 389 498 c 128,-1,38
 380 477 380 477 363.5 461.5 c 128,-1,39
 347 446 347 446 324.5 437.5 c 128,-1,40
 302 429 302 429 275 429 c 2,41,-1
 257 429 l 1,42,-1
 257 369 l 1,43,-1
 276 369 l 2,44,45
 314 369 314 369 344.5 357.5 c 128,-1,46
 375 346 375 346 397.5 325.5 c 128,-1,47
 420 305 420 305 432.5 275.5 c 128,-1,48
 445 246 445 246 445 211 c 0,49,50
 445 172 445 172 430.5 142.5 c 128,-1,51
 416 113 416 113 388.5 94 c 128,-1,52
 361 75 361 75 323 65 c 128,-1,53
 285 55 285 55 237 54 c 1,54,-1
 237 -6 l 1,0,1
EndSplineSet
EndChar

StartChar: ae
Encoding: 230 230 168
Width: 931
GlyphClass: 1
Flags: W
LayerCount: 2
Fore
SplineSet
205 -10 m 0,0,1
 235 -10 235 -10 268 -3.5 c 128,-1,2
 301 3 301 3 331.5 17 c 128,-1,3
 362 31 362 31 388 53 c 128,-1,4
 414 75 414 75 431 106 c 1,5,6
 466 53 466 53 521 21.5 c 128,-1,7
 576 -10 576 -10 645 -10 c 0,8,9
 683 -10 683 -10 717.5 0 c 128,-1,10
 752 10 752 10 781 27 c 128,-1,11
 810 44 810 44 832 67.5 c 128,-1,12
 854 91 854 91 866 119 c 1,13,-1
 809 135 l 1,14,15
 800 114 800 114 783.5 96.5 c 128,-1,16
 767 79 767 79 745 67 c 128,-1,17
 723 55 723 55 698.5 48 c 128,-1,18
 674 41 674 41 648 41 c 0,19,20
 609 41 609 41 573.5 55.5 c 128,-1,21
 538 70 538 70 511 96 c 128,-1,22
 484 122 484 122 467 158 c 128,-1,23
 450 194 450 194 447 237 c 1,24,-1
 900 237 l 1,25,26
 901 241 901 241 901.5 248 c 128,-1,27
 902 255 902 255 902 260 c 0,28,29
 902 316 902 316 882 365 c 128,-1,30
 862 414 862 414 828 450.5 c 128,-1,31
 794 487 794 487 746 508.5 c 128,-1,32
 698 530 698 530 642 530 c 0,33,34
 578 530 578 530 526.5 501 c 128,-1,35
 475 472 475 472 442 425 c 1,36,37
 419 475 419 475 373 502.5 c 128,-1,38
 327 530 327 530 262 530 c 0,39,40
 215 530 215 530 166.5 513 c 128,-1,41
 118 496 118 496 67 462 c 1,42,-1
 90 418 l 1,43,44
 134 449 134 449 176 464.5 c 128,-1,45
 218 480 218 480 257 480 c 0,46,47
 317 480 317 480 354.5 449.5 c 128,-1,48
 392 419 392 419 402 365 c 1,49,50
 394 348 394 348 390.5 328 c 128,-1,51
 387 308 387 308 385 288 c 1,52,53
 355 297 355 297 320 302.5 c 128,-1,54
 285 308 285 308 250 308 c 0,55,56
 203 308 203 308 162.5 296.5 c 128,-1,57
 122 285 122 285 93.5 264.5 c 128,-1,58
 65 244 65 244 49 215.5 c 128,-1,59
 33 187 33 187 33 152 c 0,60,61
 33 118 33 118 46.5 88.5 c 128,-1,62
 60 59 60 59 83 37 c 128,-1,63
 106 15 106 15 137.5 2.5 c 128,-1,64
 169 -10 169 -10 205 -10 c 0,0,1
220 41 m 0,65,66
 194 41 194 41 171 50 c 128,-1,67
 148 59 148 59 131.5 74.5 c 128,-1,68
 115 90 115 90 105 111 c 128,-1,69
 95 132 95 132 95 156 c 0,70,71
 95 181 95 181 107 201.5 c 128,-1,72
 119 222 119 222 140.5 236 c 128,-1,73
 162 250 162 250 192.5 258 c 128,-1,74
 223 266 223 266 259 266 c 0,75,76
 291 266 291 266 323 261 c 128,-1,77
 355 256 355 256 385 247 c 1,78,79
 386 223 386 223 391 196 c 128,-1,80
 396 169 396 169 406 149 c 1,81,82
 405 141 405 141 400.5 131.5 c 128,-1,83
 396 122 396 122 389 114 c 0,84,85
 365 81 365 81 320 61 c 128,-1,86
 275 41 275 41 220 41 c 0,65,66
446 281 m 1,87,88
 448 324 448 324 464 360.5 c 128,-1,89
 480 397 480 397 506 423.5 c 128,-1,90
 532 450 532 450 566.5 464.5 c 128,-1,91
 601 479 601 479 641 479 c 256,92,93
 681 479 681 479 716 464.5 c 128,-1,94
 751 450 751 450 777 423.5 c 128,-1,95
 803 397 803 397 819.5 361 c 128,-1,96
 836 325 836 325 839 281 c 1,97,-1
 446 281 l 1,87,88
EndSplineSet
EndChar

StartChar: idieresis
Encoding: 239 239 177
Width: 216
GlyphClass: 1
Flags: W
LayerCount: 2
Fore
SplineSet
141 0 m 1,0,-1
 141 521 l 1,1,-1
 75 521 l 1,2,-1
 75 0 l 1,3,-1
 141 0 l 1,0,-1
4 679 m 256,4,5
 4 659 4 659 16 644.5 c 128,-1,6
 28 630 28 630 46 630 c 0,7,8
 63 630 63 630 75 644.5 c 128,-1,9
 87 659 87 659 87 679 c 256,10,11
 87 699 87 699 75 713 c 128,-1,12
 63 727 63 727 46 727 c 0,13,14
 28 727 28 727 16 713 c 128,-1,15
 4 699 4 699 4 679 c 256,4,5
128 679 m 256,16,17
 128 659 128 659 140 644.5 c 128,-1,18
 152 630 152 630 170 630 c 0,19,20
 187 630 187 630 199 644.5 c 128,-1,21
 211 659 211 659 211 679 c 256,22,23
 211 699 211 699 199 713 c 128,-1,24
 187 727 187 727 170 727 c 0,25,26
 152 727 152 727 140 713 c 128,-1,27
 128 699 128 699 128 679 c 256,16,17
EndSplineSet
EndChar

StartChar: eth
Encoding: 240 240 178
Width: 602
GlyphClass: 1
Flags: W
LayerCount: 2
Fore
SplineSet
558 275 m 0,0,1
 558 330 558 330 546.5 390 c 128,-1,2
 535 450 535 450 504 509 c 128,-1,3
 473 568 473 568 420 624.5 c 128,-1,4
 367 681 367 681 284 730 c 1,5,-1
 191 730 l 1,6,7
 274 684 274 684 328.5 637.5 c 128,-1,8
 383 591 383 591 417 544 c 128,-1,9
 451 497 451 497 467.5 450 c 128,-1,10
 484 403 484 403 491 355 c 1,11,12
 478 382 478 382 457 403.5 c 128,-1,13
 436 425 436 425 409.5 441 c 128,-1,14
 383 457 383 457 352 465.5 c 128,-1,15
 321 474 321 474 287 474 c 0,16,17
 236 474 236 474 191.5 454.5 c 128,-1,18
 147 435 147 435 114 402 c 128,-1,19
 81 369 81 369 61.5 325.5 c 128,-1,20
 42 282 42 282 42 233 c 0,21,22
 42 182 42 182 62 138 c 128,-1,23
 82 94 82 94 116.5 61 c 128,-1,24
 151 28 151 28 197.5 9 c 128,-1,25
 244 -10 244 -10 296 -10 c 0,26,27
 349 -10 349 -10 397 10.5 c 128,-1,28
 445 31 445 31 480.5 68.5 c 128,-1,29
 516 106 516 106 537 158.5 c 128,-1,30
 558 211 558 211 558 275 c 0,0,1
109 232 m 0,31,32
 109 271 109 271 124 305 c 128,-1,33
 139 339 139 339 165 364.5 c 128,-1,34
 191 390 191 390 226 404.5 c 128,-1,35
 261 419 261 419 301 419 c 0,36,37
 340 419 340 419 374.5 405 c 128,-1,38
 409 391 409 391 435 367.5 c 128,-1,39
 461 344 461 344 476 311.5 c 128,-1,40
 491 279 491 279 491 242 c 0,41,42
 491 202 491 202 476 167 c 128,-1,43
 461 132 461 132 434.5 105.5 c 128,-1,44
 408 79 408 79 373 63 c 128,-1,45
 338 47 338 47 298 47 c 0,46,47
 259 47 259 47 224.5 61.5 c 128,-1,48
 190 76 190 76 164.5 101 c 128,-1,49
 139 126 139 126 124 160 c 128,-1,50
 109 194 109 194 109 232 c 0,31,32
472 713 m 1,51,-1
 366 647 l 1,52,-1
 347 640 l 1,53,-1
 227 566 l 1,54,-1
 249 537 l 1,55,-1
 371 613 l 1,56,-1
 392 621 l 1,57,-1
 494 684 l 1,58,-1
 472 713 l 1,51,-1
EndSplineSet
EndChar

StartChar: divide
Encoding: 247 247 185
Width: 537
GlyphClass: 1
Flags: W
LayerCount: 2
Fore
SplineSet
470 254 m 1,0,-1
 470 309 l 1,1,-1
 67 309 l 1,2,-1
 67 254 l 1,3,-1
 470 254 l 1,0,-1
219 116 m 256,4,5
 219 96 219 96 233.5 81.5 c 128,-1,6
 248 67 248 67 268 67 c 256,7,8
 288 67 288 67 302 81.5 c 128,-1,9
 316 96 316 96 316 116 c 256,10,11
 316 136 316 136 302 150 c 128,-1,12
 288 164 288 164 268 164 c 256,13,14
 248 164 248 164 233.5 150 c 128,-1,15
 219 136 219 136 219 116 c 256,4,5
220 449 m 256,16,17
 220 429 220 429 234 414 c 128,-1,18
 248 399 248 399 268 399 c 256,19,20
 288 399 288 399 302.5 414 c 128,-1,21
 317 429 317 429 317 449 c 256,22,23
 317 469 317 469 302.5 483 c 128,-1,24
 288 497 288 497 268 497 c 256,25,26
 248 497 248 497 234 483 c 128,-1,27
 220 469 220 469 220 449 c 256,16,17
EndSplineSet
EndChar

StartChar: oslash
Encoding: 248 248 186
Width: 595
GlyphClass: 1
Flags: W
LayerCount: 2
Fore
SplineSet
297 -10 m 256,0,1
 353 -10 353 -10 400.5 12 c 128,-1,2
 448 34 448 34 482.5 70.5 c 128,-1,3
 517 107 517 107 536 156 c 128,-1,4
 555 205 555 205 555 259 c 0,5,6
 555 314 555 314 535.5 363 c 128,-1,7
 516 412 516 412 482 449 c 128,-1,8
 448 486 448 486 400.5 508 c 128,-1,9
 353 530 353 530 297 530 c 0,10,11
 242 530 242 530 194.5 508 c 128,-1,12
 147 486 147 486 113 449 c 128,-1,13
 79 412 79 412 59 363 c 128,-1,14
 39 314 39 314 39 259 c 0,15,16
 39 205 39 205 58.5 156 c 128,-1,17
 78 107 78 107 112 70.5 c 128,-1,18
 146 34 146 34 193.5 12 c 128,-1,19
 241 -10 241 -10 297 -10 c 256,0,1
297 47 m 0,20,21
 257 47 257 47 222.5 63.5 c 128,-1,22
 188 80 188 80 162 108.5 c 128,-1,23
 136 137 136 137 121 175.5 c 128,-1,24
 106 214 106 214 106 258 c 256,25,26
 106 302 106 302 121 341 c 128,-1,27
 136 380 136 380 162 409 c 128,-1,28
 188 438 188 438 223 455 c 128,-1,29
 258 472 258 472 297 472 c 256,30,31
 336 472 336 472 371 455.5 c 128,-1,32
 406 439 406 439 432.5 410 c 128,-1,33
 459 381 459 381 474 342.5 c 128,-1,34
 489 304 489 304 489 260 c 256,35,36
 489 216 489 216 474 177.5 c 128,-1,37
 459 139 459 139 432.5 110 c 128,-1,38
 406 81 406 81 371 64 c 128,-1,39
 336 47 336 47 297 47 c 0,20,21
143 -1 m 1,40,-1
 186 55 l 1,41,-1
 146 80 l 1,42,-1
 84 -1 l 1,43,-1
 143 -1 l 1,40,-1
446 443 m 1,44,-1
 404 463 l 1,45,-1
 153 82 l 1,46,-1
 192 60 l 1,47,-1
 446 443 l 1,44,-1
510 522 m 1,48,-1
 451 522 l 1,49,-1
 410 467 l 1,50,-1
 453 447 l 1,51,-1
 510 522 l 1,48,-1
EndSplineSet
EndChar

StartChar: thorn
Encoding: 254 254 192
Width: 603
GlyphClass: 1
Flags: W
LayerCount: 2
Fore
SplineSet
564 257 m 0,0,1
 564 307 564 307 547.5 355.5 c 128,-1,2
 531 404 531 404 499 443.5 c 128,-1,3
 467 483 467 483 421.5 507.5 c 128,-1,4
 376 532 376 532 318 532 c 0,5,6
 257 532 257 532 214 502.5 c 128,-1,7
 171 473 171 473 142 432 c 1,8,-1
 142 710 l 1,9,-1
 75 710 l 1,10,-1
 75 -213 l 1,11,-1
 142 -213 l 1,12,-1
 142 76 l 1,13,14
 153 58 153 58 170.5 41 c 128,-1,15
 188 24 188 24 209.5 11.5 c 128,-1,16
 231 -1 231 -1 256 -8 c 128,-1,17
 281 -15 281 -15 309 -15 c 0,18,19
 363 -15 363 -15 409 7 c 128,-1,20
 455 29 455 29 489.5 67 c 128,-1,21
 524 105 524 105 543.5 154.5 c 128,-1,22
 563 204 563 204 564 257 c 0,0,1
498 258 m 0,23,24
 498 217 498 217 484 178.5 c 128,-1,25
 470 140 470 140 444.5 110.5 c 128,-1,26
 419 81 419 81 384 63 c 128,-1,27
 349 45 349 45 308 45 c 0,28,29
 282 45 282 45 253 55.5 c 128,-1,30
 224 66 224 66 199 83.5 c 128,-1,31
 174 101 174 101 158 124 c 128,-1,32
 142 147 142 147 142 172 c 2,33,-1
 142 348 l 1,34,35
 154 373 154 373 171.5 395 c 128,-1,36
 189 417 189 417 210.5 434 c 128,-1,37
 232 451 232 451 258 461.5 c 128,-1,38
 284 472 284 472 315 472 c 0,39,40
 356 472 356 472 389.5 454 c 128,-1,41
 423 436 423 436 447.5 406.5 c 128,-1,42
 472 377 472 377 485 338.5 c 128,-1,43
 498 300 498 300 498 258 c 0,23,24
EndSplineSet
EndChar

StartChar: Dcroat
Encoding: 272 272 210
Width: 721
GlyphClass: 1
Flags: W
LayerCount: 2
Fore
SplineSet
334 331 m 1,0,-1
 334 383 l 1,1,-1
 34 383 l 1,2,-1
 34 331 l 1,3,-1
 334 331 l 1,0,-1
336 0 m 2,4,5
 414 0 414 0 476.5 25.5 c 128,-1,6
 539 51 539 51 583.5 97.5 c 128,-1,7
 628 144 628 144 652 209.5 c 128,-1,8
 676 275 676 275 676 356 c 0,9,10
 676 430 676 430 654.5 494.5 c 128,-1,11
 633 559 633 559 590.5 607 c 128,-1,12
 548 655 548 655 484.5 682.5 c 128,-1,13
 421 710 421 710 336 710 c 2,14,-1
 96 710 l 1,15,-1
 96 0 l 1,16,-1
 336 0 l 2,4,5
608 356 m 0,17,18
 608 293 608 293 590.5 238.5 c 128,-1,19
 573 184 573 184 539 144.5 c 128,-1,20
 505 105 505 105 454 82.5 c 128,-1,21
 403 60 403 60 336 60 c 2,22,-1
 163 60 l 1,23,-1
 163 650 l 1,24,-1
 336 650 l 2,25,26
 401 650 401 650 452 628 c 128,-1,27
 503 606 503 606 538 567 c 128,-1,28
 573 528 573 528 590.5 474 c 128,-1,29
 608 420 608 420 608 356 c 0,17,18
EndSplineSet
EndChar

StartChar: dcroat
Encoding: 273 273 211
Width: 621
GlyphClass: 1
Flags: W
LayerCount: 2
Fore
SplineSet
612 618 m 1,0,-1
 612 662 l 1,1,-1
 362 662 l 1,2,-1
 362 618 l 1,3,-1
 612 618 l 1,0,-1
542 0 m 1,4,-1
 542 730 l 1,5,-1
 476 730 l 1,6,-1
 476 411 l 1,7,8
 460 436 460 436 439.5 457.5 c 128,-1,9
 419 479 419 479 394 495 c 128,-1,10
 369 511 369 511 340 520.5 c 128,-1,11
 311 530 311 530 278 530 c 0,12,13
 226 530 226 530 183 508 c 128,-1,14
 140 486 140 486 108 449 c 128,-1,15
 76 412 76 412 58 363.5 c 128,-1,16
 40 315 40 315 40 259 c 0,17,18
 40 207 40 207 58.5 158 c 128,-1,19
 77 109 77 109 110 72 c 128,-1,20
 143 35 143 35 189 12.5 c 128,-1,21
 235 -10 235 -10 289 -10 c 0,22,23
 347 -10 347 -10 396.5 19.5 c 128,-1,24
 446 49 446 49 476 97 c 1,25,-1
 476 0 l 1,26,-1
 542 0 l 1,4,-1
476 178 m 2,27,28
 473 152 473 152 455.5 128 c 128,-1,29
 438 104 438 104 413 86 c 128,-1,30
 388 68 388 68 358.5 57.5 c 128,-1,31
 329 47 329 47 303 47 c 0,32,33
 262 47 262 47 226.5 64.5 c 128,-1,34
 191 82 191 82 164.5 110.5 c 128,-1,35
 138 139 138 139 122.5 177.5 c 128,-1,36
 107 216 107 216 107 259 c 0,37,38
 107 299 107 299 120.5 337.5 c 128,-1,39
 134 376 134 376 158.5 406 c 128,-1,40
 183 436 183 436 217.5 454 c 128,-1,41
 252 472 252 472 294 472 c 0,42,43
 322 472 322 472 350 462 c 128,-1,44
 378 452 378 452 403 434 c 128,-1,45
 428 416 428 416 447.5 392 c 128,-1,46
 467 368 467 368 476 341 c 1,47,-1
 476 178 l 2,27,28
EndSplineSet
EndChar

StartChar: Hbar
Encoding: 294 294 232
Width: 748
GlyphClass: 1
Flags: W
LayerCount: 2
Fore
SplineSet
703 537 m 1,0,-1
 703 588 l 1,1,-1
 45 588 l 1,2,-1
 45 537 l 1,3,-1
 703 537 l 1,0,-1
586 710 m 1,4,-1
 586 393 l 1,5,-1
 161 393 l 1,6,-1
 161 710 l 1,7,-1
 95 710 l 1,8,-1
 95 0 l 1,9,-1
 161 0 l 1,10,-1
 161 333 l 1,11,-1
 586 333 l 1,12,-1
 586 0 l 1,13,-1
 653 0 l 1,14,-1
 653 710 l 1,15,-1
 586 710 l 1,4,-1
EndSplineSet
EndChar

StartChar: hbar
Encoding: 295 295 233
Width: 582
GlyphClass: 1
Flags: W
LayerCount: 2
Fore
SplineSet
264 618 m 1,0,-1
 264 662 l 1,1,-1
 13 662 l 1,2,-1
 13 618 l 1,3,-1
 264 618 l 1,0,-1
512 304 m 2,4,5
 512 355 512 355 502.5 396.5 c 128,-1,6
 493 438 493 438 473.5 467.5 c 128,-1,7
 454 497 454 497 423 513.5 c 128,-1,8
 392 530 392 530 347 530 c 0,9,10
 282 530 282 530 227 495.5 c 128,-1,11
 172 461 172 461 141 402 c 1,12,-1
 141 730 l 1,13,-1
 75 730 l 1,14,-1
 75 0 l 1,15,-1
 141 0 l 1,16,-1
 141 319 l 1,17,18
 150 352 150 352 169 379.5 c 128,-1,19
 188 407 188 407 213 427 c 128,-1,20
 238 447 238 447 267 458.5 c 128,-1,21
 296 470 296 470 325 470 c 0,22,23
 385 470 385 470 415.5 425.5 c 128,-1,24
 446 381 446 381 446 291 c 2,25,-1
 446 0 l 1,26,-1
 512 0 l 1,27,-1
 512 304 l 2,4,5
EndSplineSet
EndChar

StartChar: dotlessi
Encoding: 305 305 243
Width: 216
GlyphClass: 1
Flags: W
LayerCount: 2
Fore
SplineSet
141 0 m 1,0,-1
 141 521 l 1,1,-1
 75 521 l 1,2,-1
 75 0 l 1,3,-1
 141 0 l 1,0,-1
EndSplineSet
EndChar

StartChar: kgreenlandic
Encoding: 312 312 248
Width: 529
GlyphClass: 1
Flags: W
LayerCount: 2
Fore
SplineSet
519 0 m 1,0,-1
 297 307 l 1,1,-1
 511 520 l 1,2,-1
 437 520 l 1,3,-1
 141 232 l 1,4,-1
 141 521 l 1,5,-1
 75 521 l 1,6,-1
 75 0 l 1,7,-1
 141 0 l 1,8,-1
 141 164 l 1,9,-1
 254 269 l 1,10,-1
 448 0 l 1,11,-1
 519 0 l 1,0,-1
EndSplineSet
EndChar

StartChar: Lslash
Encoding: 321 321 257
Width: 589
GlyphClass: 1
Flags: W
LayerCount: 2
Fore
SplineSet
342 485 m 1,0,-1
 321 522 l 1,1,-1
 16 267 l 1,2,-1
 38 229 l 1,3,-1
 342 485 l 1,0,-1
576 0 m 1,4,-1
 576 60 l 1,5,-1
 163 60 l 1,6,-1
 163 710 l 1,7,-1
 97 710 l 1,8,-1
 97 0 l 1,9,-1
 576 0 l 1,4,-1
EndSplineSet
EndChar

StartChar: lslash
Encoding: 322 322 258
Width: 290
GlyphClass: 1
Flags: W
LayerCount: 2
Fore
SplineSet
275 483 m 1,0,-1
 252 521 l 1,1,-1
 11 327 l 1,2,-1
 33 290 l 1,3,-1
 275 483 l 1,0,-1
97 94 m 2,4,5
 97 47 97 47 124 20.5 c 128,-1,6
 151 -6 151 -6 197 -6 c 0,7,8
 217 -6 217 -6 244 -1 c 128,-1,9
 271 4 271 4 290 12 c 1,10,-1
 278 65 l 1,11,12
 265 60 265 60 247.5 56.5 c 128,-1,13
 230 53 230 53 212 53 c 0,14,15
 201 53 201 53 192 55.5 c 128,-1,16
 183 58 183 58 176.5 65 c 128,-1,17
 170 72 170 72 166.5 84 c 128,-1,18
 163 96 163 96 163 116 c 2,19,-1
 163 730 l 1,20,-1
 97 730 l 1,21,-1
 97 94 l 2,4,5
EndSplineSet
EndChar

StartChar: Eng
Encoding: 330 330 265
Width: 767
GlyphClass: 1
Flags: W
LayerCount: 2
Fore
SplineSet
612 9 m 1,0,-1
 612 -27 l 2,1,2
 612 -47 612 -47 604 -65 c 128,-1,3
 596 -83 596 -83 582.5 -95 c 128,-1,4
 569 -107 569 -107 552 -114.5 c 128,-1,5
 535 -122 535 -122 517 -122 c 0,6,7
 498 -122 498 -122 478.5 -117 c 128,-1,8
 459 -112 459 -112 444 -98 c 1,9,-1
 411 -141 l 1,10,11
 434 -163 434 -163 463 -172 c 128,-1,12
 492 -181 492 -181 524 -181 c 0,13,14
 553 -181 553 -181 580.5 -169.5 c 128,-1,15
 608 -158 608 -158 629.5 -137.5 c 128,-1,16
 651 -117 651 -117 664 -88.5 c 128,-1,17
 677 -60 677 -60 677 -25 c 2,18,-1
 677 709 l 1,19,-1
 610 709 l 1,20,-1
 610 117 l 1,21,-1
 141 710 l 1,22,-1
 90 710 l 1,23,-1
 90 0 l 1,24,-1
 156 0 l 1,25,-1
 156 584 l 1,26,-1
 612 9 l 1,0,-1
EndSplineSet
EndChar

StartChar: eng
Encoding: 331 331 266
Width: 582
GlyphClass: 1
Flags: W
LayerCount: 2
Fore
SplineSet
359 -181 m 0,0,1
 388 -181 388 -181 415.5 -169 c 128,-1,2
 443 -157 443 -157 464.5 -136 c 128,-1,3
 486 -115 486 -115 499 -86.5 c 128,-1,4
 512 -58 512 -58 512 -23 c 2,5,-1
 512 304 l 2,6,7
 512 356 512 356 504 398 c 128,-1,8
 496 440 496 440 477.5 469 c 128,-1,9
 459 498 459 498 429.5 514 c 128,-1,10
 400 530 400 530 356 530 c 0,11,12
 322 530 322 530 289 520.5 c 128,-1,13
 256 511 256 511 227 494.5 c 128,-1,14
 198 478 198 478 174.5 454 c 128,-1,15
 151 430 151 430 135 402 c 1,16,-1
 135 521 l 1,17,-1
 75 521 l 1,18,-1
 75 0 l 1,19,-1
 141 0 l 1,20,-1
 141 319 l 1,21,22
 150 352 150 352 170 379.5 c 128,-1,23
 190 407 190 407 216 427 c 128,-1,24
 242 447 242 447 272.5 458.5 c 128,-1,25
 303 470 303 470 333 470 c 0,26,27
 391 470 391 470 418.5 427.5 c 128,-1,28
 446 385 446 385 446 291 c 2,29,-1
 446 -27 l 2,30,31
 446 -47 446 -47 438 -65 c 128,-1,32
 430 -83 430 -83 416.5 -95 c 128,-1,33
 403 -107 403 -107 386.5 -114.5 c 128,-1,34
 370 -122 370 -122 352 -122 c 0,35,36
 333 -122 333 -122 313.5 -117 c 128,-1,37
 294 -112 294 -112 279 -98 c 1,38,-1
 246 -141 l 1,39,40
 269 -163 269 -163 297.5 -172 c 128,-1,41
 326 -181 326 -181 359 -181 c 0,0,1
EndSplineSet
EndChar

StartChar: OE
Encoding: 338 338 273
Width: 1156
GlyphClass: 1
Flags: W
LayerCount: 2
Fore
SplineSet
710 60 m 1,0,-1
 710 332 l 1,1,-1
 1051 332 l 1,2,-1
 1051 392 l 1,3,-1
 710 392 l 1,4,-1
 710 650 l 1,5,-1
 1105 650 l 1,6,-1
 1105 710 l 1,7,-1
 643 710 l 1,8,-1
 643 527 l 1,9,10
 627 566 627 566 600.5 600 c 128,-1,11
 574 634 574 634 540 660 c 128,-1,12
 506 686 506 686 464.5 700.5 c 128,-1,13
 423 715 423 715 376 715 c 0,14,15
 305 715 305 715 244 685.5 c 128,-1,16
 183 656 183 656 138 606 c 128,-1,17
 93 556 93 556 67.5 491 c 128,-1,18
 42 426 42 426 42 355 c 0,19,20
 42 287 42 287 66.5 222 c 128,-1,21
 91 157 91 157 135 106.5 c 128,-1,22
 179 56 179 56 240.5 25.5 c 128,-1,23
 302 -5 302 -5 376 -5 c 0,24,25
 422 -5 422 -5 462.5 9.5 c 128,-1,26
 503 24 503 24 538 49 c 128,-1,27
 573 74 573 74 599.5 108.5 c 128,-1,28
 626 143 626 143 643 183 c 1,29,-1
 643 0 l 1,30,-1
 1114 0 l 1,31,-1
 1114 60 l 1,32,-1
 710 60 l 1,0,-1
376 56 m 0,33,34
 317 56 317 56 267.5 80.5 c 128,-1,35
 218 105 218 105 183 147 c 128,-1,36
 148 189 148 189 128.5 243 c 128,-1,37
 109 297 109 297 109 355 c 0,38,39
 109 411 109 411 128 464.5 c 128,-1,40
 147 518 147 518 181.5 560.5 c 128,-1,41
 216 603 216 603 265.5 628.5 c 128,-1,42
 315 654 315 654 376 654 c 0,43,44
 434 654 434 654 482.5 629.5 c 128,-1,45
 531 605 531 605 566.5 563 c 128,-1,46
 602 521 602 521 621.5 467.5 c 128,-1,47
 641 414 641 414 641 356 c 0,48,49
 641 300 641 300 622.5 246 c 128,-1,50
 604 192 604 192 569.5 149.5 c 128,-1,51
 535 107 535 107 486 81.5 c 128,-1,52
 437 56 437 56 376 56 c 0,33,34
EndSplineSet
EndChar

StartChar: oe
Encoding: 339 339 274
Width: 1035
GlyphClass: 1
Flags: W
LayerCount: 2
Fore
SplineSet
296 -10 m 0,0,1
 333 -10 333 -10 367 1.5 c 128,-1,2
 401 13 401 13 430 34 c 128,-1,3
 459 55 459 55 482.5 85.5 c 128,-1,4
 506 116 506 116 522 154 c 1,5,6
 538 118 538 118 562.5 87.5 c 128,-1,7
 587 57 587 57 617.5 35.5 c 128,-1,8
 648 14 648 14 683 2 c 128,-1,9
 718 -10 718 -10 756 -10 c 0,10,11
 793 -10 793 -10 827 -0.5 c 128,-1,12
 861 9 861 9 890 26 c 128,-1,13
 919 43 919 43 942 66.5 c 128,-1,14
 965 90 965 90 977 119 c 1,15,-1
 922 135 l 1,16,17
 914 114 914 114 897.5 96.5 c 128,-1,18
 881 79 881 79 859.5 66.5 c 128,-1,19
 838 54 838 54 812.5 47 c 128,-1,20
 787 40 787 40 760 40 c 0,21,22
 720 40 720 40 684.5 55 c 128,-1,23
 649 70 649 70 622 97 c 128,-1,24
 595 124 595 124 578 159.5 c 128,-1,25
 561 195 561 195 557 237 c 1,26,-1
 1004 237 l 1,27,28
 1005 241 1005 241 1005 248 c 128,-1,29
 1005 255 1005 255 1005 260 c 0,30,31
 1001 322 1001 322 980.5 371.5 c 128,-1,32
 960 421 960 421 926.5 456 c 128,-1,33
 893 491 893 491 847.5 510.5 c 128,-1,34
 802 530 802 530 747 530 c 0,35,36
 666 530 666 530 607 486 c 128,-1,37
 548 442 548 442 521 363 c 1,38,39
 507 401 507 401 485 432 c 128,-1,40
 463 463 463 463 434 484.5 c 128,-1,41
 405 506 405 506 370.5 518 c 128,-1,42
 336 530 336 530 298 530 c 0,43,44
 243 530 243 530 196 509 c 128,-1,45
 149 488 149 488 114 451 c 128,-1,46
 79 414 79 414 59 365 c 128,-1,47
 39 316 39 316 39 258 c 0,48,49
 39 202 39 202 59 153 c 128,-1,50
 79 104 79 104 113.5 67.5 c 128,-1,51
 148 31 148 31 194.5 10.5 c 128,-1,52
 241 -10 241 -10 296 -10 c 0,0,1
297 47 m 256,53,54
 257 47 257 47 222 63 c 128,-1,55
 187 79 187 79 161.5 107.5 c 128,-1,56
 136 136 136 136 121 174.5 c 128,-1,57
 106 213 106 213 106 257 c 0,58,59
 106 302 106 302 121 341 c 128,-1,60
 136 380 136 380 162 409 c 128,-1,61
 188 438 188 438 223 455 c 128,-1,62
 258 472 258 472 298 472 c 256,63,64
 338 472 338 472 373 455.5 c 128,-1,65
 408 439 408 439 433.5 410 c 128,-1,66
 459 381 459 381 474 342.5 c 128,-1,67
 489 304 489 304 489 259 c 0,68,69
 489 215 489 215 474 176 c 128,-1,70
 459 137 459 137 433 108.5 c 128,-1,71
 407 80 407 80 372 63.5 c 128,-1,72
 337 47 337 47 297 47 c 256,53,54
556 281 m 1,73,74
 558 324 558 324 573.5 360.5 c 128,-1,75
 589 397 589 397 614.5 423.5 c 128,-1,76
 640 450 640 450 673.5 464.5 c 128,-1,77
 707 479 707 479 746 479 c 256,78,79
 785 479 785 479 819 464.5 c 128,-1,80
 853 450 853 450 879.5 423.5 c 128,-1,81
 906 397 906 397 922 361 c 128,-1,82
 938 325 938 325 941 281 c 1,83,-1
 556 281 l 1,73,74
EndSplineSet
EndChar

StartChar: Tbar
Encoding: 358 358 293
Width: 641
GlyphClass: 1
Flags: W
LayerCount: 2
Fore
SplineSet
565 308 m 1,0,-1
 565 359 l 1,1,-1
 76 359 l 1,2,-1
 76 308 l 1,3,-1
 565 308 l 1,0,-1
608 710 m 1,4,-1
 33 710 l 1,5,-1
 33 650 l 1,6,-1
 287 650 l 1,7,-1
 287 0 l 1,8,-1
 354 0 l 1,9,-1
 354 650 l 1,10,-1
 608 650 l 1,11,-1
 608 710 l 1,4,-1
EndSplineSet
EndChar

StartChar: tbar
Encoding: 359 359 294
Width: 334
GlyphClass: 1
Flags: W
LayerCount: 2
Fore
SplineSet
272 281 m 1,0,-1
 272 325 l 1,1,-1
 33 325 l 1,2,-1
 33 281 l 1,3,-1
 272 281 l 1,0,-1
306 77 m 2,4,5
 303 76 303 76 296 72 c 128,-1,6
 289 68 289 68 278.5 64 c 128,-1,7
 268 60 268 60 254.5 57 c 128,-1,8
 241 54 241 54 227 54 c 0,9,10
 203 54 203 54 184.5 68 c 128,-1,11
 166 82 166 82 164 111 c 2,12,-1
 164 468 l 1,13,-1
 284 468 l 1,14,-1
 284 521 l 1,15,-1
 164 521 l 1,16,-1
 164 697 l 1,17,-1
 99 697 l 1,18,-1
 99 521 l 1,19,-1
 26 521 l 1,20,-1
 26 468 l 1,21,-1
 99 468 l 1,22,-1
 99 93 l 2,23,24
 99 68 99 68 107.5 49.5 c 128,-1,25
 116 31 116 31 131 18.5 c 128,-1,26
 146 6 146 6 165.5 0 c 128,-1,27
 185 -6 185 -6 207 -6 c 0,28,29
 228 -6 228 -6 247 -2 c 128,-1,30
 266 2 266 2 281 7 c 128,-1,31
 296 12 296 12 307 17.5 c 128,-1,32
 318 23 318 23 324 25 c 1,33,-1
 306 77 l 2,4,5
EndSplineSet
EndChar

StartChar: uni018F
Encoding: 399 399 318
Width: 737
GlyphClass: 1
Flags: W
LayerCount: 2
Fore
SplineSet
365 -7 m 0,0,1
 434 -7 434 -7 494 21 c 128,-1,2
 554 49 554 49 598.5 97 c 128,-1,3
 643 145 643 145 668.5 210.5 c 128,-1,4
 694 276 694 276 694 351 c 0,5,6
 694 427 694 427 668.5 493 c 128,-1,7
 643 559 643 559 598 608.5 c 128,-1,8
 553 658 553 658 493 686.5 c 128,-1,9
 433 715 433 715 364 715 c 0,10,11
 319 715 319 715 275 702 c 128,-1,12
 231 689 231 689 193 666.5 c 128,-1,13
 155 644 155 644 125 611.5 c 128,-1,14
 95 579 95 579 77 541 c 1,15,-1
 141 512 l 1,16,17
 151 543 151 543 173 569 c 128,-1,18
 195 595 195 595 224 613.5 c 128,-1,19
 253 632 253 632 287.5 642.5 c 128,-1,20
 322 653 322 653 358 653 c 0,21,22
 410 653 410 653 455.5 632.5 c 128,-1,23
 501 612 501 612 536 575.5 c 128,-1,24
 571 539 571 539 593.5 489.5 c 128,-1,25
 616 440 616 440 621 382 c 1,26,-1
 31 382 l 1,27,28
 30 377 30 377 29.5 368.5 c 128,-1,29
 29 360 29 360 29 350 c 0,30,31
 29 276 29 276 55 211 c 128,-1,32
 81 146 81 146 126.5 98 c 128,-1,33
 172 50 172 50 233 21.5 c 128,-1,34
 294 -7 294 -7 365 -7 c 0,0,1
365 55 m 0,35,36
 312 55 312 55 266 75.5 c 128,-1,37
 220 96 220 96 184 131.5 c 128,-1,38
 148 167 148 167 126.5 216 c 128,-1,39
 105 265 105 265 101 323 c 1,40,-1
 622 323 l 1,41,42
 619 265 619 265 598 215.5 c 128,-1,43
 577 166 577 166 542.5 130.5 c 128,-1,44
 508 95 508 95 462.5 75 c 128,-1,45
 417 55 417 55 365 55 c 0,35,36
EndSplineSet
EndChar

StartChar: florin
Encoding: 402 402 319
Width: 525
GlyphClass: 1
Flags: W
LayerCount: 2
Fore
SplineSet
143 -181 m 0,0,1
 172 -181 172 -181 199.5 -169.5 c 128,-1,2
 227 -158 227 -158 248.5 -137.5 c 128,-1,3
 270 -117 270 -117 283 -88.5 c 128,-1,4
 296 -60 296 -60 296 -26 c 2,5,-1
 296 407 l 1,6,-1
 440 407 l 1,7,-1
 440 460 l 1,8,-1
 296 460 l 1,9,-1
 296 537 l 2,10,11
 296 609 296 609 321 646.5 c 128,-1,12
 346 684 346 684 394 684 c 0,13,14
 415 684 415 684 436.5 677.5 c 128,-1,15
 458 671 458 671 471 660 c 1,16,-1
 491 707 l 1,17,18
 470 722 470 722 441 731 c 128,-1,19
 412 740 412 740 383 740 c 0,20,21
 347 740 347 740 319 726 c 128,-1,22
 291 712 291 712 271 685.5 c 128,-1,23
 251 659 251 659 240.5 621 c 128,-1,24
 230 583 230 583 230 535 c 2,25,-1
 230 460 l 1,26,-1
 158 460 l 1,27,-1
 158 407 l 1,28,-1
 230 407 l 1,29,-1
 230 -27 l 2,30,31
 230 -47 230 -47 222 -65 c 128,-1,32
 214 -83 214 -83 200.5 -95 c 128,-1,33
 187 -107 187 -107 170.5 -114.5 c 128,-1,34
 154 -122 154 -122 136 -122 c 0,35,36
 117 -122 117 -122 97.5 -117 c 128,-1,37
 78 -112 78 -112 63 -98 c 1,38,-1
 30 -141 l 1,39,40
 53 -163 53 -163 82 -172 c 128,-1,41
 111 -181 111 -181 143 -181 c 0,0,1
EndSplineSet
EndChar

StartChar: Aringacute
Encoding: 506 506 328
Width: 676
GlyphClass: 1
Flags: W
LayerCount: 2
Fore
SplineSet
13 0 m 1,0,-1
 84 0 l 1,1,-1
 176 223 l 1,2,-1
 499 223 l 1,3,-1
 592 0 l 1,4,-1
 663 0 l 1,5,-1
 367 710 l 1,6,-1
 310 710 l 1,7,-1
 13 0 l 1,0,-1
191 277 m 1,8,-1
 338 631 l 1,9,-1
 482 277 l 1,10,-1
 191 277 l 1,8,-1
250 775 m 256,11,12
 250 738 250 738 275 715 c 128,-1,13
 300 692 300 692 338 692 c 0,14,15
 377 692 377 692 402 715 c 128,-1,16
 427 738 427 738 427 775 c 256,17,18
 427 812 427 812 402 835 c 128,-1,19
 377 858 377 858 338 858 c 0,20,21
 300 858 300 858 275 835 c 128,-1,22
 250 812 250 812 250 775 c 256,11,12
338 825 m 0,23,24
 359 825 359 825 373.5 811.5 c 128,-1,25
 388 798 388 798 388 775 c 0,26,27
 388 753 388 753 373 739 c 128,-1,28
 358 725 358 725 338 725 c 0,29,30
 317 725 317 725 303 739.5 c 128,-1,31
 289 754 289 754 289 775 c 0,32,33
 289 798 289 798 303.5 811.5 c 128,-1,34
 318 825 318 825 338 825 c 0,23,24
474 982 m 1,35,-1
 404 982 l 1,36,-1
 315 827 l 1,37,-1
 354 827 l 1,38,-1
 474 982 l 1,35,-1
EndSplineSet
EndChar

StartChar: uni0237
Encoding: 567 567 370
Width: 216
GlyphClass: 1
Flags: W
LayerCount: 2
Fore
SplineSet
-12 -181 m 0,0,1
 17 -181 17 -181 44.5 -169 c 128,-1,2
 72 -157 72 -157 93.5 -136 c 128,-1,3
 115 -115 115 -115 128 -86.5 c 128,-1,4
 141 -58 141 -58 141 -23 c 2,5,-1
 141 521 l 1,6,-1
 75 521 l 1,7,-1
 75 -27 l 2,8,9
 75 -47 75 -47 67 -65 c 128,-1,10
 59 -83 59 -83 45.5 -95 c 128,-1,11
 32 -107 32 -107 15.5 -114.5 c 128,-1,12
 -1 -122 -1 -122 -19 -122 c 0,13,14
 -38 -122 -38 -122 -57.5 -117 c 128,-1,15
 -77 -112 -77 -112 -92 -98 c 1,16,-1
 -125 -141 l 1,17,18
 -102 -163 -102 -163 -73.5 -172 c 128,-1,19
 -45 -181 -45 -181 -12 -181 c 0,0,1
EndSplineSet
EndChar

StartChar: uni0259
Encoding: 601 601 371
Width: 586
GlyphClass: 1
Flags: W
LayerCount: 2
Fore
SplineSet
290 -10 m 0,0,1
 346 -10 346 -10 393 11 c 128,-1,2
 440 32 440 32 474.5 68.5 c 128,-1,3
 509 105 509 105 528 153.5 c 128,-1,4
 547 202 547 202 547 257 c 0,5,6
 547 313 547 313 527 362.5 c 128,-1,7
 507 412 507 412 472.5 449.5 c 128,-1,8
 438 487 438 487 390.5 508.5 c 128,-1,9
 343 530 343 530 287 530 c 0,10,11
 249 530 249 530 214 520 c 128,-1,12
 179 510 179 510 150 493 c 128,-1,13
 121 476 121 476 99.5 452.5 c 128,-1,14
 78 429 78 429 65 400 c 1,15,-1
 122 385 l 1,16,17
 131 405 131 405 148 422.5 c 128,-1,18
 165 440 165 440 186.5 452 c 128,-1,19
 208 464 208 464 233 471 c 128,-1,20
 258 478 258 478 284 478 c 0,21,22
 321 478 321 478 355 463.5 c 128,-1,23
 389 449 389 449 415.5 423 c 128,-1,24
 442 397 442 397 458.5 361.5 c 128,-1,25
 475 326 475 326 478 283 c 1,26,-1
 31 283 l 1,27,28
 30 279 30 279 30 271.5 c 128,-1,29
 30 264 30 264 30 259 c 0,30,31
 30 204 30 204 49.5 155 c 128,-1,32
 69 106 69 106 103.5 69.5 c 128,-1,33
 138 33 138 33 185.5 11.5 c 128,-1,34
 233 -10 233 -10 290 -10 c 0,0,1
290 41 m 256,35,36
 251 41 251 41 217 55.5 c 128,-1,37
 183 70 183 70 156.5 96 c 128,-1,38
 130 122 130 122 113 158 c 128,-1,39
 96 194 96 194 93 238 c 1,40,-1
 479 238 l 1,41,42
 476 195 476 195 461 159 c 128,-1,43
 446 123 446 123 420.5 96.5 c 128,-1,44
 395 70 395 70 362 55.5 c 128,-1,45
 329 41 329 41 290 41 c 256,35,36
EndSplineSet
EndChar

StartChar: uni02BE
Encoding: 702 702 376
Width: 159
GlyphClass: 1
Flags: W
LayerCount: 2
Fore
SplineSet
35 588 m 1,0,1
 74 588 74 588 99 611 c 128,-1,2
 124 634 124 634 124 670 c 0,3,4
 124 708 124 708 99 731 c 128,-1,5
 74 754 74 754 35 754 c 1,6,-1
 35 720 l 1,7,8
 56 720 56 720 70.5 707 c 128,-1,9
 85 694 85 694 85 670 c 0,10,11
 85 648 85 648 70 634.5 c 128,-1,12
 55 621 55 621 35 621 c 1,13,-1
 35 588 l 1,0,1
EndSplineSet
EndChar

StartChar: uni02BF
Encoding: 703 703 377
Width: 159
GlyphClass: 1
Flags: W
LayerCount: 2
Fore
SplineSet
124 621 m 1,0,1
 103 621 103 621 88.5 635 c 128,-1,2
 74 649 74 649 74 670 c 0,3,4
 74 694 74 694 88.5 707 c 128,-1,5
 103 720 103 720 124 720 c 1,6,-1
 124 754 l 1,7,8
 85 754 85 754 60 731 c 128,-1,9
 35 708 35 708 35 670 c 0,10,11
 35 634 35 634 60 611 c 128,-1,12
 85 588 85 588 124 588 c 1,13,-1
 124 621 l 1,0,1
EndSplineSet
EndChar

StartChar: uni02C8
Encoding: 712 712 380
Width: 233
GlyphClass: 1
Flags: W
LayerCount: 2
Fore
SplineSet
88 775 m 1,0,-1
 88 368 l 1,1,-1
 145 368 l 1,2,-1
 145 775 l 1,3,-1
 88 775 l 1,0,-1
EndSplineSet
EndChar

StartChar: uni02C9
Encoding: 713 713 381
Width: 395
GlyphClass: 1
Flags: W
LayerCount: 2
Fore
SplineSet
342 665 m 1,0,-1
 342 710 l 1,1,-1
 54 710 l 1,2,-1
 54 665 l 1,3,-1
 342 665 l 1,0,-1
EndSplineSet
EndChar

StartChar: uni02CA
Encoding: 714 714 382
Width: 195
GlyphClass: 1
Flags: W
LayerCount: 2
Fore
SplineSet
103 524 m 1,0,-1
 126 715 l 1,1,-1
 69 715 l 1,2,-1
 69 524 l 1,3,-1
 103 524 l 1,0,-1
EndSplineSet
EndChar

StartChar: uni02CB
Encoding: 715 715 383
Width: 195
GlyphClass: 1
Flags: W
LayerCount: 2
Fore
SplineSet
126 524 m 1,0,-1
 126 715 l 1,1,-1
 69 715 l 1,2,-1
 92 524 l 1,3,-1
 126 524 l 1,0,-1
EndSplineSet
EndChar

StartChar: uni02CC
Encoding: 716 716 384
Width: 233
GlyphClass: 1
Flags: W
LayerCount: 2
Fore
SplineSet
88 277 m 1,0,-1
 88 -130 l 1,1,-1
 145 -130 l 1,2,-1
 145 277 l 1,3,-1
 88 277 l 1,0,-1
EndSplineSet
EndChar

StartChar: tilde
Encoding: 732 732 389
Width: 404
GlyphClass: 1
Flags: W
LayerCount: 2
Fore
SplineSet
263 639 m 0,0,1
 293 639 293 639 312.5 651.5 c 128,-1,2
 332 664 332 664 342.5 680 c 128,-1,3
 353 696 353 696 357 710.5 c 128,-1,4
 361 725 361 725 361 730 c 1,5,-1
 319 730 l 1,6,7
 319 729 319 729 317.5 721 c 128,-1,8
 316 713 316 713 310 704 c 128,-1,9
 304 695 304 695 293 688 c 128,-1,10
 282 681 282 681 262 681 c 0,11,12
 244 681 244 681 229.5 687.5 c 128,-1,13
 215 694 215 694 200.5 702 c 128,-1,14
 186 710 186 710 170.5 716.5 c 128,-1,15
 155 723 155 723 135 723 c 0,16,17
 106 723 106 723 88.5 710.5 c 128,-1,18
 71 698 71 698 61.5 682 c 128,-1,19
 52 666 52 666 48 651 c 128,-1,20
 44 636 44 636 44 632 c 1,21,-1
 86 632 l 1,22,23
 86 634 86 634 87.5 641.5 c 128,-1,24
 89 649 89 649 94 657.5 c 128,-1,25
 99 666 99 666 109 673 c 128,-1,26
 119 680 119 680 135 680 c 256,27,28
 151 680 151 680 165 673.5 c 128,-1,29
 179 667 179 667 193 659.5 c 128,-1,30
 207 652 207 652 224 645.5 c 128,-1,31
 241 639 241 639 263 639 c 0,0,1
EndSplineSet
EndChar

StartChar: gravecomb
Encoding: 768 768 391
Width: 221
GlyphClass: 1
Flags: W
LayerCount: 2
Fore
SplineSet
36 760 m 1,0,-1
 157 600 l 1,1,-1
 196 600 l 1,2,-1
 106 760 l 1,3,-1
 36 760 l 1,0,-1
EndSplineSet
EndChar

StartChar: acutecomb
Encoding: 769 769 392
Width: 221
GlyphClass: 1
Flags: W
LayerCount: 2
Fore
SplineSet
196 760 m 1,0,-1
 126 760 l 1,1,-1
 36 600 l 1,2,-1
 75 600 l 1,3,-1
 196 760 l 1,0,-1
EndSplineSet
EndChar

StartChar: uni0302
Encoding: 770 770 393
Width: 329
GlyphClass: 1
Flags: W
LayerCount: 2
Fore
SplineSet
23 600 m 1,0,-1
 62 600 l 1,1,-1
 163 693 l 1,2,-1
 264 600 l 1,3,-1
 303 600 l 1,4,-1
 199 733 l 1,5,-1
 127 733 l 1,6,-1
 23 600 l 1,0,-1
EndSplineSet
EndChar

StartChar: tildecomb
Encoding: 771 771 394
Width: 436
GlyphClass: 1
Flags: W
LayerCount: 2
Fore
SplineSet
279 639 m 0,0,1
 309 639 309 639 328 651.5 c 128,-1,2
 347 664 347 664 358 680 c 128,-1,3
 369 696 369 696 372.5 710.5 c 128,-1,4
 376 725 376 725 376 730 c 1,5,-1
 335 730 l 1,6,7
 335 729 335 729 333.5 721 c 128,-1,8
 332 713 332 713 326 704 c 128,-1,9
 320 695 320 695 309 688 c 128,-1,10
 298 681 298 681 278 681 c 0,11,12
 260 681 260 681 245.5 687.5 c 128,-1,13
 231 694 231 694 216.5 702 c 128,-1,14
 202 710 202 710 186.5 716.5 c 128,-1,15
 171 723 171 723 150 723 c 0,16,17
 122 723 122 723 104.5 710.5 c 128,-1,18
 87 698 87 698 77 682 c 128,-1,19
 67 666 67 666 63.5 651 c 128,-1,20
 60 636 60 636 60 632 c 1,21,-1
 101 632 l 1,22,23
 101 634 101 634 103 641.5 c 128,-1,24
 105 649 105 649 110 657.5 c 128,-1,25
 115 666 115 666 125 673 c 128,-1,26
 135 680 135 680 151 680 c 256,27,28
 167 680 167 680 180.5 673.5 c 128,-1,29
 194 667 194 667 208.5 659.5 c 128,-1,30
 223 652 223 652 240 645.5 c 128,-1,31
 257 639 257 639 279 639 c 0,0,1
EndSplineSet
EndChar

StartChar: uni0304
Encoding: 772 772 395
Width: 395
GlyphClass: 1
Flags: W
LayerCount: 2
Fore
SplineSet
342 665 m 1,0,-1
 342 710 l 1,1,-1
 54 710 l 1,2,-1
 54 665 l 1,3,-1
 342 665 l 1,0,-1
EndSplineSet
EndChar

StartChar: uni0306
Encoding: 774 774 396
Width: 280
GlyphClass: 1
Flags: W
LayerCount: 2
Fore
SplineSet
140 665 m 0,0,1
 118 665 118 665 101 684.5 c 128,-1,2
 84 704 84 704 84 730 c 1,3,-1
 43 730 l 1,4,5
 43 709 43 709 51 691 c 128,-1,6
 59 673 59 673 72 659.5 c 128,-1,7
 85 646 85 646 102.5 638 c 128,-1,8
 120 630 120 630 140 630 c 256,9,10
 160 630 160 630 177.5 638 c 128,-1,11
 195 646 195 646 208 659.5 c 128,-1,12
 221 673 221 673 229 691 c 128,-1,13
 237 709 237 709 237 730 c 1,14,-1
 197 730 l 1,15,16
 194 702 194 702 177.5 683.5 c 128,-1,17
 161 665 161 665 140 665 c 0,0,1
EndSplineSet
EndChar

StartChar: uni0307
Encoding: 775 775 397
Width: 160
GlyphClass: 1
Flags: W
LayerCount: 2
Fore
SplineSet
31 679 m 256,0,1
 31 659 31 659 45.5 644.5 c 128,-1,2
 60 630 60 630 80 630 c 256,3,4
 100 630 100 630 114.5 644.5 c 128,-1,5
 129 659 129 659 129 679 c 256,6,7
 129 699 129 699 114.5 713 c 128,-1,8
 100 727 100 727 80 727 c 256,9,10
 60 727 60 727 45.5 713 c 128,-1,11
 31 699 31 699 31 679 c 256,0,1
EndSplineSet
EndChar

StartChar: uni0308
Encoding: 776 776 398
Width: 324
GlyphClass: 1
Flags: W
LayerCount: 2
Fore
SplineSet
27 679 m 256,0,1
 27 659 27 659 41.5 644.5 c 128,-1,2
 56 630 56 630 76 630 c 256,3,4
 96 630 96 630 110.5 644.5 c 128,-1,5
 125 659 125 659 125 679 c 256,6,7
 125 699 125 699 110.5 713 c 128,-1,8
 96 727 96 727 76 727 c 256,9,10
 56 727 56 727 41.5 713 c 128,-1,11
 27 699 27 699 27 679 c 256,0,1
199 679 m 256,12,13
 199 659 199 659 213.5 644.5 c 128,-1,14
 228 630 228 630 248 630 c 256,15,16
 268 630 268 630 282.5 644.5 c 128,-1,17
 297 659 297 659 297 679 c 256,18,19
 297 699 297 699 282.5 713 c 128,-1,20
 268 727 268 727 248 727 c 256,21,22
 228 727 228 727 213.5 713 c 128,-1,23
 199 699 199 699 199 679 c 256,12,13
EndSplineSet
EndChar

StartChar: hookabovecomb
Encoding: 777 777 399
Width: 600
GlyphClass: 1
Flags: W
LayerCount: 2
Fore
SplineSet
255 691 m 1,0,1
 270 704 270 704 279.5 709 c 128,-1,2
 289 714 289 714 302 714 c 0,3,4
 317 714 317 714 325.5 705 c 128,-1,5
 334 696 334 696 334 683 c 0,6,7
 334 671 334 671 327 659 c 128,-1,8
 320 647 320 647 303 631 c 1,9,-1
 324 608 l 1,10,11
 349 630 349 630 361.5 649.5 c 128,-1,12
 374 669 374 669 374 689 c 0,13,14
 374 714 374 714 357 733 c 128,-1,15
 340 752 340 752 308 752 c 0,16,17
 284 752 284 752 265.5 743 c 128,-1,18
 247 734 247 734 229 718 c 1,19,-1
 255 691 l 1,0,1
EndSplineSet
EndChar

StartChar: uni030A
Encoding: 778 778 400
Width: 247
GlyphClass: 1
Flags: W
LayerCount: 2
Fore
SplineSet
35 670 m 0,0,1
 35 634 35 634 60 611 c 128,-1,2
 85 588 85 588 124 588 c 0,3,4
 162 588 162 588 187 611 c 128,-1,5
 212 634 212 634 212 670 c 0,6,7
 212 708 212 708 187 731 c 128,-1,8
 162 754 162 754 124 754 c 0,9,10
 85 754 85 754 60 731 c 128,-1,11
 35 708 35 708 35 670 c 0,0,1
124 720 m 0,12,13
 144 720 144 720 159 707 c 128,-1,14
 174 694 174 694 174 670 c 0,15,16
 174 648 174 648 158.5 634.5 c 128,-1,17
 143 621 143 621 124 621 c 0,18,19
 103 621 103 621 88.5 635 c 128,-1,20
 74 649 74 649 74 670 c 0,21,22
 74 694 74 694 88.5 707 c 128,-1,23
 103 720 103 720 124 720 c 0,12,13
EndSplineSet
EndChar

StartChar: uni030C
Encoding: 780 780 402
Width: 329
GlyphClass: 1
Flags: W
LayerCount: 2
Fore
SplineSet
23 733 m 1,0,-1
 127 600 l 1,1,-1
 199 600 l 1,2,-1
 303 733 l 1,3,-1
 264 733 l 1,4,-1
 163 640 l 1,5,-1
 62 733 l 1,6,-1
 23 733 l 1,0,-1
EndSplineSet
EndChar

StartChar: uni0311
Encoding: 785 785 404
Width: 280
GlyphClass: 1
Flags: W
LayerCount: 2
Fore
SplineSet
140 696 m 0,0,1
 161 696 161 696 177.5 677 c 128,-1,2
 194 658 194 658 197 630 c 1,3,-1
 237 630 l 1,4,5
 237 651 237 651 229 669 c 128,-1,6
 221 687 221 687 208 700.5 c 128,-1,7
 195 714 195 714 177.5 722 c 128,-1,8
 160 730 160 730 140 730 c 256,9,10
 120 730 120 730 102.5 722 c 128,-1,11
 85 714 85 714 72 700.5 c 128,-1,12
 59 687 59 687 51 669 c 128,-1,13
 43 651 43 651 43 630 c 1,14,-1
 84 630 l 1,15,16
 84 656 84 656 101 676 c 128,-1,17
 118 696 118 696 140 696 c 0,0,1
EndSplineSet
EndChar

StartChar: uni0312
Encoding: 786 786 405
Width: 152
GlyphClass: 1
Flags: W
LayerCount: 2
Fore
SplineSet
27 596 m 1,0,-1
 97 596 l 1,1,-1
 169 728 l 1,2,-1
 130 728 l 1,3,-1
 27 596 l 1,0,-1
EndSplineSet
EndChar

StartChar: uni031B
Encoding: 795 795 406
Width: 254
GlyphClass: 1
Flags: W
LayerCount: 2
Fore
SplineSet
50 508 m 1,0,1
 70 508 70 508 88.5 510.5 c 128,-1,2
 107 513 107 513 123 518 c 128,-1,3
 139 523 139 523 151.5 530.5 c 128,-1,4
 164 538 164 538 173 548 c 256,5,6
 182 558 182 558 187 569 c 128,-1,7
 192 580 192 580 195.5 591 c 128,-1,8
 199 602 199 602 201 614.5 c 128,-1,9
 203 627 203 627 204 641 c 1,10,-1
 148 641 l 1,11,12
 147 620 147 620 144 606 c 128,-1,13
 141 592 141 592 132 580 c 0,14,15
 122 569 122 569 102.5 563 c 128,-1,16
 83 557 83 557 51 557 c 1,17,-1
 50 508 l 1,0,1
EndSplineSet
EndChar

StartChar: dotbelowcomb
Encoding: 803 803 407
Width: 160
GlyphClass: 1
Flags: W
LayerCount: 2
Fore
SplineSet
31 -121 m 256,0,1
 31 -141 31 -141 45.5 -155.5 c 128,-1,2
 60 -170 60 -170 80 -170 c 256,3,4
 100 -170 100 -170 114.5 -155.5 c 128,-1,5
 129 -141 129 -141 129 -121 c 256,6,7
 129 -101 129 -101 114.5 -87 c 128,-1,8
 100 -73 100 -73 80 -73 c 256,9,10
 60 -73 60 -73 45.5 -87 c 128,-1,11
 31 -101 31 -101 31 -121 c 256,0,1
EndSplineSet
EndChar

StartChar: uni0324
Encoding: 804 804 408
Width: 324
GlyphClass: 1
Flags: W
LayerCount: 2
Fore
SplineSet
148 -121 m 256,0,1
 148 -141 148 -141 162 -155 c 128,-1,2
 176 -169 176 -169 196 -169 c 256,3,4
 216 -169 216 -169 230.5 -155 c 128,-1,5
 245 -141 245 -141 245 -121 c 256,6,7
 245 -101 245 -101 230.5 -86.5 c 128,-1,8
 216 -72 216 -72 196 -72 c 256,9,10
 176 -72 176 -72 162 -86.5 c 128,-1,11
 148 -101 148 -101 148 -121 c 256,0,1
78 -121 m 256,12,13
 78 -141 78 -141 92.5 -155 c 128,-1,14
 107 -169 107 -169 127 -169 c 256,15,16
 147 -169 147 -169 161.5 -155 c 128,-1,17
 176 -141 176 -141 176 -121 c 256,18,19
 176 -101 176 -101 161.5 -86.5 c 128,-1,20
 147 -72 147 -72 127 -72 c 256,21,22
 107 -72 107 -72 92.5 -86.5 c 128,-1,23
 78 -101 78 -101 78 -121 c 256,12,13
EndSplineSet
EndChar

StartChar: uni0326
Encoding: 806 806 409
Width: 152
GlyphClass: 1
Flags: W
LayerCount: 2
Fore
SplineSet
69 -226 m 1,0,-1
 127 -49 l 1,1,-1
 59 -49 l 1,2,-1
 32 -226 l 1,3,-1
 69 -226 l 1,0,-1
EndSplineSet
EndChar

StartChar: uni0327
Encoding: 807 807 410
Width: 281
GlyphClass: 1
Flags: W
LayerCount: 2
Fore
SplineSet
52 -159 m 0,0,1
 74 -172 74 -172 100 -175 c 128,-1,2
 126 -178 126 -178 151 -178 c 0,3,4
 168 -178 168 -178 186 -175 c 128,-1,5
 204 -172 204 -172 218.5 -164.5 c 128,-1,6
 233 -157 233 -157 242 -144 c 128,-1,7
 251 -131 251 -131 251 -109 c 0,8,9
 251 -76 251 -76 228.5 -62.5 c 128,-1,10
 206 -49 206 -49 176 -49 c 0,11,12
 166 -49 166 -49 156.5 -50 c 128,-1,13
 147 -51 147 -51 138 -54 c 1,14,-1
 172 2 l 1,15,16
 170 3 170 3 165.5 4.5 c 128,-1,17
 161 6 161 6 156.5 8 c 128,-1,18
 152 10 152 10 147.5 12 c 128,-1,19
 143 14 143 14 140 15 c 2,20,-1
 84 -89 l 1,21,22
 104 -83 104 -83 124 -79 c 128,-1,23
 144 -75 144 -75 164 -75 c 0,24,25
 183 -75 183 -75 198.5 -81.5 c 128,-1,26
 214 -88 214 -88 214 -111 c 0,27,28
 214 -123 214 -123 208.5 -130 c 128,-1,29
 203 -137 203 -137 194.5 -141 c 128,-1,30
 186 -145 186 -145 176 -146 c 128,-1,31
 166 -147 166 -147 157 -147 c 0,32,33
 136 -147 136 -147 112 -143 c 128,-1,34
 88 -139 88 -139 69 -129 c 1,35,36
 68 -131 68 -131 65 -135.5 c 128,-1,37
 62 -140 62 -140 59 -144.5 c 128,-1,38
 56 -149 56 -149 53.5 -153.5 c 128,-1,39
 51 -158 51 -158 52 -159 c 0,0,1
EndSplineSet
EndChar

StartChar: uni0328
Encoding: 808 808 411
Width: 238
GlyphClass: 1
Flags: W
LayerCount: 2
Fore
SplineSet
53 -105 m 0,0,1
 53 -117 53 -117 57.5 -129.5 c 128,-1,2
 62 -142 62 -142 73.5 -152.5 c 128,-1,3
 85 -163 85 -163 105.5 -170 c 128,-1,4
 126 -177 126 -177 158 -181 c 1,5,-1
 176 -138 l 1,6,7
 138 -133 138 -133 119 -124 c 128,-1,8
 100 -115 100 -115 100 -96 c 0,9,10
 100 -76 100 -76 117.5 -54 c 128,-1,11
 135 -32 135 -32 177 0 c 1,12,-1
 160 16 l 1,13,-1
 143 16 l 1,14,15
 97 -15 97 -15 75 -44.5 c 128,-1,16
 53 -74 53 -74 53 -105 c 0,0,1
EndSplineSet
EndChar

StartChar: uni032E
Encoding: 814 814 412
Width: 280
GlyphClass: 1
Flags: W
LayerCount: 2
Fore
SplineSet
140 -116 m 0,0,1
 118 -116 118 -116 101 -96 c 128,-1,2
 84 -76 84 -76 84 -51 c 1,3,-1
 43 -51 l 1,4,5
 43 -72 43 -72 51 -90 c 128,-1,6
 59 -108 59 -108 72 -121.5 c 128,-1,7
 85 -135 85 -135 102.5 -142.5 c 128,-1,8
 120 -150 120 -150 140 -150 c 256,9,10
 160 -150 160 -150 177.5 -142.5 c 128,-1,11
 195 -135 195 -135 208 -121.5 c 128,-1,12
 221 -108 221 -108 229 -90 c 128,-1,13
 237 -72 237 -72 237 -51 c 1,14,-1
 197 -51 l 1,15,16
 194 -78 194 -78 177.5 -97 c 128,-1,17
 161 -116 161 -116 140 -116 c 0,0,1
EndSplineSet
EndChar

StartChar: uni0331
Encoding: 817 817 413
Width: 395
GlyphClass: 1
Flags: W
LayerCount: 2
Fore
SplineSet
342 -127 m 1,0,-1
 342 -82 l 1,1,-1
 54 -82 l 1,2,-1
 54 -127 l 1,3,-1
 342 -127 l 1,0,-1
EndSplineSet
EndChar

StartChar: uni0335
Encoding: 821 821 414
Width: 339
GlyphClass: 1
Flags: W
LayerCount: 2
Fore
SplineSet
289 281 m 1,0,-1
 289 325 l 1,1,-1
 50 325 l 1,2,-1
 50 281 l 1,3,-1
 289 281 l 1,0,-1
EndSplineSet
EndChar

StartChar: tonos
Encoding: 900 900 416
Width: 160
GlyphClass: 1
Flags: W
LayerCount: 2
Fore
SplineSet
67 789 m 1,0,-1
 42 577 l 1,1,-1
 86 571 l 1,2,-1
 119 779 l 1,3,-1
 67 789 l 1,0,-1
EndSplineSet
EndChar

StartChar: dieresistonos
Encoding: 901 901 417
Width: 383
GlyphClass: 1
Flags: W
LayerCount: 2
Fore
SplineSet
10 644 m 256,0,1
 10 621 10 621 26 605 c 128,-1,2
 42 589 42 589 65 589 c 256,3,4
 88 589 88 589 102.5 605 c 128,-1,5
 117 621 117 621 117 644 c 256,6,7
 117 667 117 667 102.5 681.5 c 128,-1,8
 88 696 88 696 65 696 c 256,9,10
 42 696 42 696 26 681.5 c 128,-1,11
 10 667 10 667 10 644 c 256,0,1
266 644 m 256,12,13
 266 621 266 621 282 605 c 128,-1,14
 298 589 298 589 321 589 c 256,15,16
 344 589 344 589 358.5 605 c 128,-1,17
 373 621 373 621 373 644 c 256,18,19
 373 667 373 667 358.5 681.5 c 128,-1,20
 344 696 344 696 321 696 c 256,21,22
 298 696 298 696 282 681.5 c 128,-1,23
 266 667 266 667 266 644 c 256,12,13
187 805 m 1,24,-1
 162 593 l 1,25,-1
 206 586 l 1,26,-1
 239 795 l 1,27,-1
 187 805 l 1,24,-1
EndSplineSet
EndChar

StartChar: Alphatonos
Encoding: 902 902 418
Width: 672
GlyphClass: 1
Flags: W
LayerCount: 2
Fore
SplineSet
13 0 m 1,0,-1
 84 0 l 1,1,-1
 176 223 l 1,2,-1
 499 223 l 1,3,-1
 592 0 l 1,4,-1
 663 0 l 1,5,-1
 367 710 l 1,6,-1
 310 710 l 1,7,-1
 13 0 l 1,0,-1
191 277 m 1,8,-1
 338 631 l 1,9,-1
 482 277 l 1,10,-1
 191 277 l 1,8,-1
229 865 m 1,11,-1
 130 656 l 1,12,-1
 168 635 l 1,13,-1
 283 826 l 1,14,-1
 229 865 l 1,11,-1
EndSplineSet
EndChar

StartChar: Epsilontonos
Encoding: 904 904 420
Width: 638
GlyphClass: 1
Flags: W
LayerCount: 2
Fore
SplineSet
185 60 m 1,0,-1
 185 334 l 1,1,-1
 535 334 l 1,2,-1
 535 391 l 1,3,-1
 185 391 l 1,4,-1
 185 650 l 1,5,-1
 586 650 l 1,6,-1
 586 710 l 1,7,-1
 118 710 l 1,8,-1
 118 0 l 1,9,-1
 595 0 l 1,10,-1
 595 60 l 1,11,-1
 185 60 l 1,0,-1
130 949 m 1,12,-1
 31 740 l 1,13,-1
 69 718 l 1,14,-1
 183 910 l 1,15,-1
 130 949 l 1,12,-1
EndSplineSet
EndChar

StartChar: Etatonos
Encoding: 905 905 421
Width: 732
GlyphClass: 1
Flags: W
LayerCount: 2
Fore
SplineSet
610 710 m 1,0,-1
 610 393 l 1,1,-1
 185 393 l 1,2,-1
 185 710 l 1,3,-1
 118 710 l 1,4,-1
 118 0 l 1,5,-1
 185 0 l 1,6,-1
 185 333 l 1,7,-1
 610 333 l 1,8,-1
 610 0 l 1,9,-1
 677 0 l 1,10,-1
 677 710 l 1,11,-1
 610 710 l 1,0,-1
79 861 m 1,12,-1
 -20 652 l 1,13,-1
 18 631 l 1,14,-1
 132 822 l 1,15,-1
 79 861 l 1,12,-1
EndSplineSet
EndChar

StartChar: Iotatonos
Encoding: 906 906 422
Width: 290
GlyphClass: 1
Flags: W
LayerCount: 2
Fore
SplineSet
183 0 m 1,0,-1
 183 710 l 1,1,-1
 116 710 l 1,2,-1
 116 0 l 1,3,-1
 183 0 l 1,0,-1
87 858 m 1,4,-1
 -11 648 l 1,5,-1
 26 627 l 1,6,-1
 141 819 l 1,7,-1
 87 858 l 1,4,-1
EndSplineSet
EndChar

StartChar: Omicrontonos
Encoding: 908 908 423
Width: 810
GlyphClass: 1
Flags: W
LayerCount: 2
Fore
SplineSet
389 -5 m 0,0,1
 460 -5 460 -5 521 24.5 c 128,-1,2
 582 54 582 54 626.5 103.5 c 128,-1,3
 671 153 671 153 696.5 218 c 128,-1,4
 722 283 722 283 722 354 c 0,5,6
 722 421 722 421 698 485.5 c 128,-1,7
 674 550 674 550 630.5 601 c 128,-1,8
 587 652 587 652 526 683.5 c 128,-1,9
 465 715 465 715 390 715 c 0,10,11
 319 715 319 715 258 685.5 c 128,-1,12
 197 656 197 656 152 606 c 128,-1,13
 107 556 107 556 81.5 491 c 128,-1,14
 56 426 56 426 56 355 c 0,15,16
 56 287 56 287 80 222 c 128,-1,17
 104 157 104 157 148 106.5 c 128,-1,18
 192 56 192 56 253.5 25.5 c 128,-1,19
 315 -5 315 -5 389 -5 c 0,0,1
123 355 m 0,20,21
 123 411 123 411 142 464.5 c 128,-1,22
 161 518 161 518 195.5 560 c 128,-1,23
 230 602 230 602 279.5 628 c 128,-1,24
 329 654 329 654 390 654 c 0,25,26
 448 654 448 654 496.5 629 c 128,-1,27
 545 604 545 604 580.5 562.5 c 128,-1,28
 616 521 616 521 635.5 467 c 128,-1,29
 655 413 655 413 655 355 c 0,30,31
 655 300 655 300 636.5 246.5 c 128,-1,32
 618 193 618 193 583.5 150.5 c 128,-1,33
 549 108 549 108 500 82 c 128,-1,34
 451 56 451 56 390 56 c 0,35,36
 331 56 331 56 281.5 80.5 c 128,-1,37
 232 105 232 105 197 147 c 128,-1,38
 162 189 162 189 142.5 243 c 128,-1,39
 123 297 123 297 123 355 c 0,20,21
103 858 m 1,40,-1
 4 648 l 1,41,-1
 42 627 l 1,42,-1
 157 819 l 1,43,-1
 103 858 l 1,40,-1
EndSplineSet
EndChar

StartChar: Upsilontonos
Encoding: 910 910 424
Width: 668
GlyphClass: 1
Flags: W
LayerCount: 2
Fore
SplineSet
322 0 m 1,0,-1
 387 0 l 1,1,-1
 387 243 l 2,2,3
 388 311 388 311 406 368 c 128,-1,4
 424 425 424 425 454.5 476.5 c 128,-1,5
 485 528 485 528 526 574.5 c 128,-1,6
 567 621 567 621 614 668 c 1,7,-1
 567 707 l 1,8,9
 521 661 521 661 487.5 624.5 c 128,-1,10
 454 588 454 588 429.5 553.5 c 128,-1,11
 405 519 405 519 387.5 481.5 c 128,-1,12
 370 444 370 444 357 394 c 1,13,-1
 351 394 l 1,14,15
 337 444 337 444 319.5 482 c 128,-1,16
 302 520 302 520 278 554.5 c 128,-1,17
 254 589 254 589 221 625.5 c 128,-1,18
 188 662 188 662 142 707 c 1,19,-1
 96 668 l 1,20,21
 139 626 139 626 179.5 581.5 c 128,-1,22
 220 537 220 537 252 485.5 c 128,-1,23
 284 434 284 434 303 374.5 c 128,-1,24
 322 315 322 315 322 243 c 2,25,-1
 322 0 l 1,0,-1
100 858 m 1,26,-1
 2 648 l 1,27,-1
 39 627 l 1,28,-1
 154 819 l 1,29,-1
 100 858 l 1,26,-1
EndSplineSet
EndChar

StartChar: Omegatonos
Encoding: 911 911 425
Width: 708
GlyphClass: 1
Flags: W
LayerCount: 2
Fore
SplineSet
58 0 m 1,0,-1
 308 0 l 1,1,-1
 308 154 l 1,2,3
 266 167 266 167 232 189.5 c 128,-1,4
 198 212 198 212 173.5 244.5 c 128,-1,5
 149 277 149 277 136 318 c 128,-1,6
 123 359 123 359 123 406 c 0,7,8
 123 458 123 458 140 502.5 c 128,-1,9
 157 547 157 547 187.5 580 c 128,-1,10
 218 613 218 613 259.5 631.5 c 128,-1,11
 301 650 301 650 350 650 c 0,12,13
 401 650 401 650 443.5 631.5 c 128,-1,14
 486 613 486 613 516.5 580.5 c 128,-1,15
 547 548 547 548 564 503.5 c 128,-1,16
 581 459 581 459 581 408 c 0,17,18
 581 359 581 359 567 317.5 c 128,-1,19
 553 276 553 276 528 243 c 128,-1,20
 503 210 503 210 468.5 187.5 c 128,-1,21
 434 165 434 165 393 154 c 1,22,-1
 393 0 l 1,23,-1
 645 0 l 1,24,-1
 645 64 l 1,25,-1
 420 64 l 1,26,-1
 458 29 l 1,27,-1
 458 145 l 1,28,-1
 432 103 l 1,29,30
 481 117 481 117 521.5 145.5 c 128,-1,31
 562 174 562 174 591.5 214 c 128,-1,32
 621 254 621 254 637 303.5 c 128,-1,33
 653 353 653 353 653 409 c 0,34,35
 653 476 653 476 630 532 c 128,-1,36
 607 588 607 588 566 629 c 128,-1,37
 525 670 525 670 469.5 693 c 128,-1,38
 414 716 414 716 350 716 c 0,39,40
 287 716 287 716 232 693 c 128,-1,41
 177 670 177 670 136.5 629.5 c 128,-1,42
 96 589 96 589 73.5 532.5 c 128,-1,43
 51 476 51 476 51 409 c 0,44,45
 51 352 51 352 67 303 c 128,-1,46
 83 254 83 254 112.5 214 c 128,-1,47
 142 174 142 174 182.5 145 c 128,-1,48
 223 116 223 116 273 101 c 1,49,-1
 245 145 l 1,50,-1
 245 29 l 1,51,-1
 285 64 l 1,52,-1
 59 64 l 1,53,-1
 58 0 l 1,0,-1
115 858 m 1,54,-1
 16 648 l 1,55,-1
 54 627 l 1,56,-1
 169 819 l 1,57,-1
 115 858 l 1,54,-1
EndSplineSet
EndChar

StartChar: iotadieresistonos
Encoding: 912 912 426
Width: 332
GlyphClass: 1
Flags: W
LayerCount: 2
Fore
SplineSet
209 -8 m 0,0,1
 219 -8 219 -8 235 -6 c 128,-1,2
 251 -4 251 -4 267 3 c 1,3,-1
 253 61 l 1,4,5
 243 58 243 58 235 55.5 c 128,-1,6
 227 53 227 53 219 51 c 0,7,8
 198 53 198 53 189.5 71 c 128,-1,9
 181 89 181 89 181 143 c 0,10,11
 181 167 181 167 182.5 211 c 128,-1,12
 184 255 184 255 186 307 c 128,-1,13
 188 359 188 359 190 414.5 c 128,-1,14
 192 470 192 470 194 517 c 1,15,-1
 126 517 l 1,16,17
 125 461 125 461 124 408 c 128,-1,18
 123 355 123 355 122.5 303 c 128,-1,19
 122 251 122 251 121.5 201.5 c 128,-1,20
 121 152 121 152 121 105 c 0,21,22
 121 74 121 74 127.5 52.5 c 128,-1,23
 134 31 134 31 146 17.5 c 128,-1,24
 158 4 158 4 174 -2 c 128,-1,25
 190 -8 190 -8 209 -8 c 0,0,1
-23 648 m 0,26,27
 -23 626 -23 626 -8 610 c 128,-1,28
 7 594 7 594 30 594 c 0,29,30
 54 594 54 594 68.5 610 c 128,-1,31
 83 626 83 626 83 648 c 0,32,33
 83 671 83 671 68.5 685.5 c 128,-1,34
 54 700 54 700 30 700 c 0,35,36
 7 700 7 700 -8 685.5 c 128,-1,37
 -23 671 -23 671 -23 648 c 0,26,27
231 648 m 0,38,39
 231 626 231 626 247 610 c 128,-1,40
 263 594 263 594 284 594 c 0,41,42
 308 594 308 594 322.5 610 c 128,-1,43
 337 626 337 626 337 648 c 0,44,45
 337 671 337 671 322.5 685.5 c 128,-1,46
 308 700 308 700 284 700 c 0,47,48
 263 700 263 700 247 685.5 c 128,-1,49
 231 671 231 671 231 648 c 0,38,39
151 807 m 1,50,-1
 127 597 l 1,51,-1
 171 591 l 1,52,-1
 204 797 l 1,53,-1
 151 807 l 1,50,-1
EndSplineSet
EndChar

StartChar: Gamma
Encoding: 915 915 429
Width: 492
GlyphClass: 1
Flags: W
LayerCount: 2
Fore
SplineSet
559 708 m 1,0,-1
 559 649 l 1,1,-1
 154 649 l 1,2,-1
 154 10 l 1,3,-1
 88 10 l 1,4,-1
 88 708 l 1,5,-1
 559 708 l 1,0,-1
EndSplineSet
EndChar

StartChar: uni0394
Encoding: 916 916 430
Width: 623
GlyphClass: 1
Flags: W
LayerCount: 2
Fore
SplineSet
19 0 m 1,0,-1
 603 0 l 1,1,-1
 603 19 l 1,2,-1
 349 708 l 1,3,-1
 274 708 l 1,4,-1
 19 19 l 1,5,-1
 19 0 l 1,0,-1
97 57 m 1,6,-1
 232 415 l 1,7,-1
 309 639 l 1,8,-1
 313 639 l 1,9,-1
 392 415 l 1,10,-1
 524 57 l 1,11,-1
 97 57 l 1,6,-1
EndSplineSet
EndChar

StartChar: Theta
Encoding: 920 920 434
Width: 751
GlyphClass: 1
Flags: W
LayerCount: 2
Fore
SplineSet
171 324 m 1,0,-1
 567 324 l 1,1,-1
 567 385 l 1,2,-1
 171 385 l 1,3,-1
 171 324 l 1,0,-1
369 -5 m 0,4,5
 439 -5 439 -5 499 24 c 128,-1,6
 559 53 559 53 602.5 102 c 128,-1,7
 646 151 646 151 671 214.5 c 128,-1,8
 696 278 696 278 696 348 c 0,9,10
 696 414 696 414 672.5 477.5 c 128,-1,11
 649 541 649 541 606 591 c 128,-1,12
 563 641 563 641 503 672 c 128,-1,13
 443 703 443 703 370 703 c 0,14,15
 300 703 300 703 240 674 c 128,-1,16
 180 645 180 645 135.5 596 c 128,-1,17
 91 547 91 547 66 483 c 128,-1,18
 41 419 41 419 41 349 c 0,19,20
 41 282 41 282 65 218.5 c 128,-1,21
 89 155 89 155 132 105 c 128,-1,22
 175 55 175 55 235 25 c 128,-1,23
 295 -5 295 -5 369 -5 c 0,4,5
108 349 m 0,24,25
 108 404 108 404 126 456.5 c 128,-1,26
 144 509 144 509 178.5 550.5 c 128,-1,27
 213 592 213 592 261 617 c 128,-1,28
 309 642 309 642 370 642 c 0,29,30
 427 642 427 642 474.5 618 c 128,-1,31
 522 594 522 594 557 553 c 128,-1,32
 592 512 592 512 611 459.5 c 128,-1,33
 630 407 630 407 630 349 c 0,34,35
 630 295 630 295 612 242 c 128,-1,36
 594 189 594 189 560 147.5 c 128,-1,37
 526 106 526 106 477.5 80.5 c 128,-1,38
 429 55 429 55 370 55 c 256,39,40
 311 55 311 55 263 79 c 128,-1,41
 215 103 215 103 180.5 144.5 c 128,-1,42
 146 186 146 186 127 239 c 128,-1,43
 108 292 108 292 108 349 c 0,24,25
EndSplineSet
EndChar

StartChar: Lambda
Encoding: 923 923 437
Width: 653
GlyphClass: 1
Flags: W
LayerCount: 2
Fore
SplineSet
25 0 m 1,0,-1
 94 0 l 1,1,-1
 240 404 l 1,2,-1
 324 641 l 1,3,-1
 328 641 l 1,4,-1
 413 403 l 1,5,-1
 559 0 l 1,6,-1
 627 0 l 1,7,-1
 369 708 l 1,8,-1
 286 708 l 1,9,-1
 25 0 l 1,0,-1
EndSplineSet
EndChar

StartChar: Xi
Encoding: 926 926 440
Width: 621
GlyphClass: 1
Flags: W
LayerCount: 2
Fore
SplineSet
72 0 m 1,0,-1
 547 0 l 1,1,-1
 547 57 l 1,2,-1
 72 57 l 1,3,-1
 72 0 l 1,0,-1
140 331 m 1,4,-1
 478 331 l 1,5,-1
 478 387 l 1,6,-1
 140 387 l 1,7,-1
 140 331 l 1,4,-1
72 653 m 1,8,-1
 547 653 l 1,9,-1
 547 712 l 1,10,-1
 72 712 l 1,11,-1
 72 653 l 1,8,-1
EndSplineSet
EndChar

StartChar: Pi
Encoding: 928 928 442
Width: 632
GlyphClass: 1
Flags: W
LayerCount: 2
Fore
SplineSet
86 0 m 1,0,-1
 154 0 l 1,1,-1
 154 653 l 1,2,-1
 479 653 l 1,3,-1
 479 0 l 1,4,-1
 546 0 l 1,5,-1
 546 712 l 1,6,-1
 86 712 l 1,7,-1
 86 0 l 1,0,-1
EndSplineSet
EndChar

StartChar: Sigma
Encoding: 931 931 444
Width: 543
GlyphClass: 1
Flags: W
LayerCount: 2
Fore
SplineSet
50 0 m 1,0,-1
 502 0 l 1,1,-1
 502 57 l 1,2,-1
 141 57 l 1,3,-1
 375 363 l 1,4,-1
 144 653 l 1,5,-1
 473 653 l 1,6,-1
 473 712 l 1,7,-1
 55 712 l 1,8,-1
 55 672 l 1,9,-1
 301 362 l 1,10,-1
 50 39 l 1,11,-1
 50 0 l 1,0,-1
EndSplineSet
EndChar

StartChar: Upsilon
Encoding: 933 933 446
Width: 614
GlyphClass: 1
Flags: W
LayerCount: 2
Fore
SplineSet
274 0 m 1,0,-1
 338 0 l 1,1,-1
 338 243 l 2,2,3
 339 311 339 311 357 368 c 128,-1,4
 375 425 375 425 405.5 476.5 c 128,-1,5
 436 528 436 528 477.5 574.5 c 128,-1,6
 519 621 519 621 565 668 c 1,7,-1
 519 707 l 1,8,9
 473 661 473 661 439 624.5 c 128,-1,10
 405 588 405 588 380.5 553.5 c 128,-1,11
 356 519 356 519 339 481.5 c 128,-1,12
 322 444 322 444 308 394 c 1,13,-1
 303 394 l 1,14,15
 288 444 288 444 271 482 c 128,-1,16
 254 520 254 520 229.5 554.5 c 128,-1,17
 205 589 205 589 172 625.5 c 128,-1,18
 139 662 139 662 93 707 c 1,19,-1
 48 668 l 1,20,21
 90 626 90 626 130.5 581.5 c 128,-1,22
 171 537 171 537 203 485.5 c 128,-1,23
 235 434 235 434 254.5 374.5 c 128,-1,24
 274 315 274 315 274 243 c 2,25,-1
 274 0 l 1,0,-1
EndSplineSet
EndChar

StartChar: Phi
Encoding: 934 934 447
Width: 705
GlyphClass: 1
Flags: W
LayerCount: 2
Fore
SplineSet
339 137 m 1,0,1
 290 137 290 137 248 154 c 128,-1,2
 206 171 206 171 175.5 200 c 128,-1,3
 145 229 145 229 127.5 269 c 128,-1,4
 110 309 110 309 110 356 c 0,5,6
 110 404 110 404 127.5 444 c 128,-1,7
 145 484 145 484 175.5 513 c 128,-1,8
 206 542 206 542 248 558.5 c 128,-1,9
 290 575 290 575 339 575 c 1,10,-1
 339 633 l 1,11,12
 276 633 276 633 223 612.5 c 128,-1,13
 170 592 170 592 131 555 c 128,-1,14
 92 518 92 518 70 467 c 128,-1,15
 48 416 48 416 48 356 c 256,16,17
 48 296 48 296 70 245.5 c 128,-1,18
 92 195 92 195 131 158.5 c 128,-1,19
 170 122 170 122 223 101 c 128,-1,20
 276 80 276 80 339 80 c 1,21,-1
 339 137 l 1,0,1
385 -28 m 1,22,-1
 385 739 l 1,23,-1
 322 739 l 1,24,-1
 322 -28 l 1,25,-1
 385 -28 l 1,22,-1
370 80 m 1,26,27
 434 80 434 80 487.5 101 c 128,-1,28
 541 122 541 122 579.5 158.5 c 128,-1,29
 618 195 618 195 639.5 245.5 c 128,-1,30
 661 296 661 296 661 356 c 256,31,32
 661 416 661 416 639.5 467 c 128,-1,33
 618 518 618 518 579.5 555 c 128,-1,34
 541 592 541 592 487.5 612.5 c 128,-1,35
 434 633 434 633 370 633 c 1,36,-1
 370 575 l 1,37,38
 420 575 420 575 461.5 558.5 c 128,-1,39
 503 542 503 542 533 513 c 128,-1,40
 563 484 563 484 579.5 444 c 128,-1,41
 596 404 596 404 596 356 c 0,42,43
 596 309 596 309 579.5 269 c 128,-1,44
 563 229 563 229 533 200 c 128,-1,45
 503 171 503 171 461.5 154 c 128,-1,46
 420 137 420 137 370 137 c 1,47,-1
 370 80 l 1,26,27
EndSplineSet
EndChar

StartChar: Psi
Encoding: 936 936 449
Width: 719
GlyphClass: 1
Flags: W
LayerCount: 2
Fore
SplineSet
328 0 m 1,0,-1
 393 0 l 1,1,-1
 393 708 l 1,2,-1
 328 708 l 1,3,-1
 328 0 l 1,0,-1
80 429 m 2,4,5
 80 372 80 372 96.5 326 c 128,-1,6
 113 280 113 280 146 248 c 128,-1,7
 179 216 179 216 227.5 198.5 c 128,-1,8
 276 181 276 181 341 181 c 1,9,-1
 340 235 l 1,10,11
 290 235 290 235 252.5 248.5 c 128,-1,12
 215 262 215 262 190 287 c 128,-1,13
 165 312 165 312 152.5 347.5 c 128,-1,14
 140 383 140 383 139 427 c 0,15,16
 140 439 140 439 140.5 457.5 c 128,-1,17
 141 476 141 476 141.5 497.5 c 128,-1,18
 142 519 142 519 142.5 543.5 c 128,-1,19
 143 568 143 568 143 593 c 0,20,21
 143 627 143 627 141.5 656 c 128,-1,22
 140 685 140 685 133 708 c 1,23,-1
 69 708 l 1,24,25
 73 687 73 687 75.5 669.5 c 128,-1,26
 78 652 78 652 79 636 c 128,-1,27
 80 620 80 620 80 604.5 c 128,-1,28
 80 589 80 589 80 573 c 2,29,-1
 80 429 l 2,4,5
638 573 m 2,30,31
 638 589 638 589 638 604.5 c 128,-1,32
 638 620 638 620 639 636 c 128,-1,33
 640 652 640 652 642.5 669.5 c 128,-1,34
 645 687 645 687 649 708 c 1,35,-1
 586 708 l 1,36,37
 578 685 578 685 577 656 c 128,-1,38
 576 627 576 627 576 593 c 0,39,40
 576 568 576 568 576.5 543.5 c 128,-1,41
 577 519 577 519 577 497.5 c 128,-1,42
 577 476 577 476 577.5 457.5 c 128,-1,43
 578 439 578 439 578 427 c 0,44,45
 578 384 578 384 566 348 c 128,-1,46
 554 312 554 312 529.5 287 c 128,-1,47
 505 262 505 262 467.5 248.5 c 128,-1,48
 430 235 430 235 381 235 c 1,49,-1
 380 181 l 1,50,51
 445 181 445 181 493.5 199 c 128,-1,52
 542 217 542 217 574 249 c 128,-1,53
 606 281 606 281 622 327 c 128,-1,54
 638 373 638 373 638 429 c 2,55,-1
 638 573 l 2,30,31
EndSplineSet
EndChar

StartChar: uni03A9
Encoding: 937 937 450
Width: 703
GlyphClass: 1
Flags: W
LayerCount: 2
Fore
SplineSet
58 0 m 1,0,-1
 308 0 l 1,1,-1
 308 154 l 1,2,3
 266 167 266 167 232 189.5 c 128,-1,4
 198 212 198 212 173.5 244.5 c 128,-1,5
 149 277 149 277 136 318 c 128,-1,6
 123 359 123 359 123 406 c 0,7,8
 123 458 123 458 140 502.5 c 128,-1,9
 157 547 157 547 187.5 580 c 128,-1,10
 218 613 218 613 259.5 631.5 c 128,-1,11
 301 650 301 650 350 650 c 0,12,13
 401 650 401 650 443.5 631.5 c 128,-1,14
 486 613 486 613 516.5 580.5 c 128,-1,15
 547 548 547 548 564 503.5 c 128,-1,16
 581 459 581 459 581 408 c 0,17,18
 581 359 581 359 567 317.5 c 128,-1,19
 553 276 553 276 528 243 c 128,-1,20
 503 210 503 210 468.5 187.5 c 128,-1,21
 434 165 434 165 393 154 c 1,22,-1
 393 0 l 1,23,-1
 645 0 l 1,24,-1
 645 64 l 1,25,-1
 420 64 l 1,26,-1
 458 29 l 1,27,-1
 458 145 l 1,28,-1
 432 103 l 1,29,30
 481 117 481 117 521.5 145.5 c 128,-1,31
 562 174 562 174 591.5 214 c 128,-1,32
 621 254 621 254 637 303.5 c 128,-1,33
 653 353 653 353 653 409 c 0,34,35
 653 476 653 476 630 532 c 128,-1,36
 607 588 607 588 566 629 c 128,-1,37
 525 670 525 670 469.5 693 c 128,-1,38
 414 716 414 716 350 716 c 0,39,40
 287 716 287 716 232 693 c 128,-1,41
 177 670 177 670 136.5 629.5 c 128,-1,42
 96 589 96 589 73.5 532.5 c 128,-1,43
 51 476 51 476 51 409 c 0,44,45
 51 352 51 352 67 303 c 128,-1,46
 83 254 83 254 112.5 214 c 128,-1,47
 142 174 142 174 182.5 145 c 128,-1,48
 223 116 223 116 273 101 c 1,49,-1
 245 145 l 1,50,-1
 245 29 l 1,51,-1
 285 64 l 1,52,-1
 59 64 l 1,53,-1
 58 0 l 1,0,-1
EndSplineSet
EndChar

StartChar: Iotadieresis
Encoding: 938 938 451
Width: 305
GlyphClass: 1
Flags: W
LayerCount: 2
Fore
SplineSet
154 0 m 1,0,-1
 154 698 l 1,1,-1
 88 698 l 1,2,-1
 88 0 l 1,3,-1
 154 0 l 1,0,-1
13 854 m 256,4,5
 13 834 13 834 25.5 820 c 128,-1,6
 38 806 38 806 56 806 c 256,7,8
 74 806 74 806 86.5 820 c 128,-1,9
 99 834 99 834 99 854 c 256,10,11
 99 874 99 874 86.5 887.5 c 128,-1,12
 74 901 74 901 56 901 c 256,13,14
 38 901 38 901 25.5 887.5 c 128,-1,15
 13 874 13 874 13 854 c 256,4,5
142 854 m 256,16,17
 142 834 142 834 155 820 c 128,-1,18
 168 806 168 806 186 806 c 256,19,20
 204 806 204 806 216 820 c 128,-1,21
 228 834 228 834 228 854 c 256,22,23
 228 874 228 874 216 887.5 c 128,-1,24
 204 901 204 901 186 901 c 256,25,26
 168 901 168 901 155 887.5 c 128,-1,27
 142 874 142 874 142 854 c 256,16,17
EndSplineSet
EndChar

StartChar: alphatonos
Encoding: 940 940 453
Width: 646
GlyphClass: 1
Flags: W
LayerCount: 2
Fore
SplineSet
445 249 m 2,0,1
 437 224 437 224 426.5 191 c 128,-1,2
 416 158 416 158 397.5 128 c 128,-1,3
 379 98 379 98 349 77.5 c 128,-1,4
 319 57 319 57 273 57 c 0,5,6
 238 57 238 57 208 70.5 c 128,-1,7
 178 84 178 84 156.5 109.5 c 128,-1,8
 135 135 135 135 122.5 171.5 c 128,-1,9
 110 208 110 208 110 255 c 0,10,11
 110 306 110 306 122.5 345.5 c 128,-1,12
 135 385 135 385 156 411 c 128,-1,13
 177 437 177 437 204.5 451 c 128,-1,14
 232 465 232 465 261 465 c 0,15,16
 291 465 291 465 314.5 451.5 c 128,-1,17
 338 438 338 438 356 416 c 128,-1,18
 374 394 374 394 387 365.5 c 128,-1,19
 400 337 400 337 409.5 306 c 128,-1,20
 419 275 419 275 426 245 c 128,-1,21
 433 215 433 215 437 189 c 1,22,-1
 475 257 l 1,23,24
 468 302 468 302 453.5 350 c 128,-1,25
 439 398 439 398 413.5 437.5 c 128,-1,26
 388 477 388 477 350 502.5 c 128,-1,27
 312 528 312 528 259 528 c 0,28,29
 213 528 213 528 174 508 c 128,-1,30
 135 488 135 488 107.5 452 c 128,-1,31
 80 416 80 416 64.5 366 c 128,-1,32
 49 316 49 316 49 257 c 0,33,34
 49 200 49 200 65 151.5 c 128,-1,35
 81 103 81 103 109.5 67.5 c 128,-1,36
 138 32 138 32 178 12 c 128,-1,37
 218 -8 218 -8 265 -8 c 0,38,39
 305 -8 305 -8 339.5 6 c 128,-1,40
 374 20 374 20 402 45 c 128,-1,41
 430 70 430 70 451 105.5 c 128,-1,42
 472 141 472 141 485 185 c 2,43,-1
 591 520 l 1,44,-1
 524 520 l 1,45,-1
 445 249 l 2,0,1
595 52 m 1,46,-1
 569 65 l 2,47,48
 558 71 558 71 546.5 81.5 c 128,-1,49
 535 92 535 92 524 107.5 c 128,-1,50
 513 123 513 123 503 144 c 128,-1,51
 493 165 493 165 485 191 c 1,52,-1
 445 145 l 1,53,54
 449 119 449 119 457.5 97.5 c 128,-1,55
 466 76 466 76 478.5 58 c 128,-1,56
 491 40 491 40 506.5 26.5 c 128,-1,57
 522 13 522 13 540 3 c 2,58,-1
 563 -8 l 1,59,-1
 595 52 l 1,46,-1
290 794 m 1,60,-1
 265 582 l 1,61,-1
 309 575 l 1,62,-1
 342 784 l 1,63,-1
 290 794 l 1,60,-1
EndSplineSet
EndChar

StartChar: epsilontonos
Encoding: 941 941 454
Width: 474
GlyphClass: 1
Flags: W
LayerCount: 2
Fore
SplineSet
415 77 m 1,0,1
 378 67 378 67 344 61.5 c 128,-1,2
 310 56 310 56 278 56 c 0,3,4
 206 56 206 56 165.5 81 c 128,-1,5
 125 106 125 106 125 150 c 0,6,7
 125 174 125 174 138 190.5 c 128,-1,8
 151 207 151 207 172.5 217.5 c 128,-1,9
 194 228 194 228 223.5 232.5 c 128,-1,10
 253 237 253 237 287 237 c 2,11,-1
 333 237 l 1,12,-1
 333 301 l 1,13,-1
 280 301 l 2,14,15
 251 301 251 301 226.5 307 c 128,-1,16
 202 313 202 313 184 323.5 c 128,-1,17
 166 334 166 334 155.5 349.5 c 128,-1,18
 145 365 145 365 145 384 c 0,19,20
 145 400 145 400 151.5 414 c 128,-1,21
 158 428 158 428 173 439 c 128,-1,22
 188 450 188 450 213 457 c 128,-1,23
 238 464 238 464 273 464 c 0,24,25
 290 464 290 464 308 462.5 c 128,-1,26
 326 461 326 461 344 458 c 128,-1,27
 362 455 362 455 377 451.5 c 128,-1,28
 392 448 392 448 403 442 c 1,29,-1
 423 505 l 1,30,31
 407 513 407 513 389 517 c 128,-1,32
 371 521 371 521 352 523.5 c 128,-1,33
 333 526 333 526 314 527 c 128,-1,34
 295 528 295 528 278 528 c 0,35,36
 228 528 228 528 191 517.5 c 128,-1,37
 154 507 154 507 129.5 488.5 c 128,-1,38
 105 470 105 470 93 446 c 128,-1,39
 81 422 81 422 81 395 c 0,40,41
 81 374 81 374 88.5 355 c 128,-1,42
 96 336 96 336 108 320 c 128,-1,43
 120 304 120 304 135.5 292.5 c 128,-1,44
 151 281 151 281 167 276 c 1,45,-1
 167 274 l 1,46,47
 146 268 146 268 126.5 255 c 128,-1,48
 107 242 107 242 92 225 c 128,-1,49
 77 208 77 208 68.5 186 c 128,-1,50
 60 164 60 164 60 139 c 0,51,52
 60 105 60 105 76.5 77.5 c 128,-1,53
 93 50 93 50 122 31 c 128,-1,54
 151 12 151 12 191 2 c 128,-1,55
 231 -8 231 -8 277 -8 c 0,56,57
 299 -8 299 -8 320.5 -6.5 c 128,-1,58
 342 -5 342 -5 362 -2 c 128,-1,59
 382 1 382 1 399 4 c 128,-1,60
 416 7 416 7 428 10 c 1,61,-1
 415 77 l 1,0,1
279 834 m 1,62,-1
 254 622 l 1,63,-1
 298 616 l 1,64,-1
 331 824 l 1,65,-1
 279 834 l 1,62,-1
EndSplineSet
EndChar

StartChar: etatonos
Encoding: 942 942 455
Width: 573
GlyphClass: 1
Flags: W
LayerCount: 2
Fore
SplineSet
136 0 m 1,0,1
 146 94 146 94 152 178.5 c 128,-1,2
 158 263 158 263 158 342 c 0,3,4
 158 375 158 375 155 403 c 128,-1,5
 152 431 152 431 142 454 c 128,-1,6
 132 477 132 477 115 495.5 c 128,-1,7
 98 514 98 514 70 528 c 1,8,-1
 35 470 l 1,9,10
 49 463 49 463 60 452.5 c 128,-1,11
 71 442 71 442 78 424 c 128,-1,12
 85 406 85 406 88 377.5 c 128,-1,13
 91 349 91 349 91 305 c 0,14,15
 91 240 91 240 85 160.5 c 128,-1,16
 79 81 79 81 70 0 c 1,17,-1
 136 0 l 1,0,1
437 -207 m 1,18,19
 447 -167 447 -167 457 -109.5 c 128,-1,20
 467 -52 467 -52 475 11 c 128,-1,21
 483 74 483 74 487.5 138 c 128,-1,22
 492 202 492 202 492 256 c 0,23,24
 492 399 492 399 455 463.5 c 128,-1,25
 418 528 418 528 338 528 c 0,26,27
 302 528 302 528 268.5 515 c 128,-1,28
 235 502 235 502 208.5 479 c 128,-1,29
 182 456 182 456 163.5 426 c 128,-1,30
 145 396 145 396 137 363 c 1,31,-1
 153 211 l 1,32,33
 154 258 154 258 166 302.5 c 128,-1,34
 178 347 178 347 199.5 382 c 128,-1,35
 221 417 221 417 251 438.5 c 128,-1,36
 281 460 281 460 318 460 c 0,37,38
 374 460 374 460 400 407 c 128,-1,39
 426 354 426 354 426 235 c 0,40,41
 426 194 426 194 422.5 144.5 c 128,-1,42
 419 95 419 95 413 38.5 c 128,-1,43
 407 -18 407 -18 396.5 -79.5 c 128,-1,44
 386 -141 386 -141 371 -206 c 1,45,-1
 437 -207 l 1,18,19
319 794 m 1,46,-1
 294 582 l 1,47,-1
 338 575 l 1,48,-1
 371 784 l 1,49,-1
 319 794 l 1,46,-1
EndSplineSet
EndChar

StartChar: iotatonos
Encoding: 943 943 456
Width: 275
GlyphClass: 1
Flags: W
LayerCount: 2
Fore
SplineSet
172 -8 m 0,0,1
 183 -8 183 -8 199 -6 c 128,-1,2
 215 -4 215 -4 231 3 c 1,3,-1
 217 62 l 1,4,5
 206 58 206 58 198.5 56 c 128,-1,6
 191 54 191 54 182 52 c 0,7,8
 161 54 161 54 153 72 c 128,-1,9
 145 90 145 90 143 144 c 0,10,11
 144 169 144 169 145.5 213 c 128,-1,12
 147 257 147 257 148.5 310 c 128,-1,13
 150 363 150 363 152.5 418.5 c 128,-1,14
 155 474 155 474 156 521 c 1,15,-1
 89 521 l 1,16,17
 88 465 88 465 86.5 411.5 c 128,-1,18
 85 358 85 358 84.5 305.5 c 128,-1,19
 84 253 84 253 83.5 203 c 128,-1,20
 83 153 83 153 83 106 c 0,21,22
 83 75 83 75 90 53 c 128,-1,23
 97 31 97 31 108.5 17.5 c 128,-1,24
 120 4 120 4 137 -2 c 128,-1,25
 154 -8 154 -8 172 -8 c 0,0,1
121 798 m 1,26,-1
 95 587 l 1,27,-1
 140 580 l 1,28,-1
 173 788 l 1,29,-1
 121 798 l 1,26,-1
EndSplineSet
EndChar

StartChar: upsilondieresistonos
Encoding: 944 944 457
Width: 549
GlyphClass: 1
Flags: W
LayerCount: 2
Fore
SplineSet
78 171 m 0,0,1
 78 122 78 122 95 87.5 c 128,-1,2
 112 53 112 53 140 31.5 c 128,-1,3
 168 10 168 10 203.5 1 c 128,-1,4
 239 -8 239 -8 276 -8 c 0,5,6
 324 -8 324 -8 362.5 7.5 c 128,-1,7
 401 23 401 23 429 57 c 128,-1,8
 457 91 457 91 472 144.5 c 128,-1,9
 487 198 487 198 487 274 c 0,10,11
 487 297 487 297 486.5 327.5 c 128,-1,12
 486 358 486 358 483 391.5 c 128,-1,13
 480 425 480 425 476 458.5 c 128,-1,14
 472 492 472 492 465 521 c 1,15,-1
 402 521 l 1,16,17
 409 486 409 486 414 451.5 c 128,-1,18
 419 417 419 417 422 385 c 128,-1,19
 425 353 425 353 425.5 324.5 c 128,-1,20
 426 296 426 296 426 276 c 0,21,22
 427 158 427 158 388 106 c 128,-1,23
 349 54 349 54 277 53 c 0,24,25
 250 53 250 53 225 60 c 128,-1,26
 200 67 200 67 181.5 81.5 c 128,-1,27
 163 96 163 96 151.5 119.5 c 128,-1,28
 140 143 140 143 139 177 c 0,29,30
 140 189 140 189 141 207 c 128,-1,31
 142 225 142 225 143.5 246.5 c 128,-1,32
 145 268 145 268 146 291 c 128,-1,33
 147 314 147 314 147 334 c 0,34,35
 147 363 147 363 145.5 387 c 128,-1,36
 144 411 144 411 140.5 433.5 c 128,-1,37
 137 456 137 456 132 477 c 128,-1,38
 127 498 127 498 121 521 c 1,39,-1
 60 521 l 1,40,41
 72 474 72 474 78 428 c 128,-1,42
 84 382 84 382 84 330 c 0,43,44
 84 308 84 308 83 285.5 c 128,-1,45
 82 263 82 263 81 241.5 c 128,-1,46
 80 220 80 220 79 201.5 c 128,-1,47
 78 183 78 183 78 171 c 0,0,1
71 648 m 0,48,49
 71 626 71 626 86.5 610 c 128,-1,50
 102 594 102 594 126 594 c 0,51,52
 149 594 149 594 164 610 c 128,-1,53
 179 626 179 626 179 648 c 0,54,55
 179 672 179 672 164 686.5 c 128,-1,56
 149 701 149 701 126 701 c 0,57,58
 102 701 102 701 86.5 686.5 c 128,-1,59
 71 672 71 672 71 648 c 0,48,49
329 648 m 0,60,61
 329 626 329 626 345.5 610 c 128,-1,62
 362 594 362 594 384 594 c 0,63,64
 408 594 408 594 422.5 610 c 128,-1,65
 437 626 437 626 437 648 c 0,66,67
 437 672 437 672 422.5 686.5 c 128,-1,68
 408 701 408 701 384 701 c 0,69,70
 362 701 362 701 345.5 686.5 c 128,-1,71
 329 672 329 672 329 648 c 0,60,61
249 809 m 1,72,-1
 224 598 l 1,73,-1
 268 591 l 1,74,-1
 301 799 l 1,75,-1
 249 809 l 1,72,-1
EndSplineSet
EndChar

StartChar: alpha
Encoding: 945 945 458
Width: 631
GlyphClass: 1
Flags: W
LayerCount: 2
Fore
SplineSet
445 249 m 2,0,1
 437 224 437 224 426.5 191 c 128,-1,2
 416 158 416 158 397.5 128 c 128,-1,3
 379 98 379 98 349 77.5 c 128,-1,4
 319 57 319 57 273 57 c 0,5,6
 238 57 238 57 208 70.5 c 128,-1,7
 178 84 178 84 156.5 109.5 c 128,-1,8
 135 135 135 135 122.5 171.5 c 128,-1,9
 110 208 110 208 110 255 c 0,10,11
 110 306 110 306 122.5 345.5 c 128,-1,12
 135 385 135 385 156 411 c 128,-1,13
 177 437 177 437 204.5 451 c 128,-1,14
 232 465 232 465 261 465 c 0,15,16
 291 465 291 465 314.5 451.5 c 128,-1,17
 338 438 338 438 356 416 c 128,-1,18
 374 394 374 394 387 365.5 c 128,-1,19
 400 337 400 337 409.5 306 c 128,-1,20
 419 275 419 275 426 245 c 128,-1,21
 433 215 433 215 437 189 c 1,22,-1
 475 257 l 1,23,24
 468 302 468 302 453.5 350 c 128,-1,25
 439 398 439 398 413.5 437.5 c 128,-1,26
 388 477 388 477 350 502.5 c 128,-1,27
 312 528 312 528 259 528 c 0,28,29
 213 528 213 528 174 508 c 128,-1,30
 135 488 135 488 107.5 452 c 128,-1,31
 80 416 80 416 64.5 366 c 128,-1,32
 49 316 49 316 49 257 c 0,33,34
 49 200 49 200 65 151.5 c 128,-1,35
 81 103 81 103 109.5 67.5 c 128,-1,36
 138 32 138 32 178 12 c 128,-1,37
 218 -8 218 -8 265 -8 c 0,38,39
 305 -8 305 -8 339.5 6 c 128,-1,40
 374 20 374 20 402 45 c 128,-1,41
 430 70 430 70 451 105.5 c 128,-1,42
 472 141 472 141 485 185 c 2,43,-1
 591 520 l 1,44,-1
 524 520 l 1,45,-1
 445 249 l 2,0,1
595 52 m 1,46,-1
 569 65 l 2,47,48
 558 71 558 71 546.5 81.5 c 128,-1,49
 535 92 535 92 524 107.5 c 128,-1,50
 513 123 513 123 503 144 c 128,-1,51
 493 165 493 165 485 191 c 1,52,-1
 445 145 l 1,53,54
 449 119 449 119 457.5 97.5 c 128,-1,55
 466 76 466 76 478.5 58 c 128,-1,56
 491 40 491 40 506.5 26.5 c 128,-1,57
 522 13 522 13 540 3 c 2,58,-1
 563 -8 l 1,59,-1
 595 52 l 1,46,-1
EndSplineSet
EndChar

StartChar: beta
Encoding: 946 946 459
Width: 647
GlyphClass: 1
Flags: W
LayerCount: 2
Fore
SplineSet
142 66 m 1,0,1
 165 46 165 46 191 32 c 128,-1,2
 217 18 217 18 244 9 c 128,-1,3
 271 0 271 0 297 -4 c 128,-1,4
 323 -8 323 -8 347 -8 c 0,5,6
 398 -8 398 -8 441 10.5 c 128,-1,7
 484 29 484 29 516 60.5 c 128,-1,8
 548 92 548 92 566 133 c 128,-1,9
 584 174 584 174 583 220 c 0,10,11
 584 259 584 259 571 294 c 128,-1,12
 558 329 558 329 533 356 c 128,-1,13
 508 383 508 383 471.5 401.5 c 128,-1,14
 435 420 435 420 388 424 c 1,15,-1
 388 428 l 1,16,17
 415 444 415 444 436 462.5 c 128,-1,18
 457 481 457 481 471.5 503.5 c 128,-1,19
 486 526 486 526 494 550.5 c 128,-1,20
 502 575 502 575 502 603 c 0,21,22
 502 635 502 635 489 665.5 c 128,-1,23
 476 696 476 696 451 718.5 c 128,-1,24
 426 741 426 741 390 755 c 128,-1,25
 354 769 354 769 307 768 c 0,26,27
 249 769 249 769 208 747 c 128,-1,28
 167 725 167 725 140.5 686.5 c 128,-1,29
 114 648 114 648 102 595 c 128,-1,30
 90 542 90 542 90 480 c 2,31,-1
 90 -208 l 1,32,-1
 155 -208 l 1,33,34
 154 -130 154 -130 152 -58.5 c 128,-1,35
 150 13 150 13 149 69 c 2,36,-1
 149 112 l 2,37,38
 151 150 151 150 151 186.5 c 128,-1,39
 151 223 151 223 151.5 265 c 128,-1,40
 152 307 152 307 152 358 c 128,-1,41
 152 409 152 409 152 475 c 0,42,43
 152 527 152 527 160 570.5 c 128,-1,44
 168 614 168 614 186.5 645 c 128,-1,45
 205 676 205 676 234 692.5 c 128,-1,46
 263 709 263 709 306 709 c 0,47,48
 339 709 339 709 364 699.5 c 128,-1,49
 389 690 389 690 405.5 673 c 128,-1,50
 422 656 422 656 430.5 635.5 c 128,-1,51
 439 615 439 615 439 593 c 0,52,53
 439 568 439 568 428 542.5 c 128,-1,54
 417 517 417 517 394.5 495 c 128,-1,55
 372 473 372 473 338 456 c 128,-1,56
 304 439 304 439 259 430 c 1,57,-1
 259 381 l 1,58,59
 261 382 261 382 269 383 c 128,-1,60
 277 384 277 384 288 384.5 c 128,-1,61
 299 385 299 385 311.5 385.5 c 128,-1,62
 324 386 324 386 334 385 c 0,63,64
 378 386 378 386 413 373.5 c 128,-1,65
 448 361 448 361 473 339 c 128,-1,66
 498 317 498 317 511.5 287 c 128,-1,67
 525 257 525 257 525 223 c 0,68,69
 525 186 525 186 510.5 155 c 128,-1,70
 496 124 496 124 471 100 c 128,-1,71
 446 76 446 76 412.5 62.5 c 128,-1,72
 379 49 379 49 341 49 c 0,73,74
 321 49 321 49 296 53.5 c 128,-1,75
 271 58 271 58 245 68 c 128,-1,76
 219 78 219 78 192.5 94 c 128,-1,77
 166 110 166 110 143 133 c 1,78,-1
 142 66 l 1,0,1
EndSplineSet
EndChar

StartChar: gamma
Encoding: 947 947 460
Width: 535
GlyphClass: 1
Flags: W
LayerCount: 2
Fore
SplineSet
250 -208 m 1,0,1
 263 -95 263 -95 268.5 12.5 c 128,-1,2
 274 120 274 120 260 215.5 c 128,-1,3
 246 311 246 311 206 392 c 128,-1,4
 166 473 166 473 87 534 c 1,5,-1
 50 485 l 1,6,7
 95 451 95 451 125 405 c 128,-1,8
 155 359 155 359 173.5 304 c 128,-1,9
 192 249 192 249 199.5 187 c 128,-1,10
 207 125 207 125 207 59.5 c 128,-1,11
 207 -6 207 -6 201.5 -74 c 128,-1,12
 196 -142 196 -142 187 -208 c 1,13,-1
 250 -208 l 1,0,1
246 1 m 1,14,15
 303 77 303 77 345 143.5 c 128,-1,16
 387 210 387 210 417 272 c 128,-1,17
 447 334 447 334 468 395 c 128,-1,18
 489 456 489 456 503 521 c 1,19,-1
 436 521 l 1,20,21
 427 465 427 465 407 407.5 c 128,-1,22
 387 350 387 350 360.5 294 c 128,-1,23
 334 238 334 238 302.5 186.5 c 128,-1,24
 271 135 271 135 240 90 c 1,25,-1
 246 1 l 1,14,15
EndSplineSet
EndChar

StartChar: delta
Encoding: 948 948 461
Width: 613
GlyphClass: 1
Flags: W
LayerCount: 2
Fore
SplineSet
305 -8 m 0,0,1
 359 -8 359 -8 404.5 11.5 c 128,-1,2
 450 31 450 31 483 66 c 128,-1,3
 516 101 516 101 534.5 148.5 c 128,-1,4
 553 196 553 196 553 252 c 0,5,6
 553 311 553 311 535 355 c 128,-1,7
 517 399 517 399 488.5 432 c 128,-1,8
 460 465 460 465 426 489.5 c 128,-1,9
 392 514 392 514 360 534 c 0,10,11
 334 550 334 550 310 565 c 128,-1,12
 286 580 286 580 266.5 595 c 128,-1,13
 247 610 247 610 235 625.5 c 128,-1,14
 223 641 223 641 223 658 c 0,15,16
 223 680 223 680 242.5 692 c 128,-1,17
 262 704 262 704 297 704 c 0,18,19
 325 704 325 704 358 696.5 c 128,-1,20
 391 689 391 689 424.5 677 c 128,-1,21
 458 665 458 665 488.5 648.5 c 128,-1,22
 519 632 519 632 540 614 c 1,23,-1
 574 666 l 1,24,25
 554 684 554 684 522 702 c 128,-1,26
 490 720 490 720 452.5 734.5 c 128,-1,27
 415 749 415 749 374 758 c 128,-1,28
 333 767 333 767 294 767 c 0,29,30
 227 768 227 768 189 739.5 c 128,-1,31
 151 711 151 711 151 663 c 0,32,33
 151 633 151 633 166 609 c 128,-1,34
 181 585 181 585 204 564.5 c 128,-1,35
 227 544 227 544 256.5 526.5 c 128,-1,36
 286 509 286 509 313 492 c 0,37,38
 344 473 344 473 376 451 c 128,-1,39
 408 429 408 429 434 400 c 128,-1,40
 460 371 460 371 476 334.5 c 128,-1,41
 492 298 492 298 492 251 c 0,42,43
 492 209 492 209 478 173.5 c 128,-1,44
 464 138 464 138 439 112.5 c 128,-1,45
 414 87 414 87 379.5 72.5 c 128,-1,46
 345 58 345 58 305 58 c 0,47,48
 266 58 266 58 231 72.5 c 128,-1,49
 196 87 196 87 170 112.5 c 128,-1,50
 144 138 144 138 129 173 c 128,-1,51
 114 208 114 208 114 250 c 0,52,53
 114 293 114 293 129 329.5 c 128,-1,54
 144 366 144 366 170.5 392.5 c 128,-1,55
 197 419 197 419 232 434 c 128,-1,56
 267 449 267 449 306 449 c 0,57,58
 342 450 342 450 375.5 439 c 128,-1,59
 409 428 409 428 437 406 c 1,60,-1
 399 474 l 1,61,62
 376 489 376 489 346.5 496.5 c 128,-1,63
 317 504 317 504 290 504 c 0,64,65
 241 505 241 505 197.5 486 c 128,-1,66
 154 467 154 467 122 433 c 128,-1,67
 90 399 90 399 72 352.5 c 128,-1,68
 54 306 54 306 54 251 c 0,69,70
 54 197 54 197 72.5 150 c 128,-1,71
 91 103 91 103 124.5 67.5 c 128,-1,72
 158 32 158 32 204 12 c 128,-1,73
 250 -8 250 -8 305 -8 c 0,0,1
EndSplineSet
EndChar

StartChar: epsilon
Encoding: 949 949 462
Width: 471
GlyphClass: 1
Flags: W
LayerCount: 2
Fore
SplineSet
415 77 m 1,0,1
 378 67 378 67 344 61.5 c 128,-1,2
 310 56 310 56 278 56 c 0,3,4
 206 56 206 56 165.5 81 c 128,-1,5
 125 106 125 106 125 150 c 0,6,7
 125 174 125 174 138 190.5 c 128,-1,8
 151 207 151 207 172.5 217.5 c 128,-1,9
 194 228 194 228 223.5 232.5 c 128,-1,10
 253 237 253 237 287 237 c 2,11,-1
 333 237 l 1,12,-1
 333 301 l 1,13,-1
 280 301 l 2,14,15
 251 301 251 301 226.5 307 c 128,-1,16
 202 313 202 313 184 323.5 c 128,-1,17
 166 334 166 334 155.5 349.5 c 128,-1,18
 145 365 145 365 145 384 c 0,19,20
 145 400 145 400 151.5 414 c 128,-1,21
 158 428 158 428 173 439 c 128,-1,22
 188 450 188 450 213 457 c 128,-1,23
 238 464 238 464 273 464 c 0,24,25
 290 464 290 464 308 462.5 c 128,-1,26
 326 461 326 461 344 458 c 128,-1,27
 362 455 362 455 377 451.5 c 128,-1,28
 392 448 392 448 403 442 c 1,29,-1
 423 505 l 1,30,31
 407 513 407 513 389 517 c 128,-1,32
 371 521 371 521 352 523.5 c 128,-1,33
 333 526 333 526 314 527 c 128,-1,34
 295 528 295 528 278 528 c 0,35,36
 228 528 228 528 191 517.5 c 128,-1,37
 154 507 154 507 129.5 488.5 c 128,-1,38
 105 470 105 470 93 446 c 128,-1,39
 81 422 81 422 81 395 c 0,40,41
 81 374 81 374 88.5 355 c 128,-1,42
 96 336 96 336 108 320 c 128,-1,43
 120 304 120 304 135.5 292.5 c 128,-1,44
 151 281 151 281 167 276 c 1,45,-1
 167 274 l 1,46,47
 146 268 146 268 126.5 255 c 128,-1,48
 107 242 107 242 92 225 c 128,-1,49
 77 208 77 208 68.5 186 c 128,-1,50
 60 164 60 164 60 139 c 0,51,52
 60 105 60 105 76.5 77.5 c 128,-1,53
 93 50 93 50 122 31 c 128,-1,54
 151 12 151 12 191 2 c 128,-1,55
 231 -8 231 -8 277 -8 c 0,56,57
 299 -8 299 -8 320.5 -6.5 c 128,-1,58
 342 -5 342 -5 362 -2 c 128,-1,59
 382 1 382 1 399 4 c 128,-1,60
 416 7 416 7 428 10 c 1,61,-1
 415 77 l 1,0,1
EndSplineSet
EndChar

StartChar: zeta
Encoding: 950 950 463
Width: 492
GlyphClass: 1
Flags: W
LayerCount: 2
Fore
SplineSet
334 -168 m 0,0,1
 368 -168 368 -168 397 -158 c 128,-1,2
 426 -148 426 -148 448 -131 c 128,-1,3
 470 -114 470 -114 482 -90 c 128,-1,4
 494 -66 494 -66 494 -39 c 0,5,6
 494 -17 494 -17 486 2 c 128,-1,7
 478 21 478 21 463 34.5 c 128,-1,8
 448 48 448 48 427 55.5 c 128,-1,9
 406 63 406 63 380 62 c 0,10,11
 361 63 361 63 331 60 c 128,-1,12
 301 57 301 57 268 56 c 0,13,14
 246 56 246 56 222 60.5 c 128,-1,15
 198 65 198 65 178.5 79 c 128,-1,16
 159 93 159 93 146 119 c 128,-1,17
 133 145 133 145 134 189 c 0,18,19
 135 229 135 229 146 272 c 128,-1,20
 157 315 157 315 177 359.5 c 128,-1,21
 197 404 197 404 225 448 c 128,-1,22
 253 492 253 492 287 532.5 c 128,-1,23
 321 573 321 573 359.5 609.5 c 128,-1,24
 398 646 398 646 441 676 c 1,25,-1
 439 725 l 1,26,-1
 271 725 l 2,27,28
 256 725 256 725 244.5 726.5 c 128,-1,29
 233 728 233 728 225 732 c 128,-1,30
 217 736 217 736 213 742.5 c 128,-1,31
 209 749 209 749 209 757 c 0,32,33
 210 763 210 763 212.5 774 c 128,-1,34
 215 785 215 785 221 792 c 1,35,-1
 162 815 l 1,36,37
 152 799 152 799 147.5 785.5 c 128,-1,38
 143 772 143 772 143 757 c 0,39,40
 143 717 143 717 173.5 691 c 128,-1,41
 204 665 204 665 264 665 c 2,42,-1
 370 665 l 1,43,-1
 354 694 l 1,44,45
 310 662 310 662 259.5 607.5 c 128,-1,46
 209 553 209 553 166.5 485 c 128,-1,47
 124 417 124 417 95.5 340 c 128,-1,48
 67 263 67 263 67 184 c 0,49,50
 67 121 67 121 85.5 83 c 128,-1,51
 104 45 104 45 132.5 25 c 128,-1,52
 161 5 161 5 195 -1.5 c 128,-1,53
 229 -8 229 -8 261 -8 c 0,54,55
 281 -8 281 -8 297 -7 c 128,-1,56
 313 -6 313 -6 327 -5 c 128,-1,57
 341 -4 341 -4 352 -2.5 c 128,-1,58
 363 -1 363 -1 372 -1 c 0,59,60
 402 -1 402 -1 415 -15 c 128,-1,61
 428 -29 428 -29 429 -42 c 0,62,63
 429 -55 429 -55 420.5 -66 c 128,-1,64
 412 -77 412 -77 398 -85.5 c 128,-1,65
 384 -94 384 -94 364.5 -98.5 c 128,-1,66
 345 -103 345 -103 322 -103 c 0,67,68
 303 -103 303 -103 280 -100 c 128,-1,69
 257 -97 257 -97 239 -91 c 1,70,-1
 239 -157 l 1,71,72
 266 -162 266 -162 291.5 -165 c 128,-1,73
 317 -168 317 -168 334 -168 c 0,0,1
EndSplineSet
EndChar

